{"glyphs":{"0":{"ha":793,"x_min":27,"x_max":766,"o":"m 406 993 q 532 964 468 994 q 647 874 595 935 q 731 723 699 814 q 765 510 764 632 q 753 362 766 429 q 716 243 739 296 q 664 151 693 191 q 605 83 635 111 q 548 39 575 56 q 502 18 521 23 q 444 3 477 9 q 373 -5 410 -3 q 300 -1 336 -7 q 237 22 264 5 q 174 68 210 38 q 106 153 138 99 q 50 288 73 206 q 27 487 27 369 q 55 699 27 605 q 132 857 83 792 q 252 957 182 922 q 406 993 321 991 m 214 488 q 224 349 213 408 q 250 248 235 289 q 280 184 264 208 q 304 151 296 160 q 334 134 312 138 q 380 131 355 130 q 427 138 404 132 q 463 155 450 144 q 482 189 469 161 q 508 259 495 216 q 532 360 521 302 q 547 484 543 418 q 547 622 551 559 q 534 732 543 685 q 515 811 526 780 q 492 853 505 842 q 450 876 475 869 q 399 882 425 883 q 352 872 374 880 q 317 850 330 864 q 274 793 293 823 q 243 722 255 764 q 223 623 231 680 q 214 488 216 567 z "},"1":{"ha":450,"x_min":0,"x_max":395,"o":"m 39 841 q 117 866 87 856 q 165 883 146 876 q 198 898 187 891 l 231 914 q 279 939 250 924 q 357 979 309 955 q 341 882 346 928 q 334 802 336 837 q 330 727 330 761 q 326 651 328 699 q 321 548 324 604 q 316 434 319 492 q 313 325 313 376 q 314 237 312 274 q 323 187 316 201 q 340 156 330 171 q 363 125 350 142 q 395 92 376 109 q 336 81 363 85 q 289 73 309 76 q 245 66 264 69 q 190 60 225 65 q 114 50 160 56 q 0 37 68 43 q 56 79 35 58 q 88 114 77 99 q 103 148 100 132 q 108 207 104 159 q 115 321 111 255 q 121 462 118 387 q 126 602 125 537 q 127 713 127 667 q 123 769 127 760 q 107 791 118 779 q 82 814 98 802 q 39 841 66 826 z "},"2":{"ha":800,"x_min":56,"x_max":730,"o":"m 56 956 q 108 928 81 937 q 156 917 134 920 q 205 916 180 913 q 252 932 228 918 q 309 960 277 945 q 386 987 342 975 q 492 998 430 998 q 550 987 519 998 q 609 960 581 977 q 661 922 637 943 q 697 882 685 902 q 716 816 711 861 q 720 718 722 770 q 711 613 719 665 q 690 529 704 562 q 628 456 674 500 q 510 358 589 418 q 298 216 431 298 q 431 220 377 217 q 518 228 484 224 q 581 239 557 233 q 624 262 601 247 q 665 297 643 275 q 709 354 688 319 q 718 239 713 281 q 722 197 720 214 q 724 159 723 180 q 726 115 726 140 q 730 64 727 91 q 606 92 662 81 q 511 106 551 102 q 429 111 465 111 q 345 104 391 110 q 248 89 304 99 q 121 60 191 79 q 111 90 115 75 q 104 121 107 106 q 98 153 100 137 q 92 184 95 170 q 88 213 90 198 q 85 241 87 228 q 262 367 194 311 q 369 463 330 423 q 437 547 414 509 q 475 648 460 593 q 485 751 490 704 q 452 829 480 799 q 361 856 423 860 q 284 827 320 853 q 218 765 248 802 q 165 687 189 728 q 127 609 142 646 q 102 548 111 572 q 94 522 94 524 q 90 543 92 519 q 86 600 88 566 q 81 673 84 635 q 76 736 79 711 q 72 789 75 757 q 56 956 68 842 z "},"3":{"ha":743,"x_min":42,"x_max":720,"o":"m 42 991 q 90 967 65 975 q 133 955 114 959 q 178 949 156 949 q 227 956 205 949 q 277 970 250 963 q 339 981 304 977 q 427 982 374 986 q 522 958 480 978 q 593 909 564 939 q 639 845 623 880 q 655 773 655 810 q 637 669 652 718 q 595 587 624 627 q 511 530 567 547 q 618 495 579 521 q 678 442 656 469 q 712 372 703 410 q 711 269 720 321 q 676 172 701 217 q 608 92 651 126 q 506 41 566 57 q 413 36 465 30 q 312 54 361 42 q 224 79 263 66 q 170 90 184 91 q 141 80 157 88 q 106 59 126 73 q 60 19 87 45 q 70 117 66 80 q 76 175 73 153 q 79 212 79 199 l 79 241 q 77 283 79 258 q 75 349 76 309 q 205 222 144 264 q 312 161 266 180 q 411 141 366 140 q 472 166 449 144 q 505 220 495 189 q 511 287 514 251 q 494 355 509 323 q 456 410 480 387 q 399 439 431 434 q 324 441 359 446 q 259 422 293 437 q 202 374 225 408 q 199 414 199 397 q 197 441 198 430 q 195 458 195 453 q 194 479 195 465 q 192 508 193 490 q 189 555 191 526 q 235 545 213 548 q 273 540 256 541 q 308 540 292 538 q 357 555 328 541 q 412 594 387 570 q 454 652 438 618 q 464 727 469 686 q 409 846 452 810 q 321 879 366 882 q 251 850 292 875 q 168 789 216 830 q 58 673 119 747 q 61 739 61 709 q 61 787 61 768 q 60 827 61 810 l 56 868 q 50 920 53 888 q 42 991 47 951 z "},"4":{"ha":753,"x_min":0,"x_max":738,"o":"m 236 982 q 310 978 281 979 q 357 977 339 977 q 388 977 377 975 l 423 977 q 481 976 444 977 q 579 974 518 975 q 568 951 572 964 q 562 924 564 937 q 556 891 557 909 q 551 823 555 869 q 543 714 548 784 q 532 533 538 644 q 600 541 571 533 q 647 559 628 548 q 682 585 669 570 q 697 602 689 593 q 715 620 704 610 q 738 640 726 629 q 734 577 735 604 q 731 533 732 551 q 728 500 730 513 q 726 461 728 486 q 720 404 723 439 q 715 313 718 368 q 690 356 701 340 q 670 380 678 372 q 651 393 659 389 q 625 399 642 396 q 588 402 610 401 q 530 404 566 403 q 534 275 530 324 q 541 199 537 227 q 553 153 547 167 q 576 125 562 141 q 613 90 590 110 q 673 43 636 69 q 614 35 642 37 q 563 30 586 33 q 514 27 537 27 q 454 24 490 27 q 377 19 423 22 q 266 12 331 16 q 303 55 289 35 q 326 90 317 75 q 339 118 335 106 q 347 168 342 133 q 357 251 351 198 q 369 391 362 304 l 0 387 l 7 477 q 113 635 73 572 q 175 738 153 699 q 210 808 199 783 q 222 860 217 833 q 232 915 228 883 q 236 982 236 947 m 385 519 q 390 587 388 556 q 393 640 392 617 q 395 689 395 666 l 395 739 q 395 797 395 764 q 397 872 396 830 l 198 517 l 385 519 z "},"5":{"ha":724,"x_min":27,"x_max":671,"o":"m 80 974 q 194 956 145 962 q 277 948 243 951 q 345 947 316 945 q 416 951 373 947 q 509 958 453 954 q 643 970 566 963 q 635 904 639 933 q 629 854 632 875 q 625 811 627 830 q 621 765 624 791 q 616 708 618 742 q 613 629 614 674 q 519 762 562 715 q 446 831 477 808 q 382 863 411 857 l 327 863 q 274 861 302 863 q 222 856 245 860 l 228 536 q 288 586 255 570 q 351 609 320 602 q 423 614 387 616 q 570 582 518 606 q 646 510 623 557 q 664 436 656 486 q 669 330 671 387 q 651 218 666 273 q 604 129 636 163 q 540 75 571 96 q 477 41 509 54 q 412 23 446 28 q 340 15 378 18 q 224 28 279 11 q 126 76 168 46 q 58 140 84 106 q 30 203 33 175 q 27 247 27 225 q 29 286 27 266 q 38 321 31 307 l 389 297 q 312 262 338 281 q 275 228 286 244 q 264 190 262 209 q 298 111 274 141 q 354 85 323 80 q 391 108 370 88 q 432 157 412 127 q 467 224 452 187 q 487 300 483 262 q 493 380 491 338 q 490 457 495 422 q 471 516 484 492 q 431 540 457 540 q 382 522 410 537 q 328 481 359 509 q 256 403 296 454 q 211 417 229 410 q 180 430 193 425 q 157 442 165 435 q 136 456 149 448 q 109 473 125 463 q 69 498 92 483 q 76 587 75 551 q 79 647 77 624 l 79 692 q 77 747 77 711 q 77 833 77 779 q 80 974 77 888 z "},"6":{"ha":728,"x_min":22,"x_max":707,"o":"m 563 1008 l 589 666 q 555 736 578 713 q 510 768 533 760 q 450 773 483 777 q 316 700 374 754 q 267 644 292 677 q 224 566 243 612 q 195 463 206 521 q 184 330 184 404 q 233 428 206 388 q 291 493 260 468 q 353 532 321 518 q 414 549 384 545 q 556 533 483 560 q 650 456 614 507 q 696 342 685 406 q 695 212 707 279 q 650 88 684 145 q 562 -9 617 31 q 430 -57 506 -49 q 227 -22 316 -69 q 87 113 138 24 q 28 322 35 201 q 71 581 22 444 q 119 699 92 642 q 198 810 146 757 q 336 912 250 863 q 563 1008 422 962 m 273 222 q 290 145 277 180 q 322 84 304 110 q 361 44 340 58 q 401 31 382 30 q 469 83 441 34 q 502 216 496 133 q 492 298 505 256 q 460 372 479 339 q 418 424 441 404 q 378 442 396 444 q 330 419 351 438 q 295 370 309 400 q 275 302 281 340 q 273 222 269 263 z "},"7":{"ha":741,"x_min":42,"x_max":768,"o":"m 42 944 q 264 943 180 943 q 393 944 347 943 q 469 947 448 945 l 529 952 q 621 960 563 955 q 768 977 678 966 q 591 621 658 772 q 488 369 525 471 q 429 167 445 251 q 430 122 426 145 q 442 80 433 103 q 473 38 452 57 q 393 37 427 37 q 335 39 358 38 q 286 41 308 41 q 232 39 266 42 q 157 31 203 37 q 43 15 110 26 q 115 60 87 39 q 161 96 144 81 q 194 129 182 114 q 237 205 217 161 q 275 298 256 248 q 313 404 293 349 q 359 514 334 458 q 403 612 378 559 q 450 715 423 656 q 506 840 476 773 q 451 864 490 860 q 373 864 412 868 q 273 846 327 859 q 222 814 251 838 q 163 751 198 792 q 84 639 127 709 q 76 766 80 726 l 72 807 q 65 842 69 822 q 56 886 62 860 q 42 944 50 911 z "},"8":{"ha":787,"x_min":28,"x_max":762,"o":"m 473 991 q 593 973 538 996 q 686 915 648 951 q 743 836 724 879 q 758 755 762 792 q 726 663 750 708 q 664 585 704 625 q 553 517 624 544 q 648 435 616 479 q 696 353 681 391 q 712 264 712 308 q 684 140 708 197 q 617 43 661 84 q 511 -19 574 3 q 369 -39 449 -41 q 121 26 208 -35 q 28 197 34 87 q 50 324 28 264 q 74 374 60 349 q 111 422 88 400 q 164 463 133 445 q 236 491 195 481 q 170 515 197 500 q 125 547 144 529 q 97 585 107 566 q 83 625 87 605 q 84 724 72 670 q 134 842 104 793 q 208 921 163 890 q 319 968 254 952 q 473 991 384 985 m 259 731 q 254 674 251 707 q 270 614 256 642 q 308 567 283 586 q 369 549 332 548 q 447 567 414 551 q 503 609 480 583 q 542 668 526 635 q 567 739 557 701 q 571 809 576 777 q 551 864 566 841 q 517 901 537 887 q 479 918 498 916 q 397 906 434 925 q 332 857 359 887 q 286 791 304 826 q 259 731 267 757 m 214 296 q 198 219 197 258 q 216 149 199 180 q 260 96 232 117 q 327 73 289 75 q 401 85 369 72 q 455 121 433 98 q 493 178 477 145 q 521 251 509 212 q 525 326 532 290 q 500 390 518 362 q 456 435 481 418 q 404 452 430 452 q 298 412 346 452 q 214 296 250 372 z "},"9":{"ha":686,"x_min":11,"x_max":682,"o":"m 372 956 q 467 932 418 952 q 557 873 515 911 q 630 776 600 834 q 669 639 661 718 q 652 404 682 503 q 564 231 621 305 q 429 98 506 156 q 271 -11 353 41 q 208 53 231 28 l 183 77 q 159 104 174 90 q 129 137 146 118 q 90 180 111 156 q 166 151 132 157 q 225 145 201 144 q 277 155 254 146 q 387 229 338 184 q 463 328 429 269 q 500 468 498 387 q 406 378 457 406 q 312 342 355 351 q 209 338 260 331 q 153 365 183 342 q 96 424 123 388 q 48 505 69 460 q 19 599 27 549 q 18 699 11 648 q 57 798 26 750 q 144 902 103 867 q 222 950 184 937 q 297 962 260 963 q 372 956 334 960 m 228 682 q 217 606 217 644 q 227 537 217 568 q 256 484 237 506 q 304 456 275 461 q 360 465 332 449 q 412 509 388 480 q 452 576 435 537 q 475 655 469 614 q 475 717 479 684 q 462 779 472 750 q 436 829 452 808 q 400 853 420 849 q 347 846 373 857 q 297 810 320 834 q 256 753 274 787 q 228 682 237 720 z "},"\u0000":{"ha":0,"x_min":0,"x_max":0,"o":""},"\f":{"ha":0,"x_min":0,"x_max":0,"o":""}," ":{"ha":336,"x_min":0,"x_max":0,"o":""},"!":{"ha":407,"x_min":69,"x_max":407,"o":"m 102 978 q 151 968 127 971 q 191 962 174 964 q 229 958 212 959 q 274 955 248 956 q 330 954 297 954 q 407 954 362 954 q 343 795 368 860 q 305 689 319 731 q 283 609 290 640 q 270 533 278 578 q 251 437 263 494 q 224 301 239 380 l 104 307 q 119 429 115 378 q 126 514 123 480 q 129 579 129 553 q 125 661 129 606 q 117 782 122 705 q 102 978 111 859 m 251 198 q 262 165 260 183 q 260 128 264 146 q 242 94 255 110 q 208 68 229 77 q 130 58 164 47 q 80 92 96 68 q 70 123 71 106 q 76 157 69 140 q 98 189 83 174 q 136 213 113 203 q 210 227 180 232 q 251 198 239 221 z "},"\"":{"ha":528,"x_min":56,"x_max":444,"o":"m 56 1034 l 201 1023 l 170 662 l 75 656 l 56 1034 m 279 1017 l 444 1006 l 412 677 l 315 673 l 279 1017 z "},"#":{"ha":914,"x_min":14,"x_max":894,"o":"m 117 666 l 244 690 q 252 722 250 704 q 258 755 255 739 q 260 793 260 774 q 263 829 260 808 q 269 869 266 845 q 277 920 271 892 l 393 913 q 382 865 387 886 q 376 829 378 844 q 370 800 372 812 q 366 769 369 785 q 360 734 363 754 q 354 686 357 713 q 416 694 389 692 q 463 700 444 697 q 500 703 484 703 q 536 705 517 704 q 574 707 552 707 q 621 709 595 708 l 663 913 l 811 910 q 795 866 802 886 q 785 831 789 846 q 777 800 780 815 q 770 772 774 787 q 764 744 768 760 q 754 713 760 728 l 894 713 l 864 574 q 842 580 854 576 q 819 586 830 583 q 791 590 806 589 q 766 593 779 591 q 731 593 743 595 q 721 551 726 570 q 713 517 716 532 q 707 487 709 500 q 700 457 704 473 q 693 424 697 442 q 684 382 689 406 q 711 382 699 382 q 735 384 724 382 q 757 387 747 385 q 780 388 766 387 q 806 390 791 389 q 841 393 822 391 l 791 273 q 770 272 780 271 q 751 274 760 273 q 734 277 742 275 q 712 281 724 278 q 687 283 701 282 q 654 286 673 285 q 648 272 651 282 q 643 251 646 262 q 637 224 640 237 l 631 190 q 624 157 628 175 q 617 119 620 138 q 557 109 579 113 q 525 104 536 106 q 507 103 511 102 q 507 126 505 106 q 516 180 510 144 q 537 286 522 217 q 500 283 521 285 q 463 278 480 281 q 420 273 441 275 q 376 266 400 270 q 330 259 355 263 q 281 250 305 255 l 237 73 l 130 64 q 143 112 137 92 q 152 144 149 132 q 157 167 156 159 q 161 186 159 174 q 166 212 164 197 q 171 247 168 227 q 136 235 152 240 q 109 227 119 229 q 84 220 95 222 q 61 213 73 217 q 38 205 50 210 q 14 193 26 199 l 31 327 l 180 340 q 191 385 186 365 q 198 419 195 404 q 203 450 202 435 q 210 486 206 467 q 216 523 213 502 q 224 570 220 544 q 197 567 209 568 q 175 564 186 566 q 153 560 163 562 q 136 555 146 559 q 111 547 126 552 q 73 533 95 541 l 117 666 m 304 343 q 363 349 338 346 q 404 355 388 353 l 437 359 l 469 363 q 509 368 486 366 q 564 373 533 370 l 608 604 q 549 600 575 601 q 505 598 524 600 q 467 597 483 597 q 431 594 450 595 q 393 592 415 593 q 347 590 372 591 l 304 343 z "},"$":{"ha":773,"x_min":14,"x_max":762,"o":"m 408 878 q 485 857 452 864 q 543 848 518 850 q 593 845 570 844 q 633 852 613 846 q 671 867 651 857 q 709 894 692 876 q 692 818 699 848 q 682 770 685 788 q 677 739 678 750 q 671 705 675 728 q 664 652 669 686 q 651 563 659 617 q 589 661 620 624 q 533 722 559 699 q 476 761 503 747 q 449 770 463 766 q 425 775 438 773 q 406 774 412 777 l 404 583 q 534 560 483 575 q 617 530 586 545 q 673 492 652 513 q 739 403 716 439 q 758 317 762 366 q 745 262 757 293 q 713 203 732 232 q 667 154 693 175 q 612 127 642 133 q 560 123 587 125 q 506 124 537 122 q 441 133 475 126 q 445 77 442 96 q 448 60 446 66 q 452 46 449 53 q 457 31 454 39 q 464 11 460 22 l 308 9 q 321 25 316 18 q 330 38 327 33 q 334 49 334 43 q 335 66 334 54 q 336 94 335 77 q 336 140 336 111 q 276 151 301 148 q 232 153 251 153 q 195 149 210 153 q 168 138 182 144 q 144 124 157 133 q 123 104 132 115 q 116 155 118 130 q 111 199 114 179 q 107 244 109 222 q 106 294 107 267 q 104 350 104 317 q 104 422 103 382 q 143 374 126 396 q 174 335 160 351 q 201 298 189 315 q 235 263 216 278 q 271 242 250 251 q 317 240 293 233 l 311 473 q 235 481 267 476 q 184 494 203 487 q 146 511 160 500 q 102 547 129 524 q 55 599 76 570 q 24 661 34 628 q 30 728 14 694 q 58 785 46 761 q 85 825 71 808 q 116 852 99 841 q 159 872 133 863 q 190 880 171 876 q 232 885 206 883 q 294 887 258 887 q 290 908 292 898 q 288 926 289 918 q 285 945 286 936 q 282 966 285 955 q 277 985 279 975 q 270 1006 274 996 l 446 1004 q 429 979 435 990 q 419 960 423 968 q 412 943 414 951 q 411 928 412 936 q 409 908 410 920 q 408 878 408 897 m 198 665 q 212 632 199 647 q 245 602 222 617 q 311 576 267 587 l 301 761 q 244 746 264 761 q 213 712 224 731 q 198 665 201 690 m 412 460 q 416 372 414 404 q 418 340 418 354 q 419 311 418 327 q 421 275 420 296 q 425 227 422 254 q 502 250 475 233 q 544 285 529 266 q 564 331 559 307 q 549 403 564 372 q 505 448 536 430 q 412 460 473 467 z "},"%":{"ha":985,"x_min":19,"x_max":971,"o":"m 476 807 q 413 663 472 713 q 267 610 354 613 q 179 618 224 609 q 98 649 134 628 q 41 703 62 670 q 22 780 19 735 q 43 861 24 827 q 91 918 61 895 q 159 951 121 940 q 237 962 197 962 q 322 951 279 962 q 399 922 365 941 q 456 873 434 902 q 476 807 477 844 m 176 777 q 182 740 176 758 q 198 708 189 722 q 220 686 208 694 q 247 680 233 678 q 275 689 260 681 q 302 711 290 697 q 320 745 313 726 q 326 788 327 765 q 321 832 326 811 q 308 869 317 853 q 283 892 298 884 q 247 898 269 901 q 195 860 217 895 q 176 777 174 825 m 518 179 q 533 262 518 225 q 574 325 548 298 q 637 367 601 351 q 718 385 674 382 q 806 380 761 388 q 888 354 852 373 q 948 303 925 335 q 971 227 971 271 q 954 144 971 179 q 907 86 936 110 q 842 50 879 62 q 764 35 804 37 q 678 41 722 33 q 599 68 635 50 q 541 115 563 87 q 518 179 518 142 m 817 222 q 791 291 814 262 q 741 317 768 320 q 713 307 727 316 q 688 283 699 298 q 671 249 677 269 q 667 206 665 229 q 674 162 669 183 q 689 126 680 141 q 713 103 699 111 q 750 99 728 95 q 800 140 780 104 q 817 222 821 176 m 827 952 q 726 800 776 879 q 637 652 677 720 q 549 498 591 574 q 479 353 514 427 q 418 207 449 288 q 363 42 387 126 l 156 33 q 313 294 251 187 q 414 468 376 400 q 481 595 458 547 q 521 686 499 633 q 565 798 540 731 q 621 952 590 864 l 827 952 z "},"&":{"ha":796,"x_min":50,"x_max":907,"o":"m 551 521 q 604 520 578 519 q 650 522 629 521 q 693 526 673 524 l 746 530 q 812 533 773 532 q 907 536 852 534 q 857 511 878 525 q 822 487 836 498 q 796 461 807 473 q 771 420 784 445 q 743 368 758 395 q 711 313 728 340 q 674 263 694 285 q 648 235 662 250 q 623 205 637 221 q 593 174 608 189 q 654 110 627 136 q 701 69 682 84 q 741 39 724 50 q 779 18 757 28 q 821 -3 796 8 q 875 -24 845 -14 q 642 -40 724 -35 q 521 -47 559 -45 q 467 -52 476 -52 q 472 -47 464 -53 q 491 -31 480 -41 q 511 -7 502 -20 q 521 19 521 5 q 519 42 521 30 q 515 66 518 53 q 506 95 513 80 q 438 30 479 52 q 359 -1 397 8 q 269 -11 315 -12 q 97 53 144 -3 q 57 216 50 109 q 83 308 62 258 q 135 407 100 351 q 233 528 170 463 q 132 669 165 606 q 85 777 99 732 q 73 869 71 830 q 109 960 83 930 q 170 1001 136 990 q 244 1012 205 1012 q 317 1015 283 1012 q 395 1014 351 1017 q 480 1000 439 1010 q 552 972 521 990 q 593 926 583 954 q 606 874 602 899 q 604 822 610 849 q 578 764 598 795 q 519 697 557 734 q 463 637 491 666 q 408 586 438 613 q 351 538 378 559 q 380 489 365 513 q 407 446 395 465 q 435 403 422 423 q 470 350 452 376 q 504 305 488 324 q 530 275 519 286 q 544 267 541 264 q 557 293 545 270 q 583 345 568 316 q 608 403 597 374 q 623 445 620 431 q 614 469 621 456 q 593 493 608 480 q 551 521 579 506 m 288 636 q 387 761 355 713 q 429 836 418 808 q 435 882 442 867 q 397 909 423 897 q 342 922 372 921 q 281 909 312 922 q 229 860 251 897 q 224 811 221 842 q 239 742 227 784 q 288 636 252 700 m 260 212 q 304 176 278 186 q 363 172 327 167 q 450 213 399 178 q 415 262 430 240 q 389 300 400 285 q 369 330 377 317 q 349 359 361 342 q 323 396 338 374 q 288 448 308 418 q 233 338 244 396 q 260 212 221 281 z "},"'":{"ha":283,"x_min":56,"x_max":201,"o":"m 56 1034 l 201 1023 l 170 662 l 75 656 l 56 1034 z "},"(":{"ha":403,"x_min":53,"x_max":361,"o":"m 361 -184 q 189 75 250 -49 q 98 296 127 199 q 56 507 62 408 q 73 673 53 590 q 123 831 92 755 q 190 971 153 906 q 258 1084 227 1036 q 311 1161 290 1133 q 334 1192 332 1190 q 335 1177 335 1192 q 334 1135 335 1164 q 332 1047 334 1105 q 252 817 281 918 q 210 642 224 715 q 191 491 195 557 q 212 347 194 426 q 260 188 227 279 q 358 -12 293 96 l 361 -184 l 361 -184 z "},")":{"ha":393,"x_min":42,"x_max":339,"o":"m 42 1198 q 210 936 151 1061 q 298 713 270 811 q 338 502 332 600 q 319 337 339 419 q 267 180 298 255 q 197 40 235 104 q 128 -73 160 -24 q 74 -149 96 -121 q 52 -179 52 -176 q 50 -164 50 -179 q 51 -122 50 -152 q 54 -34 52 -92 q 136 195 107 94 q 180 370 165 297 q 202 521 197 454 q 184 665 201 586 q 137 824 170 732 q 42 1025 104 916 l 42 1198 l 42 1198 z "},"*":{"ha":602,"x_min":20,"x_max":581,"o":"m 20 818 l 90 899 l 256 757 l 317 1024 l 460 952 l 317 761 l 560 789 l 581 639 l 334 680 l 439 448 q 374 433 397 438 q 338 425 350 427 q 317 419 323 420 q 309 445 315 420 q 298 509 305 465 q 285 639 292 553 l 118 496 l 49 602 l 216 688 q 101 763 140 736 q 43 802 62 789 q 20 818 22 817 z "},"+":{"ha":719,"x_min":20,"x_max":697,"o":"m 286 754 l 444 761 q 427 702 433 728 q 418 656 420 675 q 414 616 414 633 l 414 576 q 412 534 414 557 q 410 484 411 511 q 493 487 458 486 q 551 488 528 488 l 594 488 q 627 490 610 488 q 659 493 642 491 q 692 500 675 495 l 697 385 q 644 388 667 388 q 602 389 620 388 q 566 391 582 389 l 525 391 q 475 389 505 391 q 407 387 446 388 q 404 343 404 363 q 404 307 403 323 q 407 271 404 288 q 412 231 408 254 q 420 182 415 210 q 431 114 425 153 l 283 114 q 292 180 289 151 q 298 228 296 209 q 302 269 301 251 q 305 312 304 290 q 307 352 307 331 q 305 392 307 373 q 245 393 271 393 q 199 391 218 392 q 161 388 178 389 q 125 384 145 385 q 83 380 107 381 q 30 377 58 380 l 20 488 q 85 484 57 486 q 132 483 113 483 l 168 483 l 209 483 l 316 483 q 315 545 316 518 q 313 589 315 571 q 311 621 312 609 q 305 654 309 635 q 298 695 302 670 q 286 754 293 720 z "},",":{"ha":282,"x_min":54,"x_max":227,"o":"m 100 3 q 68 26 80 9 q 55 64 56 43 q 66 104 54 84 q 102 137 77 123 q 171 148 141 159 q 213 115 201 137 q 223 85 220 104 q 226 45 227 66 q 221 4 225 24 q 209 -30 217 -16 q 193 -50 202 -39 q 173 -70 184 -60 q 146 -87 161 -80 l 99 -83 q 116 -64 109 -72 q 129 -49 123 -56 q 140 -37 134 -42 q 153 -18 148 -27 q 163 0 159 -9 q 164 19 167 9 q 144 4 155 8 q 123 0 133 0 q 100 3 111 0 z "},"-":{"ha":636,"x_min":20,"x_max":616,"o":"m 20 498 q 117 496 73 496 q 194 496 161 496 q 263 498 232 496 q 346 500 296 498 q 455 505 389 502 q 616 511 521 507 l 609 373 q 482 380 533 378 q 400 384 431 382 q 340 384 363 385 q 275 380 317 382 q 180 374 240 377 q 27 363 119 370 l 20 498 z "},".":{"ha":307,"x_min":56,"x_max":252,"o":"m 148 149 q 224 133 197 156 q 251 69 252 110 q 243 37 250 49 q 224 18 236 24 q 197 9 213 12 q 161 3 182 5 q 122 5 141 -1 q 88 23 103 11 q 64 50 73 35 q 56 80 56 65 q 64 108 56 96 q 87 128 73 119 q 117 142 102 137 q 148 149 133 146 z "},"/":{"ha":651,"x_min":-7,"x_max":658,"o":"m 481 1025 l 583 1025 q 606 1024 594 1025 q 630 1022 617 1023 q 658 1019 643 1021 q 548 822 593 906 q 473 681 503 738 q 415 568 438 614 q 355 441 391 519 q 276 266 324 373 q 159 4 228 159 q 136 3 148 4 q 113 1 123 3 q 87 0 99 0 q 58 -3 73 0 q 28 -8 45 -5 q -7 -16 12 -11 q 114 214 66 123 q 189 362 161 305 q 239 465 221 427 q 304 610 267 526 q 380 786 335 682 q 481 1025 425 890 z "},":":{"ha":309,"x_min":54,"x_max":255,"o":"m 151 149 q 227 133 199 156 q 254 69 255 110 q 245 37 252 49 q 227 18 239 24 q 200 9 216 12 q 164 3 184 5 q 125 5 144 -1 q 91 23 106 11 q 67 50 76 35 q 58 80 58 65 q 67 108 58 96 q 90 128 76 119 q 120 142 104 137 q 151 149 136 146 m 237 463 q 249 428 247 446 q 245 392 251 410 q 227 358 240 374 q 194 332 214 342 q 117 321 151 312 q 65 357 83 331 q 55 387 56 370 q 62 421 54 404 q 84 453 69 438 q 122 477 99 468 q 196 490 167 496 q 237 463 225 484 z "},";":{"ha":305,"x_min":54,"x_max":251,"o":"m 103 3 q 71 26 83 9 q 58 64 58 43 q 68 104 57 84 q 104 137 80 123 q 174 148 144 159 q 216 115 203 137 q 226 85 222 104 q 229 45 229 66 q 224 4 228 24 q 212 -30 220 -16 q 195 -50 205 -39 q 176 -70 187 -60 q 149 -87 164 -80 l 102 -83 q 119 -64 111 -72 q 132 -49 126 -56 q 142 -37 137 -42 q 156 -18 151 -27 q 165 0 161 -9 q 167 19 170 9 q 146 4 157 8 q 126 0 136 0 q 103 3 114 0 m 237 463 q 249 428 247 446 q 245 392 251 410 q 227 358 240 374 q 194 332 214 342 q 117 321 151 312 q 65 357 83 331 q 55 387 56 370 q 62 421 54 404 q 84 453 69 438 q 122 477 99 468 q 196 490 167 496 q 237 463 225 484 z "},"<":{"ha":533,"x_min":0,"x_max":464,"o":"m 464 754 l 464 568 q 401 545 431 557 q 349 521 372 532 q 298 494 321 507 l 251 465 q 206 438 231 453 q 161 410 182 423 q 205 380 184 393 q 243 355 227 366 q 279 332 262 343 q 330 304 301 319 q 386 277 359 289 q 431 256 412 264 q 452 244 450 247 q 453 218 453 240 q 453 161 453 199 q 452 54 453 123 q 379 121 412 91 q 320 172 346 151 q 264 216 290 197 q 199 263 237 235 q 117 326 167 288 q 0 415 68 363 q 106 491 64 461 q 172 538 148 521 q 217 568 201 559 q 269 605 235 581 q 344 661 297 625 q 464 754 391 697 z "},"=":{"ha":712,"x_min":20,"x_max":692,"o":"m 24 363 q 217 366 144 365 q 330 369 290 368 q 396 370 376 370 q 452 373 414 370 q 541 377 484 374 q 688 385 597 380 l 692 263 q 522 265 589 264 q 415 267 454 266 q 345 269 369 269 q 277 267 320 270 q 178 260 240 264 q 23 244 117 255 q 26 275 26 262 q 26 297 26 288 l 26 316 q 24 331 24 323 l 24 363 m 686 511 q 493 511 566 511 q 381 510 420 510 l 315 510 q 259 507 297 509 q 170 503 227 506 q 23 498 113 500 l 20 621 q 191 616 123 618 q 297 612 258 613 q 368 609 343 609 q 434 610 391 608 q 533 616 471 612 q 689 629 595 620 q 685 578 685 594 l 685 559 l 685 543 q 686 528 685 536 q 686 511 686 519 z "},">":{"ha":533,"x_min":69,"x_max":533,"o":"m 69 754 q 189 661 141 697 q 264 605 236 625 q 316 568 298 581 q 361 538 332 559 q 427 491 385 521 q 533 415 468 461 q 415 326 464 363 q 334 263 366 288 q 269 216 296 235 q 213 172 243 197 q 153 121 187 151 q 80 54 119 91 q 79 161 79 123 q 79 218 79 199 q 80 244 79 240 q 101 256 81 247 q 147 277 121 264 q 203 304 174 289 q 254 332 232 319 q 290 355 271 343 q 327 380 307 366 q 370 410 347 393 q 326 438 350 423 q 282 465 302 453 l 235 494 q 184 521 212 507 q 131 545 161 532 q 69 568 100 557 l 69 754 l 69 754 z "},"?":{"ha":705,"x_min":14,"x_max":693,"o":"m 298 701 q 250 693 274 697 q 206 686 225 689 q 163 680 183 682 q 118 673 142 675 q 71 668 98 670 q 14 665 43 666 q 20 692 16 675 q 26 723 23 708 q 33 760 30 741 q 39 800 37 784 q 43 829 41 817 q 49 850 45 841 q 64 869 53 860 q 105 903 80 884 q 166 935 130 921 q 250 958 202 949 q 362 962 298 966 q 468 948 426 958 q 538 924 510 939 q 585 892 567 910 q 620 849 604 873 q 652 790 636 825 q 678 718 667 755 q 691 642 689 680 q 684 574 693 604 q 636 525 671 549 q 547 476 605 503 q 388 422 490 449 q 396 376 391 396 q 407 340 401 355 q 420 309 412 323 q 435 282 429 297 q 450 256 442 270 q 464 229 457 241 l 198 197 q 218 229 210 212 q 229 260 225 245 q 235 296 235 278 q 232 342 235 315 q 224 401 229 365 q 209 486 220 437 q 314 500 273 488 q 381 524 355 511 q 427 555 411 538 q 448 602 439 570 q 460 673 457 633 q 460 753 464 712 q 441 827 456 795 q 399 880 426 860 q 332 897 373 899 q 240 874 271 891 q 197 837 209 857 q 185 796 184 817 q 189 766 186 776 q 203 747 190 757 q 237 727 214 738 q 298 701 259 716 m 324 149 q 401 133 373 156 q 427 69 429 110 q 419 37 426 49 q 401 18 412 24 q 374 9 389 12 q 338 3 358 5 q 298 5 317 -1 q 264 23 279 11 q 241 50 250 35 q 232 80 232 65 q 241 108 232 96 q 264 128 250 119 q 294 142 278 137 q 324 149 309 146 z "},"@":{"ha":937,"x_min":18,"x_max":918,"o":"m 604 741 l 696 723 q 678 588 684 639 q 670 510 673 537 q 670 464 667 477 q 686 416 675 434 q 726 401 696 399 q 759 428 739 403 q 795 488 779 453 q 821 562 811 524 q 826 628 831 601 q 802 688 821 656 q 760 747 783 719 q 714 794 736 774 q 680 819 692 814 q 627 836 667 825 q 534 854 586 848 q 427 853 481 860 q 334 814 373 846 q 257 737 294 783 q 193 636 220 692 q 156 516 167 581 q 159 381 145 452 q 207 262 172 311 q 286 184 241 214 q 380 142 331 155 q 475 130 430 130 q 555 142 510 132 q 644 169 593 151 q 757 220 696 187 l 776 138 q 608 77 682 95 q 483 53 534 58 q 378 53 423 47 q 259 87 323 64 q 142 152 195 111 q 53 252 88 193 q 20 395 18 311 q 49 570 23 477 q 125 744 75 663 q 251 883 175 825 q 431 956 327 941 q 609 960 536 972 q 731 924 682 948 q 807 872 780 901 q 845 826 834 844 q 865 786 852 814 q 890 720 878 758 q 910 636 902 681 q 916 546 918 591 q 900 458 914 500 q 853 382 886 415 q 785 320 817 346 q 732 281 758 297 q 696 273 707 266 q 655 305 667 293 q 643 319 648 312 q 635 334 639 326 q 627 351 632 340 q 620 376 623 361 q 570 289 601 317 q 510 250 540 260 q 437 239 475 236 q 347 269 387 244 q 283 331 308 293 q 248 416 258 369 q 245 517 237 464 q 278 613 254 570 q 334 688 302 656 q 402 737 366 720 q 471 753 438 754 q 519 739 495 751 q 562 708 540 728 q 600 650 583 688 l 604 741 m 444 326 q 489 336 467 320 q 530 376 511 351 q 562 432 549 401 q 578 487 575 463 q 580 540 582 511 q 568 593 578 568 q 541 636 559 618 q 494 656 522 654 q 422 618 457 658 q 374 510 388 578 q 372 461 370 491 q 381 403 373 431 q 405 353 389 374 q 444 326 420 331 z "},"A":{"ha":907,"x_min":-138,"x_max":978,"o":"m 220 918 q 334 912 288 914 q 412 909 381 910 q 472 909 448 907 q 538 916 496 910 q 633 928 574 920 q 780 952 692 937 q 732 896 749 921 q 705 853 715 871 q 690 817 694 831 q 696 749 688 803 q 719 621 704 694 q 751 463 734 547 q 787 307 769 380 q 819 184 804 235 q 840 123 833 133 q 865 86 860 95 q 884 71 871 77 q 902 62 890 68 q 931 49 913 57 q 978 30 949 41 q 887 26 925 27 q 825 24 849 26 q 776 22 796 23 q 727 19 755 22 q 664 14 703 16 q 574 8 625 11 q 618 43 601 27 q 644 69 635 58 q 659 94 655 83 q 663 130 662 106 q 663 188 665 152 q 656 282 662 224 l 300 245 q 279 205 286 222 q 270 176 273 189 q 267 152 266 161 q 277 126 270 141 q 296 94 283 113 q 335 52 309 76 q 266 53 301 53 q 201 52 231 53 q 132 49 165 50 q 54 45 98 47 q -32 39 18 42 q -138 30 -81 35 q -79 63 -103 46 q -38 95 -54 80 q -5 126 -19 111 q 33 189 4 140 q 97 307 61 239 q 173 452 133 374 q 245 597 213 529 q 298 716 278 666 q 319 781 319 766 q 305 821 316 799 q 276 864 296 840 q 220 918 256 888 m 640 382 q 625 465 632 430 q 614 522 618 499 q 606 570 609 549 q 597 618 602 589 q 584 683 591 644 q 566 776 576 722 q 446 536 488 621 q 384 412 403 452 q 358 358 361 366 l 640 382 z "},"B":{"ha":878,"x_min":-20,"x_max":836,"o":"m -20 970 q 62 954 23 959 q 132 945 102 948 q 197 943 167 941 q 292 949 235 943 q 411 962 350 956 q 528 970 472 968 q 620 963 585 972 q 692 938 655 955 q 761 896 730 921 q 812 838 792 871 q 836 762 833 804 q 811 663 834 709 q 747 583 792 624 q 618 519 703 541 q 691 501 661 514 q 744 471 722 488 q 781 434 766 454 q 803 393 795 414 q 822 288 823 346 q 791 167 814 212 q 741 98 769 122 q 682 64 712 73 q 628 49 652 54 q 568 43 604 43 q 493 45 533 43 q 411 50 453 47 q 331 49 369 52 q 255 43 300 46 q 160 37 217 41 q 27 30 103 34 q 52 55 42 41 q 69 80 62 69 q 81 106 76 94 q 88 165 85 117 q 92 283 91 214 q 94 431 94 351 q 93 584 95 510 q 87 715 91 658 q 79 799 84 773 q 57 857 71 827 q 26 913 46 883 q -20 970 7 943 m 266 831 q 267 795 266 826 q 271 711 269 768 q 277 552 273 655 q 343 536 311 537 q 401 538 376 536 q 458 552 431 543 q 516 601 495 567 q 545 672 537 635 q 548 743 552 709 q 530 791 544 776 q 467 829 505 814 q 385 846 434 841 q 266 831 335 850 m 259 189 q 347 155 309 163 q 411 146 385 146 q 463 155 441 146 q 513 188 488 167 q 551 238 538 209 q 562 303 564 267 q 530 382 559 339 q 468 431 505 414 q 386 450 435 446 q 264 427 336 454 l 259 189 z "},"C":{"ha":823,"x_min":-31,"x_max":892,"o":"m 411 1002 q 497 987 458 1002 q 569 952 536 971 q 632 918 602 933 q 693 902 662 902 q 749 909 718 903 q 812 926 776 914 q 892 960 848 937 q 820 888 848 917 q 777 840 792 859 q 751 806 760 818 q 727 761 743 791 q 686 688 712 734 q 621 570 661 643 q 603 715 621 663 q 563 793 585 766 q 505 833 537 825 q 445 823 475 837 q 386 781 415 808 q 330 717 357 754 q 283 639 304 680 q 248 557 262 598 q 231 480 235 515 q 229 408 227 449 q 241 323 232 366 q 266 240 251 281 q 303 168 281 199 q 354 116 326 136 q 419 98 382 96 q 499 122 460 100 q 568 177 533 140 q 629 283 604 214 l 830 247 q 661 88 743 141 q 514 14 579 35 q 370 -9 438 -11 q 210 42 285 0 q 82 144 136 84 q -1 277 28 205 q -27 418 -31 349 q -8 526 -24 464 q 36 652 8 587 q 103 780 64 718 q 190 892 142 842 q 294 972 237 941 q 411 1002 350 1002 z "},"D":{"ha":867,"x_min":-42,"x_max":829,"o":"m -28 967 q 54 956 19 960 q 113 949 90 952 q 159 945 140 947 q 212 948 180 943 q 281 960 244 954 q 357 970 317 966 q 433 970 396 974 q 495 959 457 967 q 576 933 533 951 q 662 887 618 916 q 741 815 705 859 q 799 712 776 772 q 825 572 822 652 q 803 355 829 453 q 724 189 777 258 q 589 80 670 119 q 399 37 507 41 q 236 24 316 30 q 165 20 202 22 q 91 18 127 19 q 20 19 54 18 q -42 23 -14 20 q 9 53 -11 38 q 39 79 28 68 q 57 103 52 92 q 65 161 60 118 q 76 266 69 198 q 92 450 83 334 l 100 547 q 106 693 107 636 q 103 783 106 750 q 92 838 99 821 q 72 873 87 853 q 35 913 58 890 q -28 967 11 937 m 258 468 q 271 283 260 347 q 293 187 281 218 q 326 145 308 152 q 384 168 351 145 q 448 236 416 190 q 507 351 480 282 q 545 513 533 420 q 538 675 557 605 q 488 794 519 746 q 425 867 457 842 q 376 892 392 892 q 342 882 357 892 q 300 837 327 872 q 275 783 286 818 q 259 700 266 751 q 255 567 252 648 l 258 468 z "},"E":{"ha":830,"x_min":-56,"x_max":788,"o":"m -56 926 q 102 923 39 924 q 205 922 165 922 l 277 922 l 681 922 q 686 870 684 895 q 688 826 688 845 q 686 784 688 803 q 682 743 685 765 q 677 703 680 724 q 667 658 674 681 q 616 769 648 731 q 552 825 585 807 q 472 846 514 845 q 385 837 416 844 q 336 818 354 830 q 310 790 319 806 q 292 755 301 774 q 277 705 283 739 q 264 628 270 677 q 251 502 258 579 q 310 522 288 513 q 346 538 332 532 q 368 553 361 547 q 384 583 373 562 q 406 635 392 602 q 441 724 420 667 q 444 621 444 662 q 445 553 444 579 q 446 506 445 524 l 446 454 q 447 378 446 426 q 450 256 448 330 q 421 336 434 307 q 399 380 408 365 q 380 404 388 397 q 354 410 370 407 q 317 411 339 411 q 260 404 294 411 q 260 284 256 330 q 270 214 263 239 q 286 174 277 186 q 335 154 298 161 q 418 149 372 146 q 514 164 465 151 q 601 209 563 178 q 662 274 629 235 q 722 359 689 308 q 788 484 755 411 q 781 383 783 423 q 776 319 779 343 q 772 275 773 290 q 768 229 772 259 q 759 159 765 203 q 743 47 753 115 q 623 45 680 46 q 522 43 566 45 q 427 41 471 42 q 328 37 382 41 q 216 28 281 34 q 75 14 152 23 q 85 188 81 106 q 90 332 88 270 q 90 468 91 406 q 84 720 96 624 q 56 844 72 817 q 33 867 47 853 q -1 892 20 878 q -56 926 -23 907 z "},"F":{"ha":716,"x_min":27,"x_max":792,"o":"m 27 936 q 170 928 109 929 q 275 926 232 926 q 362 929 326 926 q 461 940 400 933 q 594 958 513 947 q 792 989 675 970 q 767 941 777 966 q 750 895 757 916 q 738 848 743 871 q 728 784 734 822 q 715 702 723 751 q 697 585 708 652 q 615 747 656 690 q 538 831 574 804 q 461 867 498 863 q 374 846 408 867 q 319 794 340 826 q 288 725 298 762 q 273 653 277 688 q 267 592 269 618 q 264 556 266 566 q 345 563 312 559 q 396 571 377 567 q 433 582 419 576 q 473 608 453 593 q 511 640 491 621 q 545 686 530 659 q 531 605 537 637 q 521 553 525 572 q 514 518 515 530 q 507 484 511 506 q 498 435 503 465 q 486 361 492 406 q 452 408 469 389 q 419 437 434 426 q 385 456 401 449 q 347 467 368 461 q 306 475 330 471 q 255 484 282 480 q 263 359 258 411 q 273 271 269 307 q 283 203 278 231 q 305 145 290 176 q 340 83 317 118 q 397 9 362 49 q 340 19 370 16 q 288 23 311 22 q 233 23 259 24 q 174 18 206 22 q 111 9 146 15 q 37 -3 76 4 q 75 43 60 20 q 96 84 90 66 q 107 123 104 104 q 109 195 109 140 q 107 323 109 250 q 103 480 106 397 q 98 635 100 563 q 92 760 95 708 q 84 822 88 811 q 72 853 79 836 q 27 936 61 882 z "},"G":{"ha":892,"x_min":-8,"x_max":913,"o":"m 530 979 q 673 948 617 981 q 765 871 730 916 q 819 781 800 826 q 849 709 838 735 q 860 692 852 703 q 880 669 867 682 q 913 640 892 656 q 838 638 871 639 q 783 636 806 637 q 736 633 757 635 q 686 629 716 632 q 620 624 659 627 q 524 616 581 621 q 577 688 557 656 q 607 745 597 720 q 619 789 617 770 q 617 822 621 808 q 575 867 609 853 q 405 824 477 894 q 301 595 332 754 q 273 432 286 517 q 263 277 260 347 q 290 164 266 208 q 374 123 315 121 q 473 143 433 126 q 538 184 514 160 q 573 235 563 208 q 581 288 583 263 q 552 328 575 307 q 491 371 532 347 q 374 420 450 395 q 493 427 446 425 q 567 431 540 429 q 617 435 600 434 q 665 438 633 437 q 734 439 692 439 q 842 441 777 439 q 804 396 818 416 q 792 377 798 385 q 788 321 787 363 q 793 218 788 286 q 814 31 799 149 l 633 7 l 642 190 q 564 79 610 115 q 475 27 517 42 q 370 11 425 9 q 229 43 300 18 q 104 123 159 69 q 21 262 50 176 q 3 473 -8 347 q 63 694 15 600 q 183 850 111 788 q 345 945 255 913 q 530 979 435 977 z "},"H":{"ha":819,"x_min":-42,"x_max":806,"o":"m -42 963 q 38 956 5 958 q 90 952 71 954 q 126 951 113 951 q 179 952 149 951 q 239 957 205 954 q 315 968 274 960 q 283 930 296 948 q 264 897 271 911 q 251 867 256 880 q 239 812 245 849 q 224 724 232 781 q 206 575 217 667 q 286 574 252 574 q 343 575 320 575 l 388 575 q 431 578 407 576 q 555 586 472 579 q 562 694 562 648 q 560 770 563 739 q 552 830 557 806 q 540 863 548 844 q 522 903 533 879 q 491 960 510 926 q 554 953 526 955 q 601 949 582 951 q 637 948 623 948 q 677 949 652 948 q 727 951 697 951 q 800 955 757 952 q 781 916 789 936 q 768 879 773 895 q 757 841 762 860 q 745 758 750 812 q 737 637 741 704 q 732 499 734 571 q 729 363 730 427 q 730 250 728 300 q 735 180 731 201 q 749 130 739 156 q 770 81 757 107 q 806 31 784 54 l 479 7 q 511 44 499 26 q 530 76 524 62 q 540 104 537 91 q 544 161 541 121 q 549 258 547 195 q 555 423 552 320 q 509 422 536 423 q 460 420 483 422 q 403 419 433 419 q 340 416 373 418 q 280 412 313 414 q 214 407 247 410 q 214 307 212 350 q 222 235 217 264 q 236 174 228 199 q 254 125 244 149 q 273 79 262 103 q 297 35 285 54 q 250 40 271 38 q 212 45 228 42 q 175 47 193 46 q 133 49 157 47 q 79 51 111 50 q 3 52 46 52 q 44 102 28 77 q 66 148 60 127 q 77 193 75 172 q 79 259 79 210 q 79 371 80 308 q 77 504 79 434 q 74 635 76 574 q 70 740 72 696 q 66 795 68 784 q 46 848 60 819 q 14 901 34 871 q -42 963 -7 932 z "},"I":{"ha":437,"x_min":14,"x_max":430,"o":"m 14 935 q 92 927 60 929 q 144 922 123 925 q 182 920 168 920 q 227 921 197 918 q 296 928 252 924 q 410 940 340 932 q 360 888 378 913 q 332 844 342 863 q 317 800 320 821 q 309 711 312 768 q 302 589 305 655 q 300 452 300 522 q 302 318 300 381 q 310 206 304 255 q 326 136 316 157 q 354 87 339 111 q 387 45 368 66 q 430 9 406 23 q 302 14 350 14 l 254 14 q 198 11 232 14 q 126 5 170 8 q 22 -3 83 3 q 71 62 53 31 q 99 117 88 94 q 115 168 111 144 q 124 256 121 203 q 129 368 127 308 q 130 492 130 429 q 126 613 129 555 q 119 719 123 671 q 107 795 114 766 q 91 834 103 812 q 62 878 80 853 q 14 935 43 903 z "},"J":{"ha":650,"x_min":-104,"x_max":629,"o":"m 290 981 q 393 972 351 972 q 435 974 416 972 q 483 978 454 975 q 544 983 507 981 q 629 993 581 986 q 602 962 612 979 q 587 928 593 944 q 579 888 582 909 q 578 838 578 876 q 580 746 579 800 q 580 625 581 692 q 576 490 579 559 q 568 355 574 422 q 553 231 563 288 q 527 134 543 175 q 490 76 511 92 q 392 21 445 42 q 288 -7 339 0 q 191 -7 236 -14 q 114 20 145 -1 q 76 62 94 35 q 44 123 58 90 q 18 192 30 156 q -2 258 7 228 q -17 313 -11 289 q -26 345 -23 336 q -43 369 -31 357 q -69 391 -56 381 q -93 405 -83 400 q -104 407 -103 410 q -83 406 -104 404 q -33 411 -62 408 q 30 416 -3 414 q 84 416 62 418 q 130 415 102 416 q 193 413 155 414 q 286 410 231 412 q 230 386 251 399 q 198 362 209 373 q 179 335 184 349 q 173 286 175 323 q 178 209 171 248 q 203 137 184 170 q 263 100 222 104 q 334 116 307 96 q 378 170 362 136 q 403 245 395 203 q 416 328 411 288 q 419 404 420 355 q 412 510 418 453 q 399 628 407 567 q 385 741 392 689 q 372 829 378 792 q 365 875 366 865 q 350 911 359 892 q 328 945 342 926 q 290 981 313 964 z "},"K":{"ha":891,"x_min":0,"x_max":1065,"o":"m 31 968 q 113 959 77 962 q 174 954 149 956 q 222 951 202 951 l 275 951 q 450 955 328 951 q 401 928 420 945 q 369 891 381 910 q 347 846 354 869 q 332 770 339 818 q 319 661 326 728 q 308 491 313 593 q 410 609 366 557 q 487 700 454 661 q 542 768 519 739 q 579 817 564 796 q 620 879 614 863 q 618 902 621 888 q 610 928 616 913 q 594 963 605 944 q 687 959 648 960 q 751 956 726 958 q 800 955 781 955 l 857 955 q 939 956 888 955 q 1065 958 989 956 q 970 925 1015 945 q 890 886 925 905 q 814 838 849 863 q 735 774 779 811 q 650 698 699 743 q 544 593 601 652 q 650 397 605 473 q 727 274 696 320 q 787 191 762 220 q 844 138 811 165 q 911 87 871 115 q 1005 34 952 60 l 618 15 q 629 41 627 26 q 631 71 631 57 q 628 103 631 85 q 600 174 623 125 q 541 292 581 216 q 433 495 502 369 l 317 374 q 311 296 311 331 q 313 237 311 260 q 324 189 317 209 q 347 142 332 168 q 380 88 359 119 q 431 19 400 57 q 369 31 400 27 q 312 35 338 34 q 255 34 282 37 q 189 26 227 31 q 109 12 156 20 q 0 -8 61 4 q 47 30 30 9 q 76 69 65 50 q 92 111 88 91 q 97 187 95 129 q 100 323 99 245 q 99 488 100 401 q 96 651 98 575 q 93 781 95 727 q 90 846 91 834 q 79 887 85 865 q 60 927 72 906 q 31 968 49 948 z "},"L":{"ha":773,"x_min":27,"x_max":718,"o":"m 27 983 q 97 974 66 977 q 148 970 127 971 q 190 968 172 968 q 240 971 208 968 q 311 978 267 974 q 420 991 355 982 q 386 961 401 986 q 358 907 370 936 q 332 833 343 873 q 309 732 323 796 q 281 594 294 669 q 262 443 269 519 q 260 302 255 366 q 285 197 264 239 q 347 153 305 156 q 454 153 411 148 q 524 167 496 157 q 566 189 551 176 q 589 214 581 202 q 633 294 610 245 q 675 388 656 343 q 705 464 693 433 q 718 494 718 495 q 717 463 718 491 q 715 397 716 435 q 714 316 715 358 q 712 244 713 274 q 709 190 711 220 q 707 129 708 164 q 704 52 707 94 q 595 57 647 56 q 505 58 544 58 q 419 57 458 58 q 321 53 377 56 q 203 47 274 50 q 41 38 133 43 q 59 73 52 57 q 71 100 66 90 q 77 123 76 114 q 91 234 85 167 q 100 377 96 301 q 104 532 103 453 q 103 680 104 612 q 98 798 102 747 q 90 867 95 848 q 73 910 83 888 q 54 949 65 929 q 27 983 42 968 z "},"M":{"ha":1095,"x_min":-62,"x_max":1115,"o":"m -7 972 q 69 972 37 971 q 122 972 102 972 l 161 972 q 198 974 176 974 q 244 974 217 974 q 307 972 271 974 q 332 899 317 935 q 357 834 346 863 q 384 770 370 800 q 416 699 397 741 q 456 612 433 663 q 510 496 479 562 q 538 574 525 538 q 560 635 551 609 q 578 689 571 665 q 593 749 585 713 q 608 821 600 779 q 627 918 617 863 q 697 918 666 918 q 751 920 728 918 q 798 921 777 920 q 856 924 819 921 q 939 928 887 926 q 1069 935 991 930 q 1023 895 1040 914 q 997 860 1006 875 q 983 826 986 842 q 979 764 981 812 q 975 648 977 715 q 972 505 972 581 q 972 361 971 429 q 977 243 974 293 q 987 180 981 194 q 1013 142 997 164 q 1052 99 1028 123 q 1115 45 1076 75 q 1011 41 1053 42 q 943 38 970 39 q 892 37 911 37 q 837 35 872 37 q 754 32 806 34 q 621 26 703 30 q 656 69 640 47 q 684 109 673 91 q 707 148 697 129 q 722 241 716 174 q 730 409 727 300 q 730 703 732 518 q 684 619 704 661 q 650 544 665 578 q 620 468 633 505 q 591 384 606 430 q 559 290 578 345 q 518 171 541 236 l 467 168 q 445 267 456 222 q 423 342 434 311 q 399 407 411 378 q 369 471 385 435 q 333 541 354 500 q 285 632 312 582 q 269 408 271 494 q 269 274 266 321 q 277 191 271 217 q 302 140 285 168 q 344 82 317 115 q 412 8 370 49 q 350 8 382 8 q 290 7 317 8 q 227 5 258 5 q 151 1 194 4 q 60 -4 113 -1 q -62 -14 7 -7 q -14 24 -33 5 q 16 57 5 42 q 37 92 30 75 q 44 140 41 103 q 51 229 47 176 q 56 347 54 282 q 60 479 58 412 q 64 611 62 547 q 66 728 65 675 q 66 815 66 780 q 66 860 66 850 q 54 901 62 880 q 33 937 47 918 q -7 972 18 956 z "},"N":{"ha":894,"x_min":-7,"x_max":914,"o":"m -7 962 q 94 947 54 951 q 157 940 133 943 q 202 939 186 937 l 243 939 q 298 939 264 939 q 381 940 331 940 q 433 818 410 873 q 473 723 457 762 q 509 637 492 675 q 549 533 528 590 q 589 426 571 476 q 620 343 608 376 q 632 313 632 311 q 633 341 632 315 q 636 408 635 368 q 640 496 637 448 q 642 589 642 544 q 643 673 643 635 q 640 730 643 711 q 624 783 636 753 q 594 844 613 808 q 541 926 575 880 q 632 925 597 925 q 689 925 667 925 q 727 926 713 925 q 770 929 745 926 q 828 934 793 932 q 914 940 863 936 q 867 888 884 913 q 838 845 849 864 q 822 804 826 823 q 813 725 817 780 q 806 602 810 670 q 800 461 803 534 q 795 327 798 388 q 792 228 795 281 q 787 127 789 183 q 780 14 784 71 l 659 11 q 570 172 606 104 q 511 282 534 239 q 468 366 486 332 q 429 441 453 399 q 378 528 408 476 q 305 646 347 579 q 302 486 301 552 q 305 377 302 420 q 315 293 309 327 q 334 220 321 260 q 360 137 345 184 q 399 30 376 90 q 279 34 319 34 l 239 34 q 187 30 220 34 q 113 22 160 27 q -3 7 66 16 q 50 79 30 46 q 80 136 69 113 q 99 183 94 163 q 104 258 103 205 q 105 380 106 312 q 102 525 104 449 q 98 666 100 601 q 92 777 95 731 q 87 834 88 823 q 71 872 83 852 q 42 912 60 890 q -7 962 24 935 z "},"O":{"ha":990,"x_min":24,"x_max":970,"o":"m 509 1023 q 657 996 582 1020 q 796 920 732 972 q 905 786 860 868 q 960 586 949 704 q 937 395 970 490 q 845 222 903 301 q 711 89 787 144 q 559 16 635 34 q 458 14 513 5 q 347 48 403 23 q 237 113 290 73 q 140 203 183 152 q 67 313 96 254 q 31 438 38 373 q 31 558 24 492 q 56 690 37 624 q 112 817 76 755 q 203 926 148 879 q 334 999 259 972 q 509 1023 410 1025 m 266 473 q 294 240 247 328 q 435 133 340 152 q 524 153 481 123 q 602 237 567 182 q 663 368 637 293 q 701 524 689 442 q 703 671 713 605 q 669 783 693 736 q 610 856 644 830 q 538 884 575 882 q 427 851 475 888 q 347 754 380 814 q 295 620 315 694 q 266 473 275 545 z "},"P":{"ha":810,"x_min":-49,"x_max":829,"o":"m -49 971 q 44 953 3 959 q 114 944 85 947 q 174 941 148 940 q 255 951 206 943 q 358 967 304 959 q 465 981 412 975 q 557 982 518 986 q 640 964 597 978 q 722 926 684 949 q 787 868 760 902 q 822 789 815 834 q 814 696 829 746 q 766 600 799 647 q 685 514 734 553 q 576 450 636 475 q 473 423 529 433 q 363 413 426 415 q 229 426 300 411 q 219 353 220 387 q 221 294 218 320 q 232 240 225 264 q 252 183 240 216 q 277 117 263 156 q 312 31 292 79 q 264 31 288 31 q 222 28 241 30 q 182 26 201 27 q 133 20 160 24 q 75 12 110 18 q -3 -1 41 7 q 43 74 26 39 q 68 134 60 109 q 80 189 77 164 q 81 260 81 209 q 79 380 80 312 q 75 522 77 448 q 68 663 72 597 q 59 776 64 728 q 50 838 54 823 q 31 876 45 856 q 1 918 20 894 q -49 971 -19 941 m 232 704 q 231 675 231 690 q 235 602 231 647 q 258 564 244 579 q 290 541 273 549 q 324 530 307 533 q 359 528 342 528 q 445 547 400 529 q 529 620 505 572 q 555 718 553 667 q 538 810 556 768 q 494 867 519 852 q 438 875 472 876 q 363 860 408 873 q 254 811 319 846 q 243 768 247 787 q 236 734 239 749 q 232 704 233 718 z "},"Q":{"ha":977,"x_min":16,"x_max":940,"o":"m 285 929 q 353 958 315 945 q 431 979 391 971 q 513 987 472 986 q 591 981 555 989 q 772 892 699 958 q 885 741 845 827 q 932 554 925 654 q 916 362 940 454 q 888 300 907 335 q 844 227 872 270 q 769 133 815 184 q 791 94 780 109 q 814 73 803 80 q 837 62 826 65 q 863 61 848 61 q 892 63 875 61 q 929 71 909 65 l 718 -106 q 709 -68 713 -84 q 701 -42 704 -53 l 693 -22 q 682 -4 688 -15 q 670 16 677 4 q 652 43 663 28 q 497 1 567 11 q 370 -1 427 -8 q 269 26 313 7 q 190 72 224 46 q 66 232 111 133 q 21 481 16 368 q 64 683 26 594 q 162 834 102 772 q 285 929 222 897 m 486 240 q 448 244 465 245 q 418 235 433 243 q 396 205 403 227 q 429 176 414 187 q 456 157 445 164 q 480 144 469 149 q 518 133 499 137 q 554 131 534 130 q 591 141 574 132 q 559 189 578 170 q 525 220 541 209 q 486 240 506 233 m 342 289 q 392 339 365 324 q 444 361 419 354 q 502 365 472 366 q 559 342 530 358 q 610 300 583 327 q 661 229 637 274 q 693 297 682 262 q 709 361 704 332 q 715 427 715 395 q 704 533 712 477 q 680 643 696 589 q 642 746 665 697 q 587 830 618 795 q 513 883 555 865 q 420 892 472 901 q 328 846 363 884 q 272 758 292 808 q 248 649 252 707 q 248 545 243 591 q 264 465 252 507 q 293 384 275 430 q 342 289 311 338 z "},"R":{"ha":861,"x_min":-49,"x_max":888,"o":"m -49 990 q 30 979 -5 983 q 91 971 65 974 q 144 964 121 967 q 229 975 172 960 q 355 1002 286 989 q 495 1017 423 1015 q 627 990 567 1019 q 724 933 686 962 q 785 873 762 905 q 817 806 807 841 q 827 728 826 770 q 798 608 826 666 q 766 557 785 583 q 718 506 746 530 q 650 460 689 481 q 560 422 612 438 q 644 387 610 407 q 697 349 677 366 q 734 307 722 327 q 754 258 749 278 q 762 219 760 237 q 768 182 764 201 q 785 138 772 163 q 811 99 796 119 q 843 61 825 81 q 888 22 861 41 q 819 20 850 20 q 764 20 787 20 q 712 22 736 20 q 651 23 688 23 q 572 23 620 23 q 456 22 524 23 q 505 68 486 45 q 534 110 524 91 q 552 152 547 132 q 553 228 559 189 q 532 303 549 262 q 475 387 514 345 q 409 376 435 380 q 363 370 382 373 q 328 366 342 368 q 301 363 316 365 q 275 360 289 362 q 248 355 260 358 q 248 254 245 297 q 255 183 251 212 q 267 125 260 149 q 286 77 274 100 q 311 37 296 58 q 345 3 326 16 q 277 3 309 3 q 220 4 245 3 q 163 5 190 4 q 102 7 136 7 q 35 7 73 7 q -49 5 -4 7 q 7 68 -14 42 q 38 111 27 94 q 53 144 50 130 q 58 222 56 165 q 61 351 60 278 q 62 505 62 425 q 61 654 62 585 q 58 774 60 724 q 56 838 57 825 q 38 887 52 863 q 7 936 27 909 q -49 990 -14 963 m 464 513 q 487 529 477 521 q 503 555 496 537 q 515 608 510 574 q 526 700 519 642 q 519 796 532 758 q 485 857 506 834 q 439 888 464 879 q 395 897 414 897 q 320 873 357 897 q 264 811 283 850 q 252 753 258 793 q 247 655 248 718 q 251 491 245 593 q 342 485 302 483 q 408 494 381 487 q 464 513 441 500 z "},"S":{"ha":872,"x_min":-56,"x_max":879,"o":"m 879 993 q 845 917 860 949 q 819 861 830 884 q 799 815 807 836 q 781 774 792 800 q 755 714 770 751 q 715 618 739 677 q 685 707 703 669 q 647 773 667 745 q 604 820 627 802 q 560 850 582 838 q 454 880 510 878 q 340 857 381 876 q 279 812 298 837 q 259 760 260 787 q 266 716 258 734 q 314 678 273 700 q 414 629 355 656 q 541 566 473 601 q 667 490 609 532 q 764 401 724 449 q 808 298 804 353 q 807 174 812 229 q 769 79 802 118 q 668 16 736 39 q 479 -12 600 -7 q 274 1 354 -18 q 144 53 194 20 q 71 125 95 85 q 37 200 47 164 q 22 262 26 236 q 8 294 18 289 q -14 307 -3 301 q -34 317 -23 312 q -56 326 -45 321 l 339 389 q 287 339 305 362 q 259 298 269 316 q 244 260 248 278 q 256 213 241 241 q 298 158 271 184 q 359 114 324 132 q 433 99 395 96 q 510 123 480 103 q 555 172 540 142 q 574 237 571 202 q 568 307 576 273 q 540 372 559 342 q 495 423 521 403 q 424 454 472 439 q 317 487 376 469 q 196 528 258 505 q 85 585 134 551 q 6 665 35 618 q -16 776 -23 711 q 20 869 -11 831 q 97 928 50 906 q 201 962 144 951 q 319 975 259 972 q 439 972 380 977 q 545 963 498 968 q 626 953 593 958 q 667 947 659 948 q 738 948 703 944 q 806 961 769 951 q 879 993 844 971 z "},"T":{"ha":731,"x_min":-27,"x_max":772,"o":"m -27 990 q 130 975 64 979 q 240 967 197 970 q 324 966 290 964 q 420 972 359 967 q 556 984 472 977 q 766 1005 640 991 q 768 945 768 974 q 770 894 769 916 q 772 846 772 868 q 769 788 772 823 q 760 713 766 758 q 742 605 754 667 q 705 724 723 678 q 673 796 688 769 q 640 844 656 827 q 598 864 623 856 q 543 875 576 871 q 465 873 510 879 q 456 583 458 694 q 452 410 453 472 q 450 302 450 335 q 465 212 452 256 q 500 133 476 174 q 571 61 525 92 l 406 61 q 349 58 382 61 q 276 53 320 56 q 174 43 232 50 q 206 107 194 79 q 225 156 218 136 q 237 199 233 180 q 244 309 239 227 q 248 393 245 343 q 253 513 250 444 q 260 672 256 582 q 267 876 263 762 q 221 876 243 883 q 183 857 199 868 q 146 825 164 844 q 107 765 129 802 q 64 683 88 734 q 8 557 39 632 q -1 687 1 636 q -5 766 -4 738 q -7 817 -7 800 q -9 856 -7 831 q -16 909 -12 876 q -27 990 -20 943 z "},"U":{"ha":861,"x_min":0,"x_max":883,"o":"m 0 954 q 69 941 41 945 q 117 935 98 937 q 153 932 138 932 q 194 933 168 932 q 252 935 217 935 q 342 939 288 936 q 292 902 311 917 q 263 876 273 887 q 248 856 251 864 q 243 816 245 850 q 238 729 240 781 q 237 612 236 677 q 245 481 239 548 q 263 353 251 415 q 296 245 275 292 q 348 174 317 199 q 422 155 378 148 q 514 210 479 163 q 568 326 549 258 q 591 471 586 393 q 592 618 595 549 q 581 736 589 686 q 566 799 572 787 q 544 830 557 812 q 515 865 533 845 q 475 907 498 884 q 551 905 517 906 q 608 903 585 905 q 656 901 635 902 q 711 897 678 899 q 781 891 738 894 q 883 883 823 888 q 846 868 860 878 q 823 848 831 859 q 810 823 814 836 q 804 759 806 812 q 798 630 802 705 q 788 467 795 555 q 767 301 781 380 q 730 161 753 222 q 673 77 708 100 q 564 29 621 43 q 449 14 507 15 q 334 24 391 14 q 227 49 278 34 q 139 122 174 65 q 85 257 104 179 q 56 425 65 335 q 45 600 47 515 q 45 752 43 684 q 49 856 47 821 q 43 890 49 873 q 29 922 39 905 q 0 954 19 939 z "},"V":{"ha":665,"x_min":-132,"x_max":783,"o":"m -132 974 q 9 970 -41 970 l 60 970 q 114 971 81 970 q 183 973 141 972 q 283 977 225 974 q 240 940 256 958 q 214 909 224 922 q 199 879 203 892 q 192 783 190 844 q 203 653 194 723 q 227 511 213 583 q 254 381 240 439 q 280 286 269 323 q 297 248 292 248 q 318 288 302 248 q 354 387 334 327 q 396 519 374 448 q 436 654 418 590 q 467 766 454 719 q 479 823 479 812 q 469 854 477 838 q 446 889 463 869 q 399 935 429 909 q 471 937 441 936 q 524 939 502 939 l 566 939 l 783 939 q 725 894 749 916 q 686 853 701 872 q 656 812 669 831 q 612 689 643 784 q 581 590 598 648 q 538 450 563 532 q 484 262 514 369 q 416 20 454 156 l 228 -4 q 169 189 194 102 q 125 339 144 277 q 88 471 103 412 q 54 614 68 541 q 29 745 39 686 q 11 844 19 804 q -7 890 3 883 q -31 907 -15 897 q -70 932 -46 917 q -132 974 -94 948 z "},"W":{"ha":1076,"x_min":-98,"x_max":1242,"o":"m -98 954 q -17 945 -53 948 q 45 940 19 943 q 98 936 75 937 q 160 937 122 936 q 243 941 193 939 q 366 951 293 944 q 309 910 331 930 q 274 873 286 890 q 252 836 259 854 q 255 735 248 810 q 264 659 258 704 q 280 551 270 613 q 306 410 290 490 q 342 228 321 330 q 387 366 369 305 q 416 469 404 426 q 439 556 430 518 q 463 658 449 595 q 491 795 473 711 q 534 1002 509 879 l 583 996 q 597 826 590 899 q 610 701 605 753 q 621 598 616 642 q 637 507 627 559 q 662 401 647 464 q 701 259 677 338 q 745 431 726 355 q 779 566 765 507 q 804 666 793 624 q 821 736 814 708 q 838 827 836 804 q 826 878 837 853 q 796 925 817 899 q 736 975 776 951 q 871 972 819 972 q 955 971 924 971 l 1009 971 l 1058 971 q 1129 972 1085 971 q 1242 975 1173 972 q 1146 918 1183 944 q 1089 875 1109 892 q 1054 838 1065 853 q 1019 716 1043 811 q 994 615 1008 675 q 962 471 981 555 q 921 275 944 387 q 869 19 898 163 l 635 43 l 534 465 q 498 279 511 350 q 477 168 484 208 q 468 99 469 121 q 465 62 467 80 q 462 30 464 47 q 457 -3 460 12 l 217 -3 q 154 271 182 152 q 104 479 126 389 q 67 631 83 568 q 39 735 52 693 q 0 856 12 833 q -24 882 -9 867 q -55 912 -37 894 q -98 954 -73 930 z "},"X":{"ha":793,"x_min":-118,"x_max":967,"o":"m -118 921 q -16 917 -58 918 q 53 914 26 916 q 106 911 85 913 q 160 910 127 910 q 317 918 216 910 q 283 895 296 907 q 264 869 271 882 q 252 841 256 854 q 264 791 250 825 q 304 713 275 762 q 388 587 332 665 q 491 741 454 685 q 545 825 528 796 q 570 869 566 859 q 559 888 568 876 q 532 915 551 899 q 479 954 514 930 q 572 941 534 945 q 632 936 609 937 q 677 936 659 935 q 728 939 694 937 q 805 941 757 940 q 929 945 853 943 q 878 917 899 930 q 841 892 856 903 q 810 869 823 879 q 750 803 793 853 q 646 676 713 760 q 464 450 578 593 q 613 296 556 353 q 703 209 670 239 q 758 161 741 174 q 803 137 774 152 q 867 104 827 123 q 967 57 906 84 l 741 57 q 671 54 712 57 q 585 49 636 52 q 464 39 533 46 q 500 68 488 54 q 515 94 511 83 q 517 115 521 106 q 494 156 510 129 q 452 221 479 179 q 377 332 425 263 q 294 235 323 274 q 250 174 264 197 q 228 130 233 146 q 235 100 228 115 q 257 71 241 87 q 304 39 273 54 l -98 22 q -16 83 -49 56 q 37 130 16 111 q 73 171 60 153 q 115 231 87 191 q 180 321 138 264 q 286 468 221 378 q 170 651 214 583 q 99 755 126 719 q 53 814 68 798 q 15 841 39 826 q -38 874 -5 854 q -118 921 -71 894 z "},"Y":{"ha":742,"x_min":-194,"x_max":998,"o":"m -194 963 q -91 955 -136 958 q -16 949 -46 952 q 43 945 19 947 q 103 944 68 944 q 178 943 133 943 q 283 943 222 943 q 223 907 244 924 q 191 879 202 891 q 175 852 178 864 q 180 815 174 841 q 199 758 187 789 q 229 690 212 726 q 267 627 247 655 q 307 582 286 600 q 346 566 327 564 q 392 584 365 567 q 448 627 419 601 q 506 682 477 652 q 557 741 534 712 q 593 793 579 769 q 608 827 608 817 q 597 859 606 841 q 570 895 589 873 q 517 943 551 916 q 680 939 628 939 l 730 939 l 787 939 q 869 939 818 939 q 998 943 921 940 q 907 880 945 907 q 841 833 868 852 q 789 792 810 810 q 726 732 766 773 q 632 638 690 697 q 486 486 574 579 q 470 326 473 387 q 467 229 467 264 q 472 168 467 189 q 495 130 479 152 q 534 85 509 111 q 601 28 559 60 q 517 45 556 39 q 449 53 479 50 q 385 57 414 57 q 315 54 355 57 q 231 47 279 52 q 117 35 182 43 q 172 81 151 58 q 206 123 194 104 q 228 164 221 145 q 236 227 233 186 q 237 320 239 262 q 228 468 235 378 q 95 673 146 598 q 15 788 43 749 q -34 848 -19 833 q -71 875 -47 859 q -120 911 -90 890 q -194 963 -151 932 z "},"Z":{"ha":845,"x_min":7,"x_max":803,"o":"m 7 947 q 120 937 62 940 q 225 935 178 935 q 334 937 281 935 q 448 943 388 939 q 564 949 499 945 q 700 958 629 954 l 708 840 q 709 808 708 827 q 710 768 709 792 q 712 711 711 743 q 625 631 663 669 q 559 566 586 594 q 502 503 526 532 q 435 414 471 467 q 370 313 400 362 q 320 224 339 263 q 304 176 301 186 q 331 169 305 170 q 394 171 357 168 q 477 180 431 174 q 562 193 522 186 q 633 209 602 201 q 674 225 665 217 q 701 264 686 236 q 732 333 715 289 q 770 452 749 377 q 772 357 772 396 q 776 290 773 317 q 780 239 777 259 q 785 190 781 217 q 792 132 788 167 q 803 53 796 96 q 639 70 705 65 q 532 76 572 75 q 456 76 484 77 q 374 64 426 72 q 259 43 331 57 q 79 5 187 28 q 73 50 76 31 q 68 84 71 69 q 62 113 65 99 q 56 146 60 125 q 47 193 53 165 q 33 263 41 221 q 168 405 114 347 q 254 499 221 463 q 313 568 292 543 q 366 631 334 594 q 437 709 393 662 q 541 821 480 755 q 425 821 479 823 q 332 812 372 818 q 247 798 286 807 q 172 762 210 787 q 102 705 140 742 q 30 610 64 669 q 26 686 27 655 q 23 738 24 718 q 20 776 22 761 q 18 815 20 791 q 12 867 15 836 q 7 947 9 899 z "},"[":{"ha":357,"x_min":96,"x_max":343,"o":"m 309 -171 q 269 -172 286 -174 q 237 -170 251 -171 q 210 -165 222 -168 q 183 -159 198 -163 q 152 -151 170 -156 q 111 -137 134 -145 q 106 137 109 19 q 103 335 104 255 q 100 495 102 429 q 99 658 100 563 q 97 861 98 739 q 98 1147 96 983 q 136 1160 117 1154 q 170 1169 155 1166 q 202 1175 186 1173 q 236 1179 217 1176 q 275 1184 252 1181 q 324 1190 297 1187 l 343 1013 l 210 1017 q 205 806 206 901 q 202 642 203 711 q 202 496 201 560 q 205 353 202 433 q 210 190 208 283 q 220 -18 213 96 l 319 -4 l 309 -171 z "},"\\":{"ha":651,"x_min":-7,"x_max":658,"o":"m 168 1025 q 271 786 225 890 q 347 610 316 682 q 412 465 384 526 q 463 362 430 427 q 537 214 490 305 q 658 -16 585 123 q 623 -8 639 -11 q 593 -3 606 -5 q 564 0 578 0 q 538 1 552 0 q 515 3 528 3 q 492 4 503 4 q 374 266 423 159 q 294 441 326 373 q 236 568 259 519 q 178 681 213 614 q 102 822 148 738 q -7 1019 57 906 q 21 1022 8 1021 q 45 1024 34 1023 q 68 1025 57 1025 l 168 1025 l 168 1025 z "},"]":{"ha":392,"x_min":14,"x_max":267,"o":"m 69 1185 q 109 1186 91 1187 q 141 1184 127 1185 q 168 1180 156 1183 q 195 1172 180 1177 q 227 1162 209 1168 q 267 1149 244 1157 l 267 517 q 266 354 267 449 q 258 -136 264 194 q 218 -148 237 -142 q 184 -156 199 -153 q 152 -161 167 -160 q 117 -165 136 -163 q 79 -170 100 -168 q 30 -174 57 -171 l 14 3 l 146 -4 q 155 207 152 111 q 161 372 159 302 q 165 517 164 453 q 165 661 167 581 q 162 823 164 730 q 156 1032 160 917 l 57 1020 l 69 1185 z "},"^":{"ha":784,"x_min":14,"x_max":770,"o":"m 14 543 q 104 661 66 613 q 164 736 141 708 q 210 789 191 770 q 248 838 227 808 q 294 904 267 864 q 353 1002 320 944 l 463 1002 q 519 887 495 933 q 560 812 544 841 q 593 760 579 779 q 631 709 606 741 q 685 640 651 682 q 770 534 719 597 l 602 534 q 555 610 572 578 q 526 661 537 642 q 509 697 514 684 q 492 735 503 711 q 466 787 483 755 q 422 867 449 819 q 365 799 387 826 q 330 754 343 772 q 307 723 315 734 q 285 688 300 711 q 253 635 273 669 q 203 549 233 601 l 14 543 z "},"_":{"ha":1255,"x_min":0,"x_max":1255,"o":"m 0 117 q 292 106 176 110 q 476 102 407 103 q 601 100 557 100 q 732 106 646 102 q 932 115 806 109 q 1255 133 1059 122 q 1241 79 1244 99 q 1240 60 1240 68 q 1241 35 1240 49 q 1255 -19 1244 9 q 987 -7 1099 -11 q 802 -3 875 -4 q 659 -3 716 -1 q 511 -12 602 -7 q 313 -28 434 -18 q 19 -54 193 -38 l 0 117 z "},"`":{"ha":993,"x_min":400,"x_max":593,"o":"m 400 1034 l 496 1086 l 593 901 l 529 863 l 400 1034 z "},"a":{"ha":746,"x_min":37,"x_max":780,"o":"m 122 549 q 131 580 129 557 q 142 631 133 602 q 172 690 151 659 q 243 749 194 722 q 335 781 290 776 q 420 777 380 787 q 497 747 461 768 q 563 703 533 727 q 595 656 583 686 q 614 587 608 625 q 625 508 621 549 q 629 428 628 467 q 631 357 631 389 q 636 305 632 326 q 655 254 642 275 q 685 219 669 233 q 718 197 701 205 q 746 184 734 189 q 761 179 754 180 q 780 179 774 174 q 765 146 772 160 q 754 123 758 133 q 745 106 749 113 q 735 91 741 98 q 724 76 731 84 q 711 58 718 68 q 677 75 693 65 q 650 92 662 84 q 623 111 635 102 q 600 133 610 121 q 580 156 590 144 q 563 183 570 168 q 524 133 555 165 q 445 74 494 100 q 332 37 396 47 q 190 52 267 26 q 126 83 156 62 q 75 134 96 104 q 45 203 54 164 q 46 289 37 241 q 80 369 56 336 q 138 422 104 401 q 214 453 172 442 q 301 468 256 464 q 372 464 336 469 q 434 444 401 458 q 490 401 467 430 q 485 516 488 473 q 479 582 481 559 q 469 620 473 609 q 455 642 463 629 q 437 664 448 654 q 410 681 426 674 q 372 686 393 688 q 335 674 349 685 q 314 649 321 663 q 305 618 307 635 q 307 590 304 602 q 315 572 309 582 q 330 555 320 564 q 355 538 339 545 q 300 532 324 534 q 258 528 275 530 q 222 524 237 525 q 187 518 208 522 q 144 511 170 515 q 84 500 118 507 q 99 519 92 510 q 111 534 106 528 q 122 549 117 543 m 326 388 q 277 376 301 387 q 233 348 252 366 q 201 306 214 330 q 189 254 189 282 q 203 204 189 225 q 241 170 217 183 q 292 153 264 156 q 347 159 320 151 q 396 189 373 168 q 435 235 419 210 q 458 286 452 260 q 460 327 465 311 q 411 376 449 362 q 326 388 373 391 z "},"b":{"ha":808,"x_min":20,"x_max":768,"o":"m 20 952 q 78 941 52 944 q 123 936 104 937 q 165 935 146 935 q 213 937 184 935 q 355 958 263 941 q 328 937 340 947 q 305 917 315 926 l 285 897 q 250 814 267 872 q 218 673 235 764 q 187 431 201 582 q 313 530 254 496 q 416 578 372 563 q 513 595 469 594 q 610 573 568 591 q 680 530 651 555 q 728 478 709 505 q 755 431 746 452 q 764 382 761 418 q 765 300 768 346 q 751 203 762 254 q 714 109 739 152 q 649 38 689 66 q 549 7 609 9 q 415 23 480 7 q 298 71 359 37 q 193 171 236 106 q 193 139 193 155 q 194 113 193 123 q 197 87 195 98 q 203 61 198 75 q 216 35 208 50 q 240 4 225 19 q 210 6 225 5 q 180 5 195 7 q 148 3 164 4 q 114 -1 132 1 q 79 -8 99 -4 q 37 -18 58 -12 q 43 18 41 -5 q 50 71 46 42 q 55 133 53 100 q 60 198 57 165 q 69 361 65 273 q 71 616 73 498 q 66 718 69 666 q 57 814 62 769 q 43 896 52 860 q 20 952 34 932 m 197 292 q 243 224 218 252 q 292 178 267 197 q 340 148 316 159 q 385 132 363 137 q 484 129 435 118 q 560 183 533 142 q 602 275 587 224 q 611 338 609 300 q 603 412 613 376 q 567 475 593 448 q 492 509 541 503 q 414 490 458 509 q 320 436 374 473 q 197 326 266 399 l 197 292 z "},"c":{"ha":738,"x_min":26,"x_max":779,"o":"m 779 481 q 739 486 762 484 q 693 487 715 487 q 642 486 669 487 q 585 483 613 484 q 530 479 560 481 q 471 475 499 477 q 490 490 481 480 q 506 509 499 499 q 518 532 513 519 q 517 581 525 552 q 488 635 509 610 q 435 673 467 659 q 365 680 403 688 q 292 651 324 670 q 239 599 260 632 q 210 517 218 566 q 205 403 201 469 q 232 271 210 320 q 285 198 254 222 q 353 169 316 174 q 427 168 391 164 q 475 191 453 174 q 507 235 492 206 q 521 313 522 263 l 686 320 q 617 193 658 240 q 538 121 576 146 q 449 80 494 91 q 350 73 393 71 q 271 85 307 75 q 206 113 236 96 q 149 148 176 129 q 110 189 132 160 q 69 257 88 217 q 38 346 50 297 q 28 447 26 395 q 53 552 31 499 q 122 654 75 605 q 276 749 194 727 q 431 762 358 772 q 562 719 505 751 q 642 648 618 686 q 676 591 665 610 q 694 561 688 571 q 705 546 700 551 q 719 533 709 541 q 735 518 726 526 q 754 502 743 511 q 779 481 765 492 z "},"d":{"ha":822,"x_min":53,"x_max":871,"o":"m 686 1039 q 742 1038 712 1038 q 801 1037 768 1038 q 871 1039 834 1036 q 814 996 838 1024 q 774 939 789 967 q 743 868 755 905 q 732 791 736 846 q 726 663 728 736 q 724 509 724 590 q 726 353 724 427 q 730 222 727 279 q 736 142 732 165 q 750 91 742 115 q 768 47 757 69 q 795 11 779 24 l 656 -52 q 639 -21 646 -37 q 628 7 632 -5 q 621 34 623 22 q 616 70 618 50 q 610 108 613 90 q 605 138 606 126 q 605 153 604 151 q 589 130 606 156 q 536 68 571 103 q 452 2 502 34 q 339 -38 401 -30 q 222 -14 275 -46 q 130 78 168 19 q 73 215 92 137 q 57 374 53 293 q 81 471 60 429 q 136 546 103 514 q 210 600 170 578 q 288 637 250 623 q 361 659 327 652 q 415 669 395 666 q 471 661 439 670 q 534 633 498 652 q 614 576 570 614 q 600 794 606 712 q 586 920 593 876 q 574 990 579 971 q 556 1017 567 1004 q 532 1040 547 1028 q 499 1058 518 1051 q 567 1048 534 1051 q 627 1043 600 1046 q 686 1039 658 1040 m 346 533 q 304 500 320 524 q 279 446 289 477 q 267 378 270 414 q 262 309 263 342 q 262 248 262 275 q 262 208 262 221 q 265 178 262 199 q 281 135 269 157 q 315 95 293 113 q 376 77 338 77 q 442 99 407 80 q 513 151 473 115 q 600 255 553 187 q 596 327 597 298 q 594 373 595 355 q 593 406 593 393 l 593 426 q 593 444 593 434 q 594 461 593 453 q 527 508 556 488 q 470 538 498 528 q 413 547 442 548 q 346 533 384 547 z "},"e":{"ha":768,"x_min":34,"x_max":739,"o":"m 373 218 q 444 227 411 218 q 496 249 471 233 q 529 296 521 264 q 575 287 556 290 q 608 281 594 283 q 633 275 623 277 q 659 270 644 273 q 692 264 673 267 q 739 255 712 260 q 698 251 719 258 q 658 236 677 244 q 617 213 636 227 q 589 189 605 205 q 545 157 574 172 q 470 132 517 142 q 350 125 423 122 q 202 157 262 127 q 106 229 142 186 q 53 321 69 271 q 35 415 37 372 q 61 506 34 458 q 138 593 88 553 q 258 657 187 632 q 412 682 328 682 q 503 671 461 682 q 578 640 544 659 q 639 597 613 621 q 682 549 665 574 q 712 495 700 524 q 730 439 723 471 q 734 376 736 408 q 568 372 631 373 q 469 370 505 370 l 408 370 l 362 370 q 298 369 338 370 q 202 365 259 368 q 237 281 209 311 q 296 237 264 252 q 373 218 331 221 m 251 463 q 323 458 294 460 q 372 456 353 457 q 404 454 392 454 l 438 454 q 564 458 472 454 q 539 549 560 518 q 495 595 518 581 q 435 614 468 612 q 304 578 347 613 q 251 463 262 543 z "},"f":{"ha":476,"x_min":7,"x_max":594,"o":"m 80 -49 q 123 1 107 -30 q 148 62 140 33 q 160 136 157 98 q 157 209 160 159 q 149 325 155 251 q 133 517 144 399 q 107 515 118 515 q 90 514 96 514 l 75 514 q 58 513 68 514 q 37 509 50 511 q 7 502 24 506 q 10 524 9 513 q 12 545 11 536 q 14 566 14 556 l 14 586 q 14 606 14 595 q 16 628 15 617 l 123 625 q 118 730 117 684 q 122 811 119 777 q 133 880 126 850 q 159 948 142 917 q 203 1001 175 979 q 274 1034 232 1023 q 376 1046 316 1046 q 483 1029 444 1044 q 541 989 522 1013 q 563 936 560 966 q 562 878 566 906 q 553 827 559 850 q 548 793 547 804 q 555 772 549 785 q 568 745 559 761 q 594 708 576 728 q 551 713 572 711 q 510 716 529 715 q 468 718 488 718 q 426 715 448 716 q 385 710 407 712 q 345 701 363 708 q 387 741 372 720 q 410 777 401 761 q 422 815 419 796 q 420 867 423 838 q 407 921 416 897 q 384 961 397 945 q 351 972 370 977 q 298 920 323 962 q 259 813 278 884 q 235 616 240 742 q 283 612 260 613 q 323 610 305 612 q 361 609 343 609 q 400 610 378 609 q 445 612 419 612 q 502 616 471 613 l 499 545 q 452 541 475 543 q 411 538 429 540 q 373 536 391 537 q 334 533 354 534 q 294 529 316 532 q 247 524 271 526 q 280 276 266 370 q 305 130 294 182 q 324 43 316 69 q 343 5 332 22 q 366 -23 353 -9 q 397 -41 380 -37 q 323 -31 354 -34 q 270 -26 292 -27 q 228 -24 245 -24 q 189 -28 212 -26 q 80 -49 149 -33 z "},"g":{"ha":879,"x_min":22,"x_max":887,"o":"m 661 575 q 654 621 656 602 q 648 650 651 639 q 644 670 646 663 q 637 685 642 677 q 629 701 635 692 q 614 723 623 711 q 650 716 632 718 q 685 713 669 715 q 722 713 703 712 q 765 715 741 713 q 817 717 787 716 q 887 720 848 718 q 848 702 864 715 q 822 674 833 689 q 802 639 810 658 q 793 572 795 621 q 793 455 792 522 q 797 311 795 388 q 800 163 799 233 q 799 35 800 92 q 792 -50 798 -23 q 722 -189 773 -136 q 586 -247 670 -243 q 425 -228 484 -251 q 334 -172 366 -205 q 285 -104 301 -138 q 251 -53 269 -71 q 218 -24 235 -38 q 188 -3 203 -14 q 157 11 172 8 q 228 9 197 9 q 281 9 259 9 q 324 11 305 9 l 368 11 l 491 11 q 450 -7 464 3 q 431 -28 437 -18 q 426 -53 426 -41 q 461 -100 431 -85 q 543 -118 491 -115 q 612 -116 593 -121 q 642 -99 631 -111 q 678 -15 663 -66 q 694 98 689 28 q 681 270 699 168 q 581 180 637 210 q 472 137 524 151 q 349 122 411 122 q 103 198 184 129 q 28 384 22 267 q 64 500 33 442 q 149 605 96 559 q 269 678 201 651 q 410 701 336 705 q 514 681 465 696 q 597 643 556 667 q 661 575 639 618 m 229 439 q 237 340 221 387 q 281 261 252 294 q 345 210 309 228 q 411 193 380 191 q 524 252 476 194 q 581 425 571 309 q 566 523 585 481 q 521 590 548 564 q 464 627 494 616 q 416 636 434 637 q 363 622 392 633 q 307 588 334 610 q 258 529 279 566 q 229 439 237 492 z "},"h":{"ha":773,"x_min":14,"x_max":726,"o":"m 14 1028 q 71 1021 45 1023 q 114 1017 96 1019 q 149 1016 134 1016 q 197 1020 170 1017 q 253 1027 220 1023 q 330 1038 286 1031 q 296 1017 309 1027 q 274 996 282 1006 q 259 972 264 983 q 244 899 252 955 q 224 758 236 852 q 195 505 213 665 q 288 578 244 553 q 366 614 332 604 q 439 627 406 627 q 526 600 481 623 q 608 548 570 578 q 676 484 647 518 q 718 425 705 450 q 726 379 726 407 q 720 319 726 351 q 705 252 715 286 q 687 189 696 218 q 671 136 678 159 q 663 104 665 114 q 666 65 661 84 q 682 31 670 49 q 719 0 694 12 q 679 5 700 3 q 639 8 658 7 q 595 9 617 9 l 547 9 q 494 9 524 9 q 429 7 464 8 q 461 25 448 14 q 484 47 475 37 q 503 73 495 60 q 517 115 509 84 q 532 185 525 145 q 542 270 538 225 q 543 356 545 315 q 531 430 541 397 q 500 477 521 463 q 390 523 439 524 q 296 483 340 522 q 264 453 279 468 q 235 421 251 439 q 205 384 218 403 q 206 339 205 363 q 209 292 208 315 q 213 240 210 266 q 221 163 216 201 q 232 92 225 130 q 250 22 239 53 q 213 24 232 24 q 176 23 194 23 q 137 22 156 22 q 100 18 119 20 q 65 13 84 15 q 28 7 46 11 q 56 68 45 38 q 73 122 66 99 q 87 175 81 149 q 93 253 91 195 q 96 386 95 311 q 98 545 98 461 q 96 705 98 629 q 92 838 95 781 q 84 917 88 895 q 69 960 79 939 q 47 998 61 979 q 14 1028 34 1016 z "},"i":{"ha":332,"x_min":20,"x_max":304,"o":"m 20 606 l 270 604 q 238 463 248 521 q 225 365 228 404 q 222 289 220 320 q 236 228 227 260 q 260 165 244 201 q 304 95 277 130 q 269 103 288 100 q 233 107 250 106 q 195 107 214 109 q 153 103 176 106 q 107 96 134 100 q 50 85 80 92 q 82 191 71 146 q 99 266 94 236 q 106 323 104 301 q 106 385 106 350 q 106 452 106 419 q 104 509 106 484 q 99 541 103 534 l 85 555 q 62 574 77 562 q 20 606 46 587 m 117 815 q 174 823 145 830 q 220 798 203 817 q 231 753 236 779 q 187 703 227 727 q 118 686 148 680 q 76 715 88 693 q 72 766 64 736 q 117 815 80 795 z "},"j":{"ha":330,"x_min":-312,"x_max":323,"o":"m 146 917 q 204 927 175 935 q 249 897 233 920 q 260 845 264 875 q 221 789 256 815 q 157 773 187 765 q 113 806 127 781 q 104 862 99 830 q 146 917 110 894 m 90 582 q 77 616 84 598 q 60 648 71 631 q 34 684 50 666 q 132 669 96 670 q 171 667 153 666 q 212 669 189 666 q 259 673 231 670 q 323 684 288 677 q 294 659 307 673 q 273 633 281 646 q 255 604 262 618 q 245 540 248 590 q 239 419 241 490 q 235 267 237 349 q 231 109 233 184 q 222 -26 228 34 q 209 -114 217 -87 q 181 -197 197 -156 q 140 -270 165 -239 q 77 -317 115 -301 q -22 -326 38 -334 q -119 -284 -81 -316 q -179 -216 -156 -252 q -214 -146 -202 -179 q -237 -102 -227 -113 q -258 -84 -247 -94 q -281 -65 -269 -76 q -312 -43 -294 -54 q -255 -39 -279 -41 q -216 -38 -231 -38 l -184 -38 q -146 -39 -170 -39 q -97 -39 -127 -39 q -23 -37 -66 -39 q -48 -52 -38 -45 q -65 -65 -58 -60 q -76 -77 -72 -72 q -81 -112 -80 -84 q -77 -170 -83 -140 q -58 -224 -72 -201 q -19 -245 -45 -247 q 26 -220 7 -244 q 59 -146 45 -197 q 82 -12 73 -95 q 95 191 91 71 q 100 431 99 340 q 90 582 102 522 z "},"k":{"ha":633,"x_min":7,"x_max":800,"o":"m 7 978 q 43 968 22 971 q 83 966 64 966 q 130 967 106 966 q 190 972 155 968 q 260 979 218 975 q 354 990 302 983 q 321 970 335 981 q 298 948 308 959 q 281 924 288 936 q 256 867 271 907 q 224 779 240 827 q 197 680 209 730 q 184 594 186 629 q 182 526 183 564 q 179 446 180 494 q 176 338 178 399 q 327 451 274 408 q 404 517 380 494 q 438 553 433 543 q 431 571 437 562 q 412 590 425 579 q 376 614 400 601 q 437 609 411 610 q 483 606 464 608 q 521 606 505 605 q 564 608 538 606 q 703 612 609 609 q 559 530 612 564 q 506 495 529 511 q 458 458 483 477 q 409 420 437 442 q 354 374 381 399 q 437 247 401 297 q 498 165 473 197 q 548 107 526 129 q 605 61 570 87 q 683 7 635 38 q 800 -62 731 -23 q 732 -54 765 -56 q 677 -53 700 -52 q 625 -58 648 -54 q 571 -72 601 -64 q 511 -90 545 -79 q 435 -121 476 -102 q 474 -85 461 -102 q 492 -57 487 -68 q 496 -34 498 -43 q 465 22 490 -20 q 397 125 442 57 q 270 309 353 193 q 256 301 266 308 q 232 283 248 294 q 189 250 216 271 l 225 12 q 199 3 213 7 q 172 -4 184 -1 q 142 -9 157 -8 q 107 -15 127 -11 q 65 -22 90 -18 q 9 -34 41 -27 q 38 -6 27 -22 q 56 23 49 9 q 68 54 62 38 q 74 125 71 68 q 80 261 77 182 q 85 431 83 340 q 87 603 87 522 q 85 744 87 684 q 80 822 84 804 q 64 868 73 844 q 41 918 56 890 q 7 978 27 945 z "},"l":{"ha":307,"x_min":7,"x_max":278,"o":"m 52 -38 q 73 0 65 -18 q 87 30 81 18 q 95 57 92 45 q 96 104 96 65 q 94 203 96 144 q 90 338 92 263 q 85 490 88 412 q 78 640 81 567 q 72 772 75 713 q 66 869 69 831 q 62 913 64 907 q 53 929 60 921 q 7 960 39 945 q 113 989 76 978 q 151 1000 134 994 q 180 1010 165 1005 q 208 1023 193 1016 q 235 1040 222 1031 q 224 964 228 1001 q 217 897 220 928 q 214 829 214 861 q 207 684 208 762 q 208 526 206 606 q 213 370 209 446 q 222 233 217 294 q 231 128 227 171 q 239 73 236 85 q 250 34 244 53 q 262 -1 255 18 q 278 -30 269 -19 l 146 -30 q 113 -31 129 -30 q 81 -34 98 -33 q 52 -38 65 -35 z "},"m":{"ha":1199,"x_min":14,"x_max":1213,"o":"m 14 643 q 67 648 45 646 q 104 654 90 651 q 134 659 122 656 q 161 665 146 661 q 192 672 175 667 q 229 684 209 677 l 221 511 q 290 584 251 559 q 365 621 330 609 q 449 639 407 636 q 529 625 492 637 q 592 591 560 614 q 642 524 624 568 q 733 597 688 571 q 814 637 779 624 q 892 655 856 652 q 983 639 941 656 q 1055 595 1024 621 q 1105 539 1086 568 q 1127 488 1124 510 q 1123 412 1131 458 q 1104 317 1115 365 q 1084 229 1093 269 q 1077 172 1076 189 q 1096 140 1081 159 q 1136 100 1109 123 q 1213 45 1162 76 q 1136 47 1169 46 q 1080 52 1103 49 q 1032 56 1053 54 q 993 58 1016 56 q 943 62 974 60 q 873 68 913 65 q 898 83 888 72 q 914 106 907 95 q 925 136 921 119 q 930 179 928 149 q 935 247 933 209 q 938 327 937 285 q 937 407 939 369 q 932 476 936 445 q 921 524 928 507 q 902 543 916 536 q 871 553 888 551 q 836 551 853 555 q 804 540 818 548 q 772 514 792 530 q 726 473 754 499 q 654 408 697 448 q 648 271 650 323 q 644 191 646 218 q 643 146 643 159 q 644 126 642 136 q 661 88 647 106 q 626 94 644 92 q 593 96 608 95 q 557 98 575 98 q 525 96 543 98 q 488 93 510 95 q 441 88 467 91 q 458 104 452 95 q 469 122 465 114 q 477 140 475 132 q 483 180 479 148 q 488 255 487 212 q 488 347 490 298 q 479 435 487 395 q 454 500 471 475 q 410 524 437 526 q 343 507 377 521 q 282 475 315 496 q 221 416 250 453 q 215 255 216 315 q 216 164 214 195 q 218 114 217 127 q 225 95 220 104 q 235 76 229 87 q 250 56 241 65 l 34 66 q 53 81 45 72 q 66 99 61 90 q 77 121 72 110 q 85 165 81 130 q 91 249 88 201 q 96 351 94 297 q 98 451 98 404 q 99 531 99 498 q 98 571 99 564 q 83 600 94 585 q 57 623 73 610 q 14 643 41 636 z "},"n":{"ha":814,"x_min":0,"x_max":753,"o":"m 62 149 q 77 229 72 194 q 84 286 81 263 q 87 332 87 313 q 85 387 85 355 q 82 451 84 419 q 77 508 80 483 q 71 544 75 533 q 56 567 65 555 q 0 612 37 590 q 54 623 31 618 q 91 632 76 628 q 119 642 107 637 q 145 650 130 646 q 175 656 157 652 q 216 666 193 661 l 212 543 q 300 620 255 594 q 384 656 345 646 q 472 670 429 670 q 573 652 526 667 q 654 618 620 637 q 711 576 689 598 q 736 538 732 555 q 745 441 753 486 q 724 356 736 397 q 702 274 711 315 q 708 186 693 233 q 719 161 713 174 q 732 140 724 151 q 751 122 741 129 q 722 124 736 123 q 694 126 707 125 q 667 129 680 127 q 631 130 654 130 q 509 126 591 130 q 528 174 521 155 q 541 206 536 194 q 549 229 547 221 q 569 319 566 269 q 562 420 572 369 q 548 463 557 438 q 523 510 538 487 q 486 549 507 533 q 438 568 465 566 q 378 555 411 571 q 307 495 345 538 q 262 406 278 458 q 241 294 247 361 q 258 137 236 227 q 222 140 239 140 q 195 142 206 141 q 171 145 182 144 q 144 146 159 145 q 110 147 130 146 q 62 149 90 148 z "},"o":{"ha":739,"x_min":39,"x_max":703,"o":"m 384 608 q 457 595 419 608 q 530 562 495 582 q 595 520 566 543 q 643 477 624 498 q 690 379 677 441 q 694 253 703 317 q 656 132 686 189 q 574 47 627 75 q 499 18 536 28 q 429 1 463 7 q 365 -4 395 -4 q 313 -3 335 -4 q 229 26 273 0 q 146 90 184 52 q 80 173 107 127 q 47 259 53 218 q 45 376 39 315 q 85 488 50 437 q 191 574 119 540 q 384 608 262 608 m 339 81 q 380 89 354 79 q 431 122 406 99 q 475 181 456 145 q 499 269 495 217 q 500 361 503 319 q 487 435 496 403 q 465 487 477 467 q 439 515 453 507 q 384 535 416 528 q 328 532 351 543 q 301 509 317 526 q 269 465 285 491 q 239 404 252 438 q 221 334 227 370 q 219 255 216 297 q 236 176 222 213 q 275 112 250 138 q 339 81 300 85 z "},"p":{"ha":903,"x_min":-20,"x_max":872,"o":"m -20 632 q 51 644 23 639 q 96 651 79 648 q 127 658 117 655 q 159 666 138 661 q 205 679 176 671 q 277 700 233 686 q 260 676 266 686 q 248 659 254 666 q 239 644 243 651 q 231 624 235 637 q 224 593 228 613 q 217 543 220 574 q 352 612 290 589 q 460 644 414 635 q 557 652 514 655 q 659 629 612 648 q 743 582 705 609 q 810 522 781 555 q 854 457 838 490 q 869 395 865 435 q 860 308 872 354 q 817 218 848 262 q 731 148 787 174 q 540 99 635 104 q 456 102 499 96 q 371 125 414 107 q 289 176 328 142 q 217 262 250 209 q 201 142 206 193 q 195 57 197 91 q 195 -9 194 18 q 206 -68 198 -37 q 226 -131 213 -95 q 259 -206 239 -167 q 237 -203 251 -203 q 208 -205 222 -202 q 171 -210 191 -208 q 129 -220 152 -214 q 85 -230 110 -224 q 34 -244 60 -236 q 58 -204 49 -227 q 72 -163 66 -182 q 81 -117 77 -140 q 86 -40 83 -96 q 92 90 90 16 q 97 245 95 164 q 100 397 99 327 q 99 515 100 467 q 94 572 98 564 q 73 593 88 582 q 39 612 61 602 q -20 632 16 621 m 302 385 q 298 324 293 354 q 326 269 304 294 q 390 223 349 243 q 494 194 431 203 q 589 197 556 184 q 637 235 621 209 q 658 298 652 262 q 671 373 663 334 q 669 451 680 411 q 638 524 658 491 q 595 577 618 556 q 553 598 571 598 q 471 576 511 598 q 396 522 430 555 q 337 452 362 490 q 302 385 312 415 z "},"q":{"ha":806,"x_min":24,"x_max":819,"o":"m 608 651 q 606 684 606 670 q 605 705 606 697 q 604 720 604 715 q 601 732 602 726 q 596 746 598 739 q 591 764 594 753 q 620 760 606 761 q 644 757 633 758 q 666 755 656 755 l 689 755 q 715 755 700 755 q 753 757 731 755 q 741 728 746 750 q 733 673 736 705 q 727 604 730 642 q 723 528 724 566 q 719 326 719 437 q 709 159 711 227 q 709 47 708 92 q 715 -23 711 3 q 726 -63 720 -49 q 737 -85 731 -77 q 747 -99 743 -92 q 762 -119 753 -107 q 784 -144 770 -130 q 819 -175 798 -157 q 772 -172 796 -172 q 730 -171 749 -171 q 686 -172 707 -171 q 632 -178 663 -174 q 566 -186 605 -180 q 473 -203 526 -193 q 516 -165 499 -184 q 544 -132 533 -146 q 563 -99 556 -115 q 572 -27 568 -79 q 576 98 575 16 q 575 319 578 180 q 505 239 541 267 q 437 195 468 210 q 363 172 400 178 q 196 181 270 164 q 90 239 122 198 q 55 311 73 259 q 31 428 37 363 q 37 557 24 492 q 98 666 50 621 q 179 734 144 711 q 244 766 214 757 q 300 772 274 774 q 354 766 326 770 q 446 743 401 758 q 529 708 486 730 q 608 651 572 686 m 311 654 q 250 612 270 642 q 224 546 229 583 q 223 468 218 509 q 238 392 228 427 q 260 332 248 357 q 278 300 271 307 q 315 277 297 281 q 362 274 334 273 q 414 296 382 278 q 480 343 441 311 q 575 437 519 376 l 571 545 q 543 578 562 553 q 494 626 525 604 q 418 660 463 648 q 311 654 373 671 z "},"r":{"ha":665,"x_min":7,"x_max":632,"o":"m 7 650 q 54 649 33 648 q 90 651 75 650 q 121 654 107 652 q 163 661 141 656 q 203 668 182 663 q 244 680 224 673 q 231 644 236 659 q 222 618 225 629 q 218 598 218 606 q 217 575 217 589 q 217 500 216 552 q 336 595 288 562 q 412 648 384 629 q 465 677 446 670 q 553 654 515 685 q 585 618 570 640 q 610 559 600 595 q 627 471 621 522 q 628 350 632 420 q 577 345 600 347 q 540 340 555 342 q 507 338 522 338 l 471 334 q 424 329 452 331 q 357 323 396 327 q 431 404 414 369 q 445 461 448 438 q 420 506 442 487 q 365 517 395 521 q 305 494 339 514 q 233 418 271 473 q 239 274 236 331 q 245 182 243 217 q 252 118 250 141 q 269 75 256 98 q 296 33 278 56 q 342 -14 313 9 q 244 -14 282 -11 q 203 -16 221 -15 q 163 -22 184 -19 q 119 -28 144 -24 q 64 -35 94 -31 q 81 -1 75 -20 q 92 37 88 19 q 100 79 98 57 q 102 136 102 98 q 101 222 103 174 q 96 322 99 270 q 90 420 94 374 q 81 501 85 467 q 71 549 76 536 q 54 582 64 566 q 34 614 46 597 q 7 650 22 631 z "},"s":{"ha":647,"x_min":27,"x_max":618,"o":"m 618 774 q 597 720 606 745 q 582 677 589 696 q 570 639 575 655 q 557 595 564 620 q 541 542 551 574 q 517 467 530 510 q 477 570 506 532 q 419 631 449 609 q 343 666 384 655 q 237 663 270 678 q 194 625 205 648 q 182 602 189 616 q 173 572 176 587 q 171 543 170 557 q 183 518 172 528 q 218 500 190 511 q 287 474 247 488 q 372 444 327 460 q 458 411 418 427 q 529 378 499 395 q 568 349 559 362 q 587 313 576 335 q 602 264 597 290 q 604 210 606 237 q 589 155 602 182 q 546 104 575 127 q 468 66 517 81 q 358 57 411 49 q 261 81 305 65 q 184 113 217 98 q 138 126 152 129 q 104 111 123 123 q 68 86 85 99 q 39 63 52 73 q 27 56 27 53 q 32 72 27 58 q 43 105 37 85 q 55 149 49 125 q 64 194 61 172 q 71 237 66 212 q 78 294 73 260 q 90 374 83 327 q 109 313 96 339 q 134 269 122 288 q 163 232 149 247 q 211 197 183 213 q 267 169 239 180 q 321 155 296 157 q 365 160 347 152 q 395 190 382 168 q 414 237 408 212 q 418 287 419 263 q 406 326 416 311 q 368 350 397 335 q 299 382 339 365 q 215 419 259 400 q 132 458 171 438 q 68 496 94 477 q 41 529 43 514 q 37 577 38 551 q 40 630 35 604 q 59 681 45 656 q 102 722 73 705 q 152 738 121 732 q 221 744 183 743 q 300 741 259 745 q 378 733 340 738 q 446 722 415 728 q 492 709 476 715 q 533 708 511 703 q 574 726 552 712 q 618 774 595 739 z "},"t":{"ha":473,"x_min":-118,"x_max":549,"o":"m 4 854 q 73 848 45 850 q 118 844 100 845 q 151 842 138 842 q 183 842 163 841 q 229 846 201 844 q 301 853 258 848 q 286 829 292 840 q 277 811 281 819 l 269 795 q 263 779 266 787 q 258 762 260 772 q 255 742 256 753 l 464 742 l 445 632 l 254 643 q 244 536 247 574 q 239 480 241 498 l 236 456 q 228 344 232 404 q 225 232 224 283 q 235 146 227 180 q 263 111 243 111 q 301 122 283 111 q 332 148 319 133 q 351 178 345 163 q 358 202 358 194 q 354 221 358 210 q 330 273 347 241 q 399 254 369 263 q 426 243 414 248 q 457 231 439 237 q 495 214 472 224 q 549 191 518 205 q 506 174 519 186 q 494 161 498 168 q 472 121 484 146 q 435 72 460 96 q 370 28 411 47 q 259 7 328 9 q 150 31 187 4 q 96 94 113 58 q 76 165 79 130 q 72 213 73 201 q 72 274 71 225 q 76 382 73 323 q 81 496 79 441 q 84 576 84 551 q 85 605 84 590 q 86 631 85 617 q 87 659 87 646 l -110 661 l -118 738 l 80 732 q 74 760 77 747 q 68 781 71 773 q 60 798 64 791 q 47 812 54 804 q 30 830 41 819 q 4 854 19 841 z "},"u":{"ha":738,"x_min":27,"x_max":738,"o":"m 27 624 q 89 614 62 617 q 134 608 115 610 q 172 604 156 605 q 210 601 189 602 q 313 601 247 600 q 252 581 274 604 q 218 530 229 559 q 203 452 205 496 q 207 344 201 392 q 230 262 213 296 q 275 214 247 229 q 349 205 304 198 q 417 237 393 212 q 452 299 441 262 q 465 384 463 336 q 468 483 467 431 q 467 557 468 534 q 465 586 467 579 q 461 592 464 593 q 454 598 458 591 q 446 609 452 604 q 435 622 442 614 q 420 637 429 629 q 484 635 456 636 q 530 633 511 635 q 568 631 552 632 q 608 627 583 629 q 661 621 628 624 q 738 613 693 618 q 688 593 707 606 q 658 566 669 579 q 640 533 646 551 q 640 463 636 510 q 654 347 643 420 q 688 155 665 274 l 581 91 l 559 271 q 475 169 519 205 q 393 117 431 133 q 307 95 349 98 q 211 102 251 95 q 142 122 171 110 q 97 150 114 134 q 72 182 80 165 q 52 269 53 216 q 56 376 50 323 q 68 475 61 430 q 72 536 75 519 q 64 563 69 548 q 50 591 58 575 q 27 624 42 606 z "},"v":{"ha":547,"x_min":-69,"x_max":636,"o":"m -69 747 q -22 741 -46 743 q 20 738 1 739 q 62 736 42 736 q 109 738 83 736 q 161 742 130 739 q 228 750 191 745 q 194 724 206 738 q 175 700 182 711 q 164 675 167 686 q 165 631 161 665 q 177 552 170 597 q 194 458 184 507 q 214 369 203 410 q 233 301 224 328 q 247 275 241 274 q 264 302 252 275 q 290 370 275 330 q 321 458 305 410 q 350 548 338 506 q 370 619 362 590 q 376 654 377 648 q 366 669 372 659 q 324 720 357 684 q 392 715 363 718 q 438 711 420 713 q 471 707 458 708 q 506 707 483 705 q 557 709 525 707 q 636 716 589 711 q 578 680 601 696 q 544 654 556 665 q 522 631 529 640 q 488 547 513 613 q 462 476 477 518 q 425 375 446 434 q 376 237 404 316 q 312 57 347 159 l 180 43 q 139 186 155 129 q 114 279 123 244 q 98 343 103 320 q 81 418 91 369 q 62 519 72 468 q 43 612 53 571 q 28 663 34 654 q 9 682 23 670 q -20 709 -1 693 q -69 747 -39 724 z "},"w":{"ha":892,"x_min":-62,"x_max":1053,"o":"m -62 625 q 10 621 -22 623 q 64 618 42 620 q 107 617 88 617 q 151 618 126 617 q 204 623 172 620 q 278 633 236 627 q 226 596 245 613 q 195 566 206 579 q 179 538 183 551 q 174 496 176 528 q 172 422 172 464 q 172 335 171 381 q 176 252 174 289 q 184 189 179 214 q 198 165 190 164 q 233 229 209 175 q 256 288 243 252 q 288 376 270 324 q 328 499 305 429 q 378 663 350 570 l 496 663 q 509 502 502 571 q 522 382 515 433 q 535 296 529 331 q 548 240 541 262 q 578 184 563 189 q 604 216 590 187 q 631 286 618 244 q 655 378 644 328 q 674 471 666 427 q 685 547 682 514 q 685 587 688 579 q 669 610 681 595 q 640 640 658 623 q 590 682 621 658 q 663 673 628 675 q 724 670 697 671 q 781 670 755 669 q 848 671 808 670 q 932 673 882 673 q 1053 675 983 673 q 956 640 991 656 q 901 608 920 623 q 868 576 878 591 q 838 491 859 556 q 818 424 830 464 q 789 330 806 384 q 753 204 773 275 q 707 42 732 133 q 676 45 692 45 q 647 46 661 46 l 616 46 q 581 43 600 45 q 543 39 564 42 q 495 33 521 37 l 414 362 l 281 33 l 129 37 q 83 281 100 190 q 56 422 66 373 q 39 502 43 479 q 19 549 33 526 q -12 589 8 568 q -62 625 -33 610 z "},"x":{"ha":629,"x_min":-132,"x_max":761,"o":"m -31 753 q 34 752 8 753 q 75 751 60 751 l 102 751 l 133 751 q 184 752 152 751 q 267 755 216 753 q 229 744 243 750 q 209 731 216 738 q 199 716 201 724 q 209 682 201 705 q 233 627 216 662 q 283 532 250 591 q 370 635 340 597 q 415 693 400 673 q 433 724 430 716 q 429 738 431 731 q 408 772 425 749 q 472 768 445 769 q 518 766 499 768 q 553 765 540 765 q 597 766 568 765 q 660 770 620 768 q 761 777 700 772 q 675 730 711 753 q 617 690 640 708 q 572 652 590 670 q 529 602 555 632 q 473 535 506 575 q 392 435 439 495 q 459 331 427 374 q 514 259 491 288 q 564 205 541 225 q 614 164 587 184 q 668 127 637 146 q 734 92 699 107 q 665 89 699 90 q 606 85 632 88 q 549 81 576 83 q 494 77 522 79 q 439 75 469 76 q 378 73 410 73 q 397 96 391 85 q 408 115 404 107 q 415 133 414 125 q 401 168 414 144 q 368 229 391 190 q 300 334 345 267 q 250 277 269 301 q 222 236 232 252 q 208 205 212 217 q 208 178 205 193 q 216 149 210 165 q 235 114 221 132 q 121 110 167 110 l 75 110 q 23 111 53 110 q -41 113 -3 113 q -132 117 -80 114 q -100 130 -117 122 q -72 145 -84 138 q -43 163 -57 153 q 4 209 -28 175 q 79 290 31 237 q 202 430 126 342 q 130 559 157 511 q 87 635 102 608 q 61 677 69 666 q 39 701 53 688 q -31 753 18 723 z "},"y":{"ha":791,"x_min":-49,"x_max":720,"o":"m -49 693 q -1 687 -22 689 q 37 684 20 685 q 71 682 54 682 q 109 684 85 682 q 158 687 127 685 q 231 693 189 689 q 220 660 228 688 q 203 592 212 632 q 189 504 195 552 q 184 409 183 456 q 195 321 184 362 q 231 254 206 279 q 322 190 282 201 q 392 193 362 179 q 441 233 422 206 q 468 283 460 260 q 492 415 488 346 q 483 548 495 475 q 425 697 471 621 q 486 693 460 694 q 530 690 511 692 q 568 688 552 689 q 604 688 583 686 q 646 690 621 688 q 703 694 671 692 q 712 458 708 562 q 718 275 716 354 q 720 138 720 195 q 720 41 720 80 q 712 -83 719 -53 q 673 -167 701 -125 q 604 -242 646 -209 q 507 -294 562 -275 q 387 -307 452 -312 q 286 -290 323 -301 q 227 -263 248 -278 q 197 -232 206 -248 q 184 -199 189 -216 q 176 -167 180 -182 q 160 -141 172 -152 q 129 -117 145 -129 q 97 -95 114 -106 q 64 -77 80 -84 l 353 -61 q 335 -91 340 -77 q 328 -114 330 -104 q 330 -134 327 -126 q 349 -170 335 -151 q 387 -201 363 -190 q 441 -209 410 -213 q 514 -175 473 -205 q 571 -92 548 -149 q 601 45 590 -43 q 597 277 612 133 q 530 148 572 193 q 446 83 488 103 q 345 57 397 58 q 224 75 274 60 q 141 118 174 91 q 90 182 109 145 q 64 266 72 220 q 56 359 56 312 q 56 446 56 406 q 57 520 57 487 q 50 574 57 553 q 28 614 42 594 q -2 653 18 632 q -49 693 -22 674 z "},"z":{"ha":628,"x_min":7,"x_max":601,"o":"m 7 785 q 117 778 69 780 q 198 773 165 776 q 264 769 236 770 q 340 769 294 768 q 441 771 380 769 q 593 779 503 773 l 582 590 q 512 517 543 551 q 458 458 481 483 q 412 407 433 430 q 366 349 392 382 q 311 276 343 319 q 236 176 278 233 q 358 185 311 180 q 433 194 406 190 q 480 202 465 199 q 511 225 494 208 q 548 270 526 240 q 597 351 570 300 q 597 280 597 309 q 598 232 598 251 l 598 195 l 598 164 q 599 127 598 149 q 601 79 600 106 q 505 89 548 85 q 430 94 461 92 q 363 94 393 95 q 289 88 334 91 q 195 83 251 85 q 64 76 140 80 l 34 220 q 92 262 58 231 q 157 326 126 293 q 232 408 193 363 q 307 498 270 453 q 372 576 338 536 q 433 648 407 617 q 312 638 359 646 q 237 624 264 631 q 189 605 205 616 q 152 568 174 593 q 106 513 133 548 q 43 425 79 479 q 42 505 43 469 q 39 566 41 541 q 35 616 37 594 q 28 663 33 637 q 20 717 26 686 q 7 785 14 747 z "},"{":{"ha":450,"x_min":69,"x_max":410,"o":"m 376 -168 q 245 -132 294 -161 q 170 -71 197 -103 q 126 12 138 -34 q 123 121 114 72 q 147 210 132 170 q 178 283 163 251 q 191 343 193 316 q 174 385 189 365 q 137 422 161 403 q 69 457 113 442 l 77 586 q 158 589 129 579 q 202 612 187 598 q 224 648 218 627 q 206 715 227 677 q 162 797 186 753 q 120 889 138 841 q 110 986 102 937 q 153 1059 119 1024 q 239 1123 182 1090 q 396 1181 296 1156 l 410 1012 q 310 1010 345 1019 q 259 990 275 1002 q 236 956 240 975 q 249 898 233 928 q 282 832 264 868 q 313 754 300 796 q 320 662 326 712 q 298 589 313 623 q 261 531 285 559 q 197 488 237 503 q 273 472 247 490 q 312 433 300 454 q 327 372 326 407 q 310 290 324 326 q 279 223 296 255 q 250 161 263 191 q 236 94 236 130 q 254 42 239 65 q 296 5 267 23 q 381 -18 324 -14 l 376 -168 z "},"|":{"ha":330,"x_min":69,"x_max":260,"o":"m 69 1025 l 171 1025 q 193 1024 180 1025 q 218 1022 203 1023 q 248 1019 232 1021 q 238 822 241 906 q 233 681 235 738 q 233 568 232 614 q 237 441 233 519 q 245 266 240 373 q 260 4 251 159 q 237 3 250 4 q 214 1 225 3 q 190 0 201 0 q 163 -3 178 0 q 136 -8 151 -5 q 104 -16 121 -11 q 109 214 107 123 q 110 362 110 305 q 109 465 110 427 q 100 610 106 526 q 88 786 96 682 q 69 1025 80 890 z "},"}":{"ha":469,"x_min":69,"x_max":399,"o":"m 81 1173 q 212 1139 163 1166 q 289 1080 262 1111 q 335 998 321 1043 q 340 889 349 939 q 317 799 332 840 q 287 726 301 758 q 275 665 273 693 q 293 624 278 644 q 330 587 305 606 q 399 555 355 568 l 393 425 q 313 419 342 429 q 269 396 283 410 q 248 359 252 381 q 267 293 245 331 q 313 212 288 255 q 357 121 338 168 q 369 24 376 73 q 327 -50 361 -15 q 241 -115 298 -81 q 85 -176 184 -149 l 69 -7 q 168 -5 133 -14 q 218 16 202 4 q 241 52 237 31 q 227 110 243 80 q 193 175 212 140 q 161 252 175 210 q 153 345 148 293 q 172 418 157 382 q 208 477 184 448 q 273 521 232 506 q 194 534 221 517 q 155 574 167 551 q 140 635 140 600 q 155 716 141 681 q 184 783 168 751 q 214 846 201 815 q 227 914 227 878 q 208 964 224 941 q 163 1001 193 983 q 79 1023 134 1019 l 81 1173 z "},"~":{"ha":869,"x_min":20,"x_max":849,"o":"m 20 486 q 151 530 98 515 q 237 551 203 544 q 301 556 277 557 q 361 532 330 552 q 427 488 392 511 q 503 447 463 465 q 591 431 544 429 q 665 445 629 434 q 730 473 696 454 q 792 524 765 491 q 799 481 792 502 q 807 461 803 471 q 818 437 812 450 q 831 408 823 425 q 849 369 838 392 q 823 345 844 354 q 779 330 802 336 q 716 319 751 323 q 611 322 658 313 q 524 347 564 331 q 451 381 484 362 q 388 416 418 400 q 331 442 358 433 q 275 449 304 452 q 208 431 243 445 q 140 399 176 420 q 68 340 103 377 l 20 486 z "},"":{"ha":445,"x_min":0,"x_max":0,"o":""},"":{"ha":407,"x_min":0,"x_max":345,"o":"m 305 56 q 256 64 278 61 q 216 71 233 68 q 178 75 195 73 q 133 77 159 76 q 77 79 110 79 q 0 80 43 80 q 64 237 39 172 q 102 343 88 301 q 123 423 117 392 q 137 499 129 454 q 155 595 144 537 q 182 731 165 652 l 302 726 q 287 603 292 654 q 279 518 282 552 q 278 453 277 479 q 282 372 278 425 q 290 251 285 327 q 305 56 296 175 m 155 834 q 144 867 146 849 q 147 904 142 886 q 165 938 152 922 q 199 964 178 954 q 277 975 243 985 q 327 940 311 966 q 330 876 345 913 q 270 819 315 838 q 197 806 227 800 q 155 834 168 811 z "},"":{"ha":589,"x_min":23,"x_max":582,"o":"m 582 838 q 545 789 559 811 q 524 750 532 766 q 510 716 514 731 q 498 670 505 699 q 480 605 491 646 q 452 503 469 564 q 429 538 439 525 q 408 560 418 552 q 388 575 397 570 q 368 583 378 579 q 345 590 358 586 q 319 597 332 594 l 315 323 q 387 334 357 327 q 415 342 401 338 q 441 351 426 346 q 469 363 453 357 q 502 378 484 369 q 507 353 505 363 q 510 336 509 343 q 513 323 511 328 q 517 308 514 316 q 524 290 519 301 q 534 266 528 279 q 492 250 513 256 q 454 239 471 243 q 416 231 434 233 l 392 227 q 363 220 380 224 q 323 212 346 217 q 324 181 324 194 q 326 159 324 168 q 327 140 326 148 q 330 121 327 132 q 340 65 331 103 l 228 57 q 231 77 229 68 q 232 94 232 87 l 232 109 l 232 212 q 126 237 165 214 q 66 286 87 259 q 34 355 42 317 q 30 466 23 416 q 54 553 37 515 q 95 619 71 591 q 145 667 119 647 q 194 700 171 688 q 232 720 217 712 q 235 787 235 762 q 235 827 235 812 q 233 852 235 844 q 231 865 232 859 q 229 880 229 872 q 229 899 229 888 l 340 914 q 336 897 338 906 q 331 879 334 887 q 327 860 328 869 q 324 833 326 849 q 321 795 323 818 q 319 741 320 773 q 403 753 373 746 q 430 760 418 757 q 467 774 445 764 q 514 799 486 784 q 582 838 543 814 m 142 435 q 151 385 141 408 q 177 348 159 366 q 232 323 195 330 l 233 566 q 184 531 202 552 q 156 488 165 510 q 142 435 145 464 z "},"":{"ha":709,"x_min":14,"x_max":696,"o":"m 696 788 q 643 762 666 774 q 604 741 620 750 q 570 720 585 730 q 532 693 555 709 q 481 657 513 678 q 408 605 450 636 q 414 646 411 628 q 419 677 416 665 l 423 701 q 422 738 425 715 q 408 783 419 761 q 376 820 397 804 q 321 834 355 836 q 284 822 298 833 q 262 794 270 811 q 252 758 255 777 q 250 719 250 738 q 254 674 248 701 q 264 612 256 651 q 288 515 273 572 q 314 517 301 517 q 338 518 327 518 l 362 518 q 387 517 373 518 q 412 514 397 515 q 441 510 426 513 l 430 414 q 380 422 399 420 q 358 425 368 423 q 336 426 349 426 q 313 426 326 426 q 286 425 301 426 q 294 351 293 384 q 293 296 294 319 q 288 248 292 269 q 274 206 282 228 q 253 164 266 187 q 221 118 240 141 q 294 135 260 129 q 355 144 328 141 q 412 146 387 146 q 474 141 445 145 q 528 134 503 137 q 572 128 552 130 q 606 129 591 126 q 625 136 613 130 q 651 151 636 141 q 689 176 666 160 q 683 121 685 144 q 680 84 681 99 q 680 57 678 68 q 681 30 681 46 q 680 -6 681 15 q 678 -58 680 -27 q 606 -7 650 -24 q 521 16 563 9 q 420 22 472 23 q 312 12 368 18 q 207 -2 264 7 q 96 -24 149 -11 l 31 125 q 94 154 71 137 q 132 186 117 171 q 156 224 146 203 q 165 273 161 244 q 170 333 168 297 q 167 416 171 369 l 31 410 l 14 492 l 156 494 q 139 599 144 552 q 133 677 134 646 q 134 742 132 713 q 151 812 138 781 q 189 866 164 844 q 251 901 213 888 q 345 917 289 914 q 433 907 400 920 q 487 876 467 894 q 519 838 507 857 q 543 810 530 819 q 574 799 553 804 q 621 791 591 795 q 696 788 650 787 z "},"":{"ha":696,"x_min":20,"x_max":677,"o":"m 543 606 q 570 560 560 587 q 581 501 579 533 q 578 436 583 469 q 560 374 572 403 l 674 278 l 534 148 l 444 277 q 367 261 403 263 q 305 260 331 259 q 280 266 293 262 q 254 277 267 270 l 171 130 q 100 179 126 161 q 60 206 75 197 q 38 221 43 217 q 45 235 35 222 q 72 265 54 247 q 113 307 90 283 q 161 354 136 330 q 130 401 142 377 q 114 449 117 426 q 111 525 109 486 q 132 600 113 564 l 20 694 l 161 825 l 255 689 q 301 697 277 694 q 357 700 326 700 q 399 694 377 700 q 442 678 420 688 l 543 838 q 612 789 586 807 q 652 762 637 772 q 674 747 667 751 q 666 734 677 746 q 636 703 655 722 q 591 660 617 684 q 538 610 566 636 l 543 606 m 324 321 q 353 328 335 320 q 390 351 372 335 q 422 393 408 368 q 439 456 437 419 q 431 576 446 529 q 396 633 415 623 q 356 648 380 643 q 316 646 332 652 q 296 629 308 642 q 273 597 285 617 q 252 553 262 578 q 239 503 243 529 q 237 447 235 477 q 250 390 240 416 q 278 345 260 363 q 324 321 296 326 z "},"":{"ha":754,"x_min":-125,"x_max":879,"o":"m -125 852 q -26 852 -66 852 q 38 853 14 853 l 84 853 l 145 853 q 217 854 175 853 q 315 856 259 854 q 249 821 271 837 q 216 795 227 806 q 202 770 203 781 q 225 736 205 758 q 279 688 243 718 q 382 612 315 658 q 473 702 442 669 q 519 753 505 735 q 538 780 536 773 q 525 796 537 785 q 492 820 514 806 q 430 857 469 834 q 522 861 483 860 q 585 863 560 863 l 632 863 q 686 861 652 863 q 762 859 715 860 q 879 857 808 859 q 787 814 822 833 q 732 785 753 796 q 696 764 708 772 q 654 724 684 753 q 582 653 628 700 q 461 529 536 606 l 454 442 l 583 442 l 587 374 l 456 363 l 456 313 l 578 317 l 591 235 l 469 233 q 473 208 469 220 q 480 187 476 197 q 491 168 486 176 q 511 142 496 157 q 543 106 522 127 q 594 53 563 84 q 514 56 551 54 q 452 57 477 57 l 397 57 q 340 56 373 57 q 276 52 307 54 q 224 49 245 50 q 199 47 202 47 q 203 56 197 49 q 221 77 210 64 q 244 106 232 90 q 264 141 256 122 q 275 170 270 155 q 283 196 279 182 q 289 222 288 210 l 149 220 l 152 290 l 297 301 l 293 349 l 153 346 l 141 410 l 289 425 q 291 457 292 444 q 289 479 290 471 q 285 492 288 488 q 260 520 281 498 q 211 573 240 543 q 148 638 182 604 q 83 703 114 673 q 30 755 53 734 q -1 784 7 777 q -28 802 -12 791 q -66 823 -43 810 q -125 852 -90 836 z "},"":{"ha":323,"x_min":83,"x_max":239,"o":"m 83 1025 l 217 1025 q 215 932 216 971 q 214 867 214 892 l 214 815 q 214 764 213 793 q 216 699 214 738 q 220 608 217 661 l 99 616 q 93 680 95 650 q 90 732 91 709 q 87 783 88 758 q 84 842 85 807 q 83 918 83 872 q 83 1025 83 963 m 99 435 l 227 430 q 231 293 231 345 q 229 241 231 264 q 229 183 228 218 q 232 110 231 153 q 239 7 233 66 l 90 12 q 95 102 92 65 q 99 164 98 140 q 102 212 100 193 l 102 262 q 102 331 102 289 q 99 435 102 373 z "},"":{"ha":625,"x_min":54,"x_max":572,"o":"m 532 864 q 528 826 530 849 q 522 778 525 807 q 515 709 519 749 q 439 849 471 802 q 385 920 407 897 q 343 948 361 944 q 307 943 326 947 q 273 929 289 939 q 244 904 256 920 q 228 864 232 888 q 252 792 221 826 q 327 728 282 758 q 420 672 372 697 q 499 627 468 647 q 547 577 530 608 q 568 514 564 547 q 565 450 572 481 q 540 397 557 419 q 505 369 526 381 q 457 350 486 358 q 389 345 429 342 q 480 257 448 296 q 528 191 513 218 q 549 136 545 159 q 537 81 551 107 q 498 35 524 56 q 437 -1 472 14 q 361 -24 401 -16 q 291 -26 320 -33 q 239 -7 262 -19 q 197 16 216 4 q 157 28 178 27 q 125 22 141 28 q 93 1 110 15 q 58 -41 76 -14 q 79 62 72 22 q 90 125 85 102 q 95 165 94 152 q 98 199 95 179 q 102 244 99 217 q 109 311 104 271 q 159 191 138 236 q 195 118 180 145 q 224 72 212 87 q 252 52 237 57 q 284 51 267 47 q 320 64 301 54 q 361 85 339 73 q 390 117 382 99 q 395 155 397 134 q 384 197 393 175 q 363 241 374 218 q 313 285 353 263 q 226 327 273 307 q 136 367 179 347 q 77 404 94 387 q 58 443 61 422 q 58 486 54 464 q 73 530 62 507 q 94 575 83 552 q 123 606 103 591 q 172 631 141 618 q 251 650 202 643 q 157 730 190 692 q 109 799 123 768 q 88 865 91 834 q 104 931 88 905 q 148 974 121 958 q 208 999 175 990 q 277 1015 241 1008 q 336 1014 311 1020 q 381 998 361 1008 q 420 981 401 989 q 458 977 438 972 q 491 985 475 979 q 522 998 506 990 q 555 1021 538 1006 q 543 950 548 979 q 536 902 538 921 q 532 864 532 879 m 304 420 q 357 444 338 431 q 387 468 376 457 q 403 494 399 481 q 403 521 406 506 q 393 549 400 533 q 370 582 385 564 q 320 573 340 579 q 285 560 300 567 q 258 543 269 552 q 237 511 244 529 q 235 474 231 492 q 255 441 239 456 q 304 420 271 426 z "},"":{"ha":993,"x_min":292,"x_max":703,"o":"m 370 1053 q 414 1040 395 1054 q 444 1006 434 1027 q 452 964 454 986 q 433 925 450 941 q 363 899 403 898 q 304 930 324 899 q 292 967 293 947 q 300 1006 292 987 q 326 1038 308 1025 q 370 1053 343 1051 m 618 1053 q 663 1040 643 1054 q 692 1005 682 1025 q 701 962 703 985 q 681 924 699 940 q 648 904 666 910 q 612 898 629 898 q 578 906 594 898 q 552 929 562 914 q 541 966 541 945 q 548 1005 540 986 q 574 1038 556 1024 q 618 1053 591 1051 z "},"":{"ha":781,"x_min":20,"x_max":762,"o":"m 411 986 q 473 977 437 989 q 547 941 509 964 q 623 886 586 918 q 690 818 661 854 q 739 741 720 781 q 760 663 758 701 q 756 521 762 579 q 734 420 750 463 q 694 346 719 377 q 632 285 669 315 q 462 207 559 227 q 260 214 365 187 q 163 265 208 228 q 87 352 119 302 q 38 458 56 401 q 20 567 20 515 q 41 710 22 639 q 104 840 60 781 q 224 938 149 898 q 411 986 298 978 m 156 777 q 127 728 140 757 q 106 664 114 699 q 98 593 99 629 q 104 521 98 556 q 151 412 118 453 q 243 328 183 370 q 307 297 271 307 q 380 287 343 288 q 450 292 416 286 q 507 307 483 297 q 600 378 555 326 q 671 532 646 431 q 675 628 684 582 q 645 713 666 674 q 593 786 624 753 q 532 845 563 819 q 465 881 500 871 q 397 892 430 891 q 334 886 363 892 q 285 873 305 880 q 219 838 248 860 q 156 777 190 817 m 362 807 q 404 801 385 807 q 437 787 422 795 q 467 771 453 779 q 496 764 481 764 l 518 764 q 537 763 528 764 q 553 761 547 762 q 541 740 547 749 q 530 724 534 731 q 522 711 525 718 q 510 692 517 704 q 492 663 503 681 q 463 617 481 646 q 454 681 463 658 q 434 716 445 704 q 407 734 422 730 q 364 722 387 736 q 323 682 342 707 q 292 630 305 658 q 277 578 279 602 q 282 531 274 557 q 307 481 290 505 q 345 444 323 458 q 392 429 366 429 q 429 438 411 430 q 458 458 444 445 q 481 499 473 472 l 563 475 q 481 404 521 427 q 411 372 442 381 q 343 362 376 361 q 269 386 302 366 q 212 434 235 406 q 176 496 189 463 q 165 560 164 529 q 181 633 167 591 q 221 714 195 675 q 282 780 247 753 q 362 807 317 807 z "},"":{"ha":456,"x_min":20,"x_max":435,"o":"m 20 811 q 165 848 109 838 q 254 857 221 857 q 312 846 292 857 q 347 806 334 831 q 368 748 361 780 q 378 680 376 716 q 382 606 381 643 q 393 545 384 570 q 411 505 401 521 q 428 483 420 490 q 435 476 435 476 q 426 473 434 475 q 405 469 419 471 q 365 461 391 467 q 346 482 353 475 q 336 492 339 490 q 332 495 332 496 q 266 435 305 452 q 189 417 227 419 q 122 422 152 415 q 84 433 92 429 q 53 458 65 439 q 35 501 41 477 q 31 549 30 525 q 41 593 33 574 q 85 640 54 623 q 150 666 115 658 q 216 675 184 674 q 262 674 247 677 q 275 671 269 673 q 290 667 282 670 q 305 662 297 665 q 313 690 312 678 q 311 708 313 701 q 302 723 308 716 q 250 741 286 735 q 164 731 213 747 q 125 719 145 724 q 86 707 107 713 q 46 693 65 700 l 20 811 m 137 518 q 159 506 141 510 q 198 502 176 502 q 241 507 220 502 q 271 522 262 513 q 290 551 285 536 q 293 581 294 567 q 284 606 292 595 q 267 621 277 617 q 230 623 256 625 q 178 608 203 620 q 139 575 153 597 q 137 518 125 553 z "},"":{"ha":583,"x_min":0,"x_max":534,"o":"m 290 384 l 130 259 q 227 188 193 212 q 275 153 260 164 q 296 142 293 141 q 293 123 296 142 q 286 70 290 107 q 273 -39 281 33 q 220 31 244 0 q 178 84 197 62 q 140 129 156 109 q 104 164 125 145 q 60 203 87 180 q 0 254 34 227 q 73 320 43 293 q 121 365 102 347 q 157 399 142 385 q 184 425 170 410 q 217 456 198 438 q 262 500 236 475 l 290 384 m 529 384 l 369 259 q 465 188 431 212 q 514 153 499 164 q 534 142 532 141 q 532 123 534 142 q 524 70 529 107 q 511 -39 519 33 q 459 31 483 0 q 416 84 435 62 q 378 129 395 109 q 343 164 363 145 q 299 203 326 180 q 239 254 273 227 q 311 320 281 293 q 359 365 340 347 q 396 399 382 385 q 423 425 408 410 q 456 456 437 438 q 500 500 475 475 l 529 384 z "},"":{"ha":903,"x_min":20,"x_max":868,"o":"m 20 549 q 182 545 114 547 q 296 544 250 544 q 385 544 349 543 q 486 545 423 544 q 623 549 538 547 q 833 557 708 552 q 838 522 836 541 q 844 484 841 502 q 849 445 846 464 q 854 406 850 425 q 861 371 857 389 q 868 338 864 353 l 715 316 q 717 355 716 339 q 718 381 718 372 l 718 399 l 718 412 q 718 428 718 419 q 720 448 719 437 q 592 447 647 448 q 499 446 537 446 q 425 445 454 445 q 336 439 391 444 q 214 429 289 435 q 28 410 138 422 l 20 549 z "},"":{"ha":636,"x_min":20,"x_max":616,"o":"m 20 498 q 117 496 73 496 q 194 496 161 496 q 263 498 232 496 q 346 500 296 498 q 455 505 389 502 q 616 511 521 507 l 609 373 q 482 380 533 378 q 400 384 431 382 q 340 384 363 385 q 275 380 317 382 q 180 374 240 377 q 27 363 119 370 l 20 498 z "},"":{"ha":789,"x_min":16,"x_max":772,"o":"m 412 986 q 508 966 452 990 q 617 898 564 941 q 711 793 670 854 q 761 663 751 732 q 767 522 772 581 q 745 421 762 464 q 699 347 727 378 q 633 285 670 315 q 464 207 562 227 q 262 214 366 187 q 163 258 209 228 q 83 332 117 288 q 33 436 50 377 q 23 567 16 495 q 50 709 30 637 q 113 839 69 780 q 228 938 156 898 q 412 986 300 978 m 157 777 q 128 728 141 757 q 109 664 115 699 q 101 593 102 629 q 107 521 100 556 q 153 412 121 453 q 244 328 184 370 q 310 297 274 307 q 382 286 346 288 q 452 291 419 285 q 509 307 486 297 q 602 378 555 326 q 673 532 648 431 q 677 628 685 582 q 648 713 669 674 q 596 786 627 753 q 534 845 566 819 q 468 881 503 871 q 399 892 433 891 q 336 886 365 892 q 288 873 307 880 q 222 838 251 860 q 157 777 193 817 m 210 757 q 245 762 229 760 q 273 765 262 764 q 296 768 286 766 q 336 771 312 769 q 387 773 359 773 q 444 769 415 773 q 498 755 472 765 q 569 709 549 736 q 590 654 589 682 q 581 613 590 632 q 555 580 572 597 q 502 552 537 563 q 522 539 513 545 q 537 526 530 533 q 549 511 544 519 q 566 484 563 492 q 572 454 568 475 q 574 444 572 449 q 576 431 575 438 q 578 416 576 423 q 557 415 575 415 l 540 415 l 513 415 l 429 415 q 449 431 441 423 q 463 445 457 438 q 471 458 468 452 q 472 483 473 471 q 467 505 471 494 q 450 525 463 515 q 403 521 418 521 l 388 521 q 374 519 381 521 q 359 517 368 518 q 339 514 350 517 q 337 488 336 499 q 340 468 338 476 q 346 450 343 458 q 354 434 349 441 q 380 408 363 418 l 324 408 q 300 410 311 408 q 277 411 289 410 q 254 412 266 412 q 231 415 241 412 q 248 445 244 434 q 252 456 251 450 q 252 503 254 467 q 248 578 251 538 q 241 652 244 618 q 236 692 237 685 q 231 709 235 699 q 223 730 228 718 q 210 757 218 742 m 431 581 q 441 586 437 583 q 448 595 445 589 q 454 612 452 601 q 458 644 456 624 q 456 677 461 665 q 441 699 450 690 q 420 709 431 707 q 401 711 410 712 q 385 709 395 709 q 366 708 377 708 q 338 705 354 708 l 338 574 q 378 572 361 571 q 407 575 395 572 q 431 581 422 578 z "},"":{"ha":993,"x_min":328,"x_max":665,"o":"m 328 1012 q 395 1010 365 1010 q 445 1010 425 1010 q 487 1012 469 1010 q 532 1015 506 1013 q 586 1017 555 1016 q 661 1021 617 1019 l 665 925 q 616 930 642 928 q 567 932 590 932 l 514 932 q 458 929 487 930 q 403 926 434 928 q 340 922 372 925 l 328 1012 z "},"":{"ha":534,"x_min":22,"x_max":471,"o":"m 277 1069 q 357 1057 320 1073 q 420 1013 395 1042 q 458 945 446 983 q 463 865 471 906 q 437 791 454 825 q 398 734 420 758 q 351 697 376 711 q 305 682 327 684 q 260 678 283 680 q 213 678 236 677 q 169 684 190 680 q 134 700 148 689 q 97 730 119 711 q 56 775 75 749 q 29 836 37 802 q 38 911 22 871 q 75 981 54 954 q 125 1027 96 1009 q 191 1055 153 1046 q 277 1069 228 1065 m 167 944 q 141 902 149 924 q 133 859 133 880 q 140 821 133 838 q 160 792 148 803 q 248 753 208 751 q 312 772 288 754 q 349 822 335 789 q 363 898 363 854 q 332 968 363 941 q 259 993 301 996 q 233 990 244 991 q 212 984 222 989 q 191 970 202 979 q 167 944 180 960 z "},"":{"ha":711,"x_min":20,"x_max":697,"o":"m 286 736 l 444 742 q 427 694 433 716 q 418 658 420 673 q 414 625 414 640 l 414 602 q 412 572 414 590 q 410 526 411 553 q 493 529 458 528 q 551 530 528 530 l 594 530 q 627 532 610 530 q 659 535 642 533 q 692 543 675 537 l 697 427 q 644 430 667 430 q 602 431 620 430 q 566 433 582 431 l 525 433 q 475 431 505 433 q 407 429 446 430 q 404 365 403 380 q 407 347 404 354 q 412 315 408 334 q 420 275 415 298 q 431 221 425 252 l 283 220 q 292 274 289 251 q 298 313 296 297 l 302 346 q 305 372 304 357 q 305 434 308 396 q 245 434 271 434 q 199 433 218 434 q 161 430 178 431 q 125 426 145 429 q 83 422 107 423 q 30 419 58 420 l 20 530 q 85 526 57 528 q 132 525 113 525 l 168 525 l 209 525 l 316 525 q 315 581 316 560 q 313 613 315 602 q 311 629 312 625 q 305 655 309 640 q 298 689 302 669 q 286 736 293 709 m 49 137 q 145 136 100 136 q 222 136 190 136 q 290 137 260 136 q 373 140 323 138 q 482 143 416 141 q 643 149 548 145 l 637 12 q 510 18 562 16 q 427 22 458 20 q 368 23 391 23 q 302 19 345 22 q 207 13 267 16 q 54 3 146 9 l 49 137 z "},"":{"ha":627,"x_min":56,"x_max":571,"o":"m 56 906 q 96 890 75 895 q 133 884 117 886 q 170 884 152 882 q 205 892 187 886 q 249 907 224 899 q 308 922 274 916 q 389 928 342 928 q 433 922 410 928 q 479 907 457 917 q 518 887 500 898 q 547 865 536 876 q 560 829 556 854 q 563 776 564 804 q 556 720 562 747 q 541 674 551 692 q 494 635 529 659 q 403 582 463 614 q 241 505 343 549 q 343 507 302 505 q 410 511 384 509 q 457 517 439 514 q 490 529 473 521 q 522 548 505 536 q 555 579 538 560 q 559 543 557 559 q 562 517 560 528 q 564 494 563 503 q 566 473 564 484 q 568 450 567 463 q 571 422 568 437 q 477 437 519 431 q 404 445 435 442 q 340 448 369 448 q 277 444 312 448 q 202 435 245 441 q 106 419 159 430 q 98 436 102 427 q 92 453 95 445 q 88 471 90 461 q 84 487 87 479 q 80 503 81 494 q 79 518 79 511 q 213 587 161 556 q 294 639 264 617 q 346 684 330 663 q 375 739 363 708 q 383 795 387 769 q 358 837 380 821 q 289 850 336 853 q 230 836 258 849 q 180 802 202 822 q 140 760 157 783 q 110 717 122 736 q 91 684 98 697 q 84 670 84 671 q 83 682 84 669 q 79 713 81 694 q 75 753 77 732 q 72 787 73 773 l 68 815 q 62 852 65 830 q 56 906 60 875 z "},"":{"ha":612,"x_min":69,"x_max":587,"o":"m 69 936 q 106 922 88 926 q 138 916 123 918 q 172 913 155 913 q 210 916 193 913 q 248 924 228 920 q 296 930 269 928 q 363 930 323 933 q 491 891 445 925 q 538 818 537 857 q 525 761 537 787 q 492 717 514 738 q 429 686 471 696 q 510 667 480 681 q 556 639 540 654 q 582 601 575 621 q 581 544 587 572 q 554 491 574 515 q 502 448 534 467 q 425 420 469 429 q 353 418 393 414 q 276 429 313 422 q 209 441 239 435 q 168 448 179 448 q 146 442 160 448 q 119 431 136 438 q 84 410 103 423 q 96 494 95 475 q 98 513 98 507 l 98 529 q 97 551 98 537 q 95 587 96 566 q 194 519 148 543 q 275 486 240 496 q 351 475 316 473 q 413 501 395 477 q 428 553 431 525 q 402 607 425 582 q 342 637 380 632 q 285 637 312 640 q 236 627 262 635 q 193 601 210 620 q 190 623 190 614 q 189 637 190 632 q 187 647 187 643 q 186 658 187 651 q 182 699 183 671 q 217 693 201 694 q 245 692 233 692 l 273 692 q 310 701 288 693 q 352 721 332 708 q 384 752 372 734 q 392 792 396 770 q 350 857 382 837 q 283 875 317 878 q 229 860 260 873 q 165 826 202 849 q 81 764 127 803 q 84 798 84 783 q 84 825 84 814 l 84 846 q 80 869 83 856 q 75 897 77 880 q 69 936 73 913 z "},"":{"ha":993,"x_min":391,"x_max":602,"o":"m 391 933 l 534 1073 l 602 1001 l 426 882 l 391 933 z "},"":{"ha":594,"x_min":20,"x_max":567,"o":"m 20 454 q 60 448 42 449 q 92 445 79 446 q 119 445 107 444 q 151 446 133 445 q 189 447 165 446 q 247 448 213 448 q 218 433 228 441 q 201 418 208 425 q 191 400 194 410 q 183 351 189 388 q 174 272 178 315 q 173 191 171 229 q 187 138 175 153 q 219 109 199 123 q 261 87 239 95 q 306 81 283 80 q 346 98 328 83 q 375 155 362 113 q 395 243 388 197 q 403 332 403 290 q 393 389 403 374 q 378 416 387 401 q 340 477 365 441 q 377 472 359 473 q 410 469 395 471 q 441 468 426 468 l 475 468 q 515 467 491 468 q 567 465 538 467 q 548 451 555 460 q 537 431 541 442 q 532 407 532 419 q 530 340 530 388 q 531 221 530 298 q 534 12 532 144 l 420 0 l 414 62 q 386 12 406 30 q 346 -15 366 -5 q 293 -28 321 -26 q 228 -16 254 -30 q 187 14 202 -3 q 166 43 172 30 q 161 53 160 56 q 163 35 163 50 q 164 0 163 20 q 168 -41 165 -20 q 174 -79 170 -62 q 187 -117 179 -98 q 204 -151 194 -133 q 227 -184 214 -170 q 161 -171 189 -174 q 137 -171 146 -170 q 113 -175 126 -174 q 87 -178 102 -178 q 58 -182 73 -179 q 64 -134 62 -159 q 69 -91 66 -110 q 73 -46 72 -68 q 75 9 75 -27 q 75 92 76 46 q 71 184 73 137 q 65 273 68 232 q 60 342 62 313 q 56 377 57 370 q 49 396 54 385 q 38 420 45 406 q 20 454 31 434 z "},"":{"ha":868,"x_min":24,"x_max":812,"o":"m 812 819 q 784 823 796 822 q 762 825 772 823 q 743 826 751 826 l 722 826 q 654 830 700 826 q 655 640 655 718 q 655 513 655 562 q 654 419 655 456 q 658 326 652 382 q 670 199 662 277 q 697 12 678 122 l 547 12 q 543 214 544 127 q 541 359 543 301 q 538 475 540 427 q 536 576 537 521 q 534 688 534 624 q 534 826 534 753 l 423 830 q 421 555 420 661 q 423 388 422 449 q 426 285 425 317 q 433 216 429 255 q 453 22 439 145 l 283 8 q 304 191 297 127 q 311 255 308 228 q 313 330 313 283 q 312 434 313 369 q 307 594 311 499 q 222 583 259 582 q 156 595 184 585 q 106 621 127 605 q 72 656 85 637 q 28 765 38 701 q 42 846 24 812 q 88 903 60 880 q 151 939 117 925 q 214 962 186 954 q 289 972 243 970 q 385 972 335 974 q 484 968 435 971 q 566 966 532 966 q 638 968 598 966 q 714 973 678 970 q 775 979 750 977 q 804 981 800 981 l 812 819 z "},"":{"ha":278,"x_min":42,"x_max":239,"o":"m 133 566 q 211 549 183 572 q 236 486 239 526 q 229 453 236 465 q 211 435 222 441 q 183 426 199 429 q 148 419 167 423 q 109 422 127 415 q 75 440 90 429 q 51 467 60 452 q 42 496 42 481 q 51 525 42 513 q 73 545 60 537 q 103 559 87 553 q 133 566 119 564 z "},"":{"ha":993,"x_min":387,"x_max":609,"o":"m 414 45 l 534 43 l 511 -73 q 574 -96 555 -80 q 601 -132 594 -113 q 606 -179 609 -153 q 572 -228 597 -205 q 509 -266 551 -247 q 395 -296 467 -285 l 397 -233 q 459 -214 437 -225 q 492 -194 481 -203 q 507 -171 505 -183 q 494 -149 507 -159 q 458 -133 483 -141 q 387 -119 434 -125 l 414 45 z "},"":{"ha":399,"x_min":27,"x_max":330,"o":"m 58 854 q 117 867 94 861 q 155 878 141 873 q 179 884 170 883 q 203 894 187 888 q 241 907 218 899 q 301 929 264 916 q 289 876 293 901 q 282 833 285 852 q 279 792 279 811 q 276 724 279 769 q 270 633 273 680 q 267 549 267 587 q 274 500 267 510 q 288 483 279 491 q 304 467 294 476 q 330 449 315 457 q 284 443 305 445 q 248 438 263 441 q 216 434 231 435 q 174 430 199 433 q 115 425 151 427 q 27 418 79 422 q 70 441 54 430 q 94 460 85 452 q 106 479 103 469 q 110 511 107 484 q 115 573 113 537 q 120 649 118 609 q 123 725 122 689 q 125 785 125 761 q 122 815 125 810 q 110 827 118 822 q 90 840 103 833 q 58 854 77 846 z "},"":{"ha":471,"x_min":9,"x_max":457,"o":"m 15 646 q 44 713 19 680 q 105 774 69 747 q 182 815 141 800 q 259 825 224 830 q 330 805 294 819 q 393 766 365 791 q 439 707 422 742 q 457 627 457 673 q 439 547 457 581 q 390 492 420 514 q 321 460 359 471 q 245 449 283 449 q 163 461 206 449 q 86 498 121 473 q 31 559 52 522 q 15 646 9 597 m 250 524 q 308 541 285 524 q 342 583 331 557 q 352 637 353 608 q 340 690 351 666 q 305 730 328 715 q 250 741 282 745 q 204 721 224 738 q 172 680 184 704 q 158 628 160 655 q 164 578 156 601 q 193 539 172 555 q 250 524 214 524 z "},"":{"ha":583,"x_min":49,"x_max":583,"o":"m 321 500 q 367 456 347 475 q 400 425 387 438 q 427 399 415 410 q 463 365 441 385 q 511 320 481 347 q 583 254 540 293 q 522 203 548 227 q 479 164 496 180 q 444 129 458 145 q 406 84 426 109 q 363 31 387 62 q 311 -39 339 0 q 297 70 301 33 q 290 123 293 107 q 288 142 288 142 q 308 153 290 141 q 357 188 323 164 q 453 259 391 212 l 293 384 l 321 500 m 84 500 q 128 456 109 475 q 161 425 148 438 q 189 399 176 410 q 224 365 202 385 q 272 320 243 347 q 345 254 301 293 q 285 203 311 227 q 241 164 259 180 q 205 129 220 145 q 167 84 187 109 q 124 31 148 62 q 72 -39 100 0 q 58 70 62 33 q 52 123 54 107 q 49 142 49 142 q 69 153 52 141 q 118 188 84 164 q 214 259 152 212 l 54 384 l 84 500 z "},"":{"ha":1112,"x_min":27,"x_max":1070,"o":"m 58 854 q 117 867 94 861 q 155 878 141 873 q 179 884 170 883 q 203 894 187 888 q 241 907 218 899 q 301 929 264 916 q 289 876 293 901 q 282 833 285 852 q 279 792 279 811 q 276 724 279 769 q 270 633 273 680 q 267 549 267 587 q 274 500 267 510 q 288 483 279 491 q 304 467 294 476 q 330 449 315 457 q 284 443 305 445 q 248 438 263 441 q 216 434 231 435 q 174 430 199 433 q 115 425 151 427 q 27 418 79 422 q 70 441 54 430 q 94 460 85 452 q 106 479 103 469 q 110 511 107 484 q 115 573 113 537 q 120 649 118 609 q 123 725 122 689 q 125 785 125 761 q 122 815 125 810 q 110 827 118 822 q 90 840 103 833 q 58 854 77 846 m 686 545 q 744 543 722 544 q 780 543 766 543 l 803 543 l 830 543 q 874 542 846 543 q 949 541 902 541 q 941 528 944 536 q 936 514 939 521 q 932 496 933 506 q 928 460 930 484 q 922 401 925 438 q 913 302 918 363 q 965 307 944 302 q 1001 316 986 311 q 1028 330 1017 321 q 1040 339 1034 334 q 1053 349 1046 343 q 1070 361 1061 354 q 1066 302 1069 321 q 1063 285 1065 292 q 1061 263 1062 277 q 1057 232 1059 251 q 1053 183 1055 213 q 1034 205 1042 198 q 1019 218 1025 213 q 1005 227 1012 224 q 985 229 998 228 q 956 231 974 231 q 911 233 939 232 q 914 163 911 190 q 920 122 917 137 q 929 96 924 104 q 947 80 935 88 q 1020 37 966 65 q 975 32 997 34 q 936 28 952 30 q 899 27 916 27 q 853 26 880 27 q 795 24 830 24 q 711 20 760 23 q 739 43 728 33 q 755 61 749 54 q 765 77 762 69 q 772 104 768 85 q 779 149 774 121 q 788 225 783 178 l 507 222 l 513 271 q 594 357 564 323 q 640 412 624 391 q 667 452 659 437 q 677 480 671 465 q 683 510 680 494 q 686 545 686 526 m 802 294 q 805 331 804 313 q 807 361 806 349 q 808 387 808 376 l 808 414 q 808 445 808 427 q 810 486 808 463 l 658 293 l 802 294 m 810 925 q 708 772 758 852 q 618 625 658 693 q 532 471 572 547 q 461 327 496 401 q 399 181 431 262 q 345 16 368 100 l 138 5 q 296 267 233 160 q 396 442 359 374 q 463 570 439 521 q 502 661 480 608 q 546 771 521 705 q 602 925 571 837 l 810 925 z "},"":{"ha":1249,"x_min":27,"x_max":1180,"o":"m 665 524 q 705 509 684 513 q 742 503 726 506 q 779 502 761 500 q 814 511 796 503 q 858 526 833 518 q 917 541 883 534 q 998 547 951 547 q 1042 541 1019 547 q 1088 526 1066 534 q 1127 505 1109 517 q 1154 483 1145 494 q 1168 448 1164 472 q 1172 395 1173 423 q 1164 338 1171 366 q 1149 292 1158 309 q 1101 252 1137 277 q 1011 200 1070 232 q 849 122 952 168 q 951 124 910 122 q 1019 129 993 126 q 1066 136 1048 132 q 1099 148 1082 140 q 1131 166 1114 155 q 1164 197 1147 178 q 1167 161 1166 176 q 1169 134 1168 145 q 1172 113 1171 121 q 1175 92 1173 103 q 1177 68 1176 81 q 1180 41 1177 56 q 1086 55 1128 50 q 1013 62 1044 60 q 949 65 978 65 q 886 61 921 64 q 811 54 854 58 q 713 38 768 49 q 707 55 709 46 q 701 71 704 64 q 696 88 699 79 q 692 106 693 98 q 689 121 690 113 q 688 137 688 130 q 821 204 769 174 q 903 256 873 235 q 955 302 939 281 q 984 357 972 327 q 992 412 996 387 q 967 455 989 438 q 898 469 945 472 q 812 439 850 467 q 748 378 774 411 q 707 317 722 345 q 693 289 693 290 q 690 300 692 288 q 687 332 689 313 q 683 370 685 350 q 680 404 681 391 q 677 433 680 416 q 671 470 674 448 q 665 524 669 492 m 821 962 q 720 808 769 888 q 631 661 670 728 q 543 506 585 582 q 472 362 507 437 q 411 216 442 297 q 357 52 380 136 l 149 42 q 307 303 244 197 q 407 477 369 410 q 475 605 452 556 q 514 696 492 643 q 558 807 533 741 q 614 962 583 873 l 821 962 m 58 861 q 117 874 94 868 q 155 884 141 880 q 179 891 170 890 q 203 901 187 895 q 241 914 218 906 q 301 936 264 922 q 289 883 293 907 q 282 840 285 859 q 279 799 279 818 q 276 731 279 776 q 270 640 273 686 q 267 555 267 594 q 274 507 267 517 q 288 490 279 498 q 304 473 294 483 q 330 456 315 464 q 284 450 305 452 q 248 445 263 448 q 216 441 231 442 q 174 437 199 439 q 115 431 151 434 q 27 425 79 429 q 70 448 54 437 q 94 467 85 458 q 106 486 103 476 q 110 517 107 491 q 115 580 113 544 q 120 656 118 616 q 123 732 122 696 q 125 792 125 768 q 122 822 125 817 q 110 834 118 829 q 90 846 103 840 q 58 861 77 853 z "},"":{"ha":1286,"x_min":69,"x_max":1244,"o":"m 69 936 q 106 922 88 926 q 138 916 123 918 q 172 913 155 913 q 210 916 193 913 q 248 924 228 920 q 296 930 269 928 q 363 930 323 933 q 491 891 445 925 q 538 818 537 857 q 525 761 537 787 q 492 717 514 738 q 429 686 471 696 q 510 667 480 681 q 556 639 540 654 q 582 601 575 621 q 581 544 587 572 q 554 491 574 515 q 502 448 534 467 q 425 420 469 429 q 353 418 393 414 q 276 429 313 422 q 209 441 239 435 q 168 448 179 448 q 146 442 160 448 q 119 431 136 438 q 84 410 103 423 q 96 494 95 475 q 98 513 98 507 l 98 529 q 97 551 98 537 q 95 587 96 566 q 194 519 148 543 q 275 486 240 496 q 351 475 316 473 q 413 501 395 477 q 428 553 431 525 q 402 607 425 582 q 342 637 380 632 q 285 637 312 640 q 236 627 262 635 q 193 601 210 620 q 190 623 190 614 q 189 637 190 632 q 187 647 187 643 q 186 658 187 651 q 182 699 183 671 q 217 693 201 694 q 245 692 233 692 l 273 692 q 310 701 288 693 q 352 721 332 708 q 384 752 372 734 q 392 792 396 770 q 350 857 382 837 q 283 875 317 878 q 229 860 260 873 q 165 826 202 849 q 81 764 127 803 q 84 798 84 783 q 84 825 84 814 l 84 846 q 80 869 83 856 q 75 897 77 880 q 69 936 73 913 m 1001 944 q 899 791 949 871 q 810 643 849 711 q 723 488 764 564 q 652 345 688 419 q 591 199 623 279 q 536 34 559 118 l 330 24 q 486 286 425 179 q 586 460 548 392 q 654 587 629 538 q 693 678 671 625 q 737 789 712 723 q 793 944 762 856 l 1001 944 m 860 510 q 918 508 895 509 q 954 507 940 507 l 977 507 l 1004 507 q 1048 507 1020 507 q 1123 506 1076 506 q 1114 492 1118 500 q 1108 477 1111 484 q 1104 460 1105 469 q 1100 423 1103 448 q 1094 365 1097 401 q 1086 267 1090 328 q 1137 271 1116 267 q 1173 281 1158 275 q 1200 294 1190 286 q 1213 304 1206 298 q 1227 313 1219 308 q 1244 324 1234 317 q 1240 290 1241 304 q 1238 266 1240 275 q 1237 248 1237 255 q 1234 228 1236 241 q 1231 197 1233 217 q 1226 148 1229 178 q 1206 170 1215 163 q 1191 183 1198 178 q 1177 191 1183 189 q 1158 194 1171 193 q 1130 195 1147 195 q 1085 197 1112 195 q 1088 127 1085 153 q 1093 85 1090 100 q 1103 60 1097 68 q 1120 45 1108 53 q 1149 27 1131 38 q 1194 1 1166 16 q 1148 -3 1171 -1 q 1109 -7 1126 -5 q 1073 -8 1089 -8 q 1027 -9 1054 -8 q 968 -12 1004 -11 q 883 -15 932 -12 q 911 8 901 -3 q 929 26 922 19 q 939 41 936 34 q 945 68 941 49 q 952 113 948 84 q 962 190 956 142 l 680 187 l 685 236 q 767 321 736 288 q 814 377 798 355 q 841 416 833 401 q 850 444 845 429 q 857 473 853 456 q 860 510 860 491 m 974 259 q 978 296 977 278 q 981 326 979 313 q 982 351 982 340 l 982 378 q 982 410 982 392 q 983 450 982 427 l 831 258 l 974 259 z "},"":{"ha":705,"x_min":11,"x_max":692,"o":"m 407 262 q 456 270 431 266 q 499 277 480 274 q 543 285 522 281 q 589 290 564 288 q 635 295 609 293 q 692 298 662 297 q 686 271 689 288 q 681 240 684 255 q 674 205 677 222 q 667 163 669 180 q 663 134 665 146 q 656 113 661 122 q 642 94 651 103 q 600 60 625 79 q 539 28 575 42 q 455 6 503 14 q 343 3 407 -1 q 237 16 279 7 q 168 39 195 24 q 121 72 140 53 q 87 115 103 91 q 54 174 71 140 q 27 247 38 209 q 14 322 16 285 q 22 391 11 359 q 69 439 34 415 q 158 488 100 461 q 317 541 216 514 q 310 587 315 566 q 300 623 305 608 q 286 654 294 640 q 271 681 278 666 q 257 707 264 693 q 243 734 250 720 l 509 766 q 488 734 495 751 q 477 703 480 718 q 472 667 472 685 q 473 621 471 648 q 481 562 476 598 q 496 477 486 526 q 390 463 431 473 q 324 439 349 452 q 279 408 296 425 q 258 361 267 393 q 245 290 248 330 q 245 210 241 251 q 264 136 250 168 q 305 83 279 103 q 373 66 331 62 q 466 89 435 72 q 509 126 496 106 q 520 166 521 146 q 518 197 519 186 q 502 216 515 205 q 469 236 491 225 q 407 262 446 247 m 382 814 q 304 830 332 807 q 279 895 277 853 q 305 945 281 936 q 369 962 330 955 q 407 959 388 966 q 441 941 426 952 q 465 913 456 929 q 473 883 473 898 q 465 856 473 868 q 442 835 456 844 q 412 821 429 826 q 382 814 396 815 z "},"":{"ha":907,"x_min":-138,"x_max":978,"o":"m 220 918 q 334 912 288 914 q 412 909 381 910 q 472 909 448 907 q 538 916 496 910 q 633 928 574 920 q 780 952 692 937 q 732 896 749 921 q 705 853 715 871 q 690 817 694 831 q 696 749 688 803 q 719 621 704 694 q 751 463 734 547 q 787 307 769 380 q 819 184 804 235 q 840 123 833 133 q 865 86 860 95 q 884 71 871 77 q 902 62 890 68 q 931 49 913 57 q 978 30 949 41 q 887 26 925 27 q 825 24 849 26 q 776 22 796 23 q 727 19 755 22 q 664 14 703 16 q 574 8 625 11 q 618 43 601 27 q 644 69 635 58 q 659 94 655 83 q 663 130 662 106 q 663 188 665 152 q 656 282 662 224 l 300 245 q 279 205 286 222 q 270 176 273 189 q 267 152 266 161 q 277 126 270 141 q 296 94 283 113 q 335 52 309 76 q 266 53 301 53 q 201 52 231 53 q 132 49 165 50 q 54 45 98 47 q -32 39 18 42 q -138 30 -81 35 q -79 63 -103 46 q -38 95 -54 80 q -5 126 -19 111 q 33 189 4 140 q 97 307 61 239 q 173 452 133 374 q 245 597 213 529 q 298 716 278 666 q 319 781 319 766 q 305 821 316 799 q 276 864 296 840 q 220 918 256 888 m 640 382 q 625 465 632 430 q 614 522 618 499 q 606 570 609 549 q 597 618 602 589 q 584 683 591 644 q 566 776 576 722 q 446 536 488 621 q 384 412 403 452 q 358 358 361 366 l 640 382 m 388 1172 l 484 1225 l 581 1039 l 517 1001 l 388 1172 z "},"":{"ha":907,"x_min":-138,"x_max":978,"o":"m 220 918 q 334 912 288 914 q 412 909 381 910 q 472 909 448 907 q 538 916 496 910 q 633 928 574 920 q 780 952 692 937 q 732 896 749 921 q 705 853 715 871 q 690 817 694 831 q 696 749 688 803 q 719 621 704 694 q 751 463 734 547 q 787 307 769 380 q 819 184 804 235 q 840 123 833 133 q 865 86 860 95 q 884 71 871 77 q 902 62 890 68 q 931 49 913 57 q 978 30 949 41 q 887 26 925 27 q 825 24 849 26 q 776 22 796 23 q 727 19 755 22 q 664 14 703 16 q 574 8 625 11 q 618 43 601 27 q 644 69 635 58 q 659 94 655 83 q 663 130 662 106 q 663 188 665 152 q 656 282 662 224 l 300 245 q 279 205 286 222 q 270 176 273 189 q 267 152 266 161 q 277 126 270 141 q 296 94 283 113 q 335 52 309 76 q 266 53 301 53 q 201 52 231 53 q 132 49 165 50 q 54 45 98 47 q -32 39 18 42 q -138 30 -81 35 q -79 63 -103 46 q -38 95 -54 80 q -5 126 -19 111 q 33 189 4 140 q 97 307 61 239 q 173 452 133 374 q 245 597 213 529 q 298 716 278 666 q 319 781 319 766 q 305 821 316 799 q 276 864 296 840 q 220 918 256 888 m 640 382 q 625 465 632 430 q 614 522 618 499 q 606 570 609 549 q 597 618 602 589 q 584 683 591 644 q 566 776 576 722 q 446 536 488 621 q 384 412 403 452 q 358 358 361 366 l 640 382 m 446 1044 l 590 1184 l 658 1112 l 481 993 l 446 1044 z "},"":{"ha":907,"x_min":-138,"x_max":978,"o":"m 220 918 q 334 912 288 914 q 412 909 381 910 q 472 909 448 907 q 538 916 496 910 q 633 928 574 920 q 780 952 692 937 q 732 896 749 921 q 705 853 715 871 q 690 817 694 831 q 696 749 688 803 q 719 621 704 694 q 751 463 734 547 q 787 307 769 380 q 819 184 804 235 q 840 123 833 133 q 865 86 860 95 q 884 71 871 77 q 902 62 890 68 q 931 49 913 57 q 978 30 949 41 q 887 26 925 27 q 825 24 849 26 q 776 22 796 23 q 727 19 755 22 q 664 14 703 16 q 574 8 625 11 q 618 43 601 27 q 644 69 635 58 q 659 94 655 83 q 663 130 662 106 q 663 188 665 152 q 656 282 662 224 l 300 245 q 279 205 286 222 q 270 176 273 189 q 267 152 266 161 q 277 126 270 141 q 296 94 283 113 q 335 52 309 76 q 266 53 301 53 q 201 52 231 53 q 132 49 165 50 q 54 45 98 47 q -32 39 18 42 q -138 30 -81 35 q -79 63 -103 46 q -38 95 -54 80 q -5 126 -19 111 q 33 189 4 140 q 97 307 61 239 q 173 452 133 374 q 245 597 213 529 q 298 716 278 666 q 319 781 319 766 q 305 821 316 799 q 276 864 296 840 q 220 918 256 888 m 640 382 q 625 465 632 430 q 614 522 618 499 q 606 570 609 549 q 597 618 602 589 q 584 683 591 644 q 566 776 576 722 q 446 536 488 621 q 384 412 403 452 q 358 358 361 366 l 640 382 m 235 1062 q 295 1101 271 1085 q 334 1127 319 1116 q 359 1146 350 1139 q 382 1166 368 1153 q 415 1196 395 1177 q 465 1245 435 1215 q 540 1179 513 1199 q 567 1158 555 1166 q 598 1135 579 1150 q 641 1103 614 1123 q 707 1057 667 1084 l 543 1050 l 465 1161 l 387 1059 l 235 1062 z "},"":{"ha":907,"x_min":-138,"x_max":978,"o":"m 220 918 q 334 912 288 914 q 412 909 381 910 q 472 909 448 907 q 538 916 496 910 q 633 928 574 920 q 780 952 692 937 q 732 896 749 921 q 705 853 715 871 q 690 817 694 831 q 696 749 688 803 q 719 621 704 694 q 751 463 734 547 q 787 307 769 380 q 819 184 804 235 q 840 123 833 133 q 865 86 860 95 q 884 71 871 77 q 902 62 890 68 q 931 49 913 57 q 978 30 949 41 q 887 26 925 27 q 825 24 849 26 q 776 22 796 23 q 727 19 755 22 q 664 14 703 16 q 574 8 625 11 q 618 43 601 27 q 644 69 635 58 q 659 94 655 83 q 663 130 662 106 q 663 188 665 152 q 656 282 662 224 l 300 245 q 279 205 286 222 q 270 176 273 189 q 267 152 266 161 q 277 126 270 141 q 296 94 283 113 q 335 52 309 76 q 266 53 301 53 q 201 52 231 53 q 132 49 165 50 q 54 45 98 47 q -32 39 18 42 q -138 30 -81 35 q -79 63 -103 46 q -38 95 -54 80 q -5 126 -19 111 q 33 189 4 140 q 97 307 61 239 q 173 452 133 374 q 245 597 213 529 q 298 716 278 666 q 319 781 319 766 q 305 821 316 799 q 276 864 296 840 q 220 918 256 888 m 640 382 q 625 465 632 430 q 614 522 618 499 q 606 570 609 549 q 597 618 602 589 q 584 683 591 644 q 566 776 576 722 q 446 536 488 621 q 384 412 403 452 q 358 358 361 366 l 640 382 m 218 1141 q 268 1196 243 1176 q 315 1223 293 1215 q 362 1234 339 1233 q 412 1219 391 1233 q 452 1190 433 1206 q 492 1162 472 1175 q 541 1150 513 1149 q 585 1160 562 1152 q 627 1181 604 1166 q 670 1222 650 1195 l 724 1111 q 684 1070 708 1084 q 637 1050 661 1057 q 583 1043 612 1043 q 523 1059 547 1044 q 481 1089 499 1073 q 445 1118 463 1105 q 403 1130 427 1131 q 365 1116 384 1126 q 330 1091 349 1108 q 296 1046 311 1074 l 218 1141 z "},"":{"ha":907,"x_min":-138,"x_max":978,"o":"m 220 918 q 334 912 288 914 q 412 909 381 910 q 472 909 448 907 q 538 916 496 910 q 633 928 574 920 q 780 952 692 937 q 732 896 749 921 q 705 853 715 871 q 690 817 694 831 q 696 749 688 803 q 719 621 704 694 q 751 463 734 547 q 787 307 769 380 q 819 184 804 235 q 840 123 833 133 q 865 86 860 95 q 884 71 871 77 q 902 62 890 68 q 931 49 913 57 q 978 30 949 41 q 887 26 925 27 q 825 24 849 26 q 776 22 796 23 q 727 19 755 22 q 664 14 703 16 q 574 8 625 11 q 618 43 601 27 q 644 69 635 58 q 659 94 655 83 q 663 130 662 106 q 663 188 665 152 q 656 282 662 224 l 300 245 q 279 205 286 222 q 270 176 273 189 q 267 152 266 161 q 277 126 270 141 q 296 94 283 113 q 335 52 309 76 q 266 53 301 53 q 201 52 231 53 q 132 49 165 50 q 54 45 98 47 q -32 39 18 42 q -138 30 -81 35 q -79 63 -103 46 q -38 95 -54 80 q -5 126 -19 111 q 33 189 4 140 q 97 307 61 239 q 173 452 133 374 q 245 597 213 529 q 298 716 278 666 q 319 781 319 766 q 305 821 316 799 q 276 864 296 840 q 220 918 256 888 m 640 382 q 625 465 632 430 q 614 522 618 499 q 606 570 609 549 q 597 618 602 589 q 584 683 591 644 q 566 776 576 722 q 446 536 488 621 q 384 412 403 452 q 358 358 361 366 l 640 382 m 358 1219 q 402 1207 382 1221 q 432 1173 422 1194 q 440 1131 442 1153 q 420 1092 438 1108 q 351 1065 391 1065 q 292 1097 312 1066 q 280 1134 281 1114 q 288 1173 279 1154 q 313 1205 296 1192 q 358 1219 331 1218 m 606 1219 q 650 1206 631 1221 q 680 1172 670 1192 q 688 1129 690 1152 q 669 1090 686 1107 q 635 1071 654 1077 q 600 1065 617 1065 q 566 1073 582 1065 q 540 1096 549 1081 q 528 1133 529 1112 q 536 1172 528 1153 q 562 1204 544 1191 q 606 1219 579 1218 z "},"":{"ha":907,"x_min":-138,"x_max":978,"o":"m 640 382 q 625 465 632 430 q 614 522 618 499 q 606 570 609 549 q 597 618 602 589 q 584 683 591 644 q 566 776 576 722 q 446 536 488 621 q 384 412 403 452 q 358 358 361 366 l 640 382 m 354 1019 q 372 1062 355 1040 q 411 1101 388 1084 q 460 1127 434 1118 q 509 1133 486 1137 q 553 1120 530 1128 q 594 1095 576 1111 q 623 1058 612 1080 q 635 1006 635 1036 q 624 958 635 978 q 594 922 613 937 q 674 935 629 928 q 780 952 719 941 q 732 896 749 921 q 705 853 715 871 q 690 817 694 831 q 696 749 688 803 q 719 621 704 694 q 751 463 734 547 q 787 307 769 380 q 819 184 804 235 q 840 123 833 133 q 865 86 860 95 q 884 71 871 77 q 902 62 890 68 q 931 49 913 57 q 978 30 949 41 q 887 26 925 27 q 825 24 849 26 q 776 22 796 23 q 727 19 755 22 q 664 14 703 16 q 574 8 625 11 q 618 43 601 27 q 644 69 635 58 q 659 94 655 83 q 663 130 662 106 q 663 188 665 152 q 656 282 662 224 l 300 245 q 279 205 286 222 q 270 176 273 189 q 267 152 266 161 q 277 126 270 141 q 296 94 283 113 q 335 52 309 76 q 266 53 301 53 q 201 52 231 53 q 132 49 165 50 q 54 45 98 47 q -32 39 18 42 q -138 30 -81 35 q -79 63 -103 46 q -38 95 -54 80 q -5 126 -19 111 q 33 189 4 140 q 97 307 61 239 q 173 452 133 374 q 245 597 213 529 q 298 716 278 666 q 319 781 319 766 q 305 821 316 799 q 276 864 296 840 q 220 918 256 888 q 345 912 294 914 q 426 909 395 910 q 371 951 393 924 q 354 1019 349 979 m 503 941 q 553 964 537 941 q 568 1014 568 987 q 551 1061 568 1040 q 503 1078 534 1082 q 463 1054 479 1076 q 446 1007 448 1032 q 456 962 444 982 q 503 941 469 941 z "},"":{"ha":1242,"x_min":-138,"x_max":1202,"o":"m 772 981 q 871 990 812 983 q 997 1009 921 997 q 1177 1042 1073 1021 q 1162 963 1168 998 q 1154 903 1157 928 q 1150 852 1150 875 q 1146 799 1149 829 q 1141 735 1143 773 q 1131 648 1138 697 q 1076 742 1101 707 q 1032 796 1051 777 q 991 829 1009 819 q 940 840 972 834 q 870 845 913 844 q 766 842 827 846 l 736 548 q 774 547 755 545 q 807 551 792 548 q 842 557 825 553 q 876 574 859 562 q 911 602 891 585 q 951 647 930 618 q 930 555 939 593 q 917 494 922 518 q 909 446 911 465 q 903 406 907 429 q 896 359 901 387 q 886 298 891 332 q 860 344 872 326 q 837 374 848 362 q 814 397 825 389 q 789 408 803 404 q 765 411 779 411 q 736 404 751 411 l 723 179 q 827 172 780 170 q 907 182 873 175 q 977 201 947 189 q 1042 241 1006 216 q 1114 302 1073 264 q 1202 397 1154 340 q 1177 316 1187 350 q 1162 259 1168 282 q 1153 214 1156 233 q 1143 171 1149 195 q 1133 118 1139 149 q 1119 46 1127 87 q 977 48 1036 49 q 878 47 917 47 q 800 46 831 46 q 720 42 768 45 q 614 37 678 39 q 461 30 551 34 q 475 82 468 57 q 488 126 483 107 q 499 165 494 148 q 510 214 505 184 q 522 279 515 240 q 538 373 529 317 l 338 363 q 277 226 298 278 q 247 145 256 174 q 235 98 235 111 q 245 68 235 83 q 268 41 255 53 q 292 21 281 28 q 307 14 304 14 q 284 12 309 14 q 222 9 259 11 q 147 6 186 8 q 85 4 109 4 l 34 4 q -35 3 7 4 q -138 3 -77 3 q -87 43 -113 22 q -41 84 -61 65 q 5 130 -16 107 q 43 182 19 145 q 95 271 66 220 q 155 385 123 323 q 218 509 187 446 q 278 633 250 572 q 329 743 307 693 q 365 828 351 793 q 380 875 378 863 q 372 913 380 894 q 347 948 365 929 q 296 985 330 967 q 465 977 381 978 q 618 977 549 975 q 772 981 699 978 m 423 540 l 557 551 l 578 800 l 536 799 l 423 540 z "},"":{"ha":823,"x_min":-31,"x_max":892,"o":"m 445 -4 l 429 -87 q 492 -110 472 -94 q 518 -145 511 -126 q 522 -193 526 -167 q 488 -241 513 -218 q 425 -279 467 -260 q 312 -309 384 -298 l 315 -247 q 376 -228 354 -239 q 410 -208 399 -217 q 425 -184 422 -197 q 411 -163 425 -172 q 375 -146 400 -155 q 302 -133 350 -138 l 324 -1 q 181 59 247 16 q 68 160 115 102 q -5 286 20 218 q -27 418 -31 353 q -8 526 -24 464 q 36 652 8 587 q 103 780 64 718 q 190 892 142 842 q 294 972 237 941 q 411 1002 350 1002 q 497 987 458 1002 q 569 952 536 971 q 632 918 602 933 q 693 902 662 902 q 749 909 718 903 q 812 926 776 914 q 892 960 848 937 q 820 888 848 917 q 777 840 792 859 q 751 806 760 818 q 727 761 743 791 q 686 688 712 734 q 621 570 661 643 q 603 715 621 663 q 563 793 585 766 q 505 833 537 825 q 445 823 475 837 q 386 781 415 808 q 330 717 357 754 q 283 639 304 680 q 248 557 262 598 q 231 480 235 515 q 229 408 227 449 q 241 323 232 366 q 266 240 251 281 q 303 168 281 199 q 354 116 326 136 q 419 98 382 96 q 499 122 460 100 q 568 177 533 140 q 629 283 604 214 l 830 247 q 720 132 774 178 q 614 58 665 87 q 521 16 564 30 q 445 -4 477 1 z "},"":{"ha":830,"x_min":-56,"x_max":788,"o":"m -56 926 q 102 923 39 924 q 205 922 165 922 l 277 922 l 681 922 q 686 870 684 895 q 688 826 688 845 q 686 784 688 803 q 682 743 685 765 q 677 703 680 724 q 667 658 674 681 q 616 769 648 731 q 552 825 585 807 q 472 846 514 845 q 385 837 416 844 q 336 818 354 830 q 310 790 319 806 q 292 755 301 774 q 277 705 283 739 q 264 628 270 677 q 251 502 258 579 q 310 522 288 513 q 346 538 332 532 q 368 553 361 547 q 384 583 373 562 q 406 635 392 602 q 441 724 420 667 q 444 621 444 662 q 445 553 444 579 q 446 506 445 524 l 446 454 q 447 378 446 426 q 450 256 448 330 q 421 336 434 307 q 399 380 408 365 q 380 404 388 397 q 354 410 370 407 q 317 411 339 411 q 260 404 294 411 q 260 284 256 330 q 270 214 263 239 q 286 174 277 186 q 335 154 298 161 q 418 149 372 146 q 514 164 465 151 q 601 209 563 178 q 662 274 629 235 q 722 359 689 308 q 788 484 755 411 q 781 383 783 423 q 776 319 779 343 q 772 275 773 290 q 768 229 772 259 q 759 159 765 203 q 743 47 753 115 q 623 45 680 46 q 522 43 566 45 q 427 41 471 42 q 328 37 382 41 q 216 28 281 34 q 75 14 152 23 q 85 188 81 106 q 90 332 88 270 q 90 468 91 406 q 84 720 96 624 q 56 844 72 817 q 33 867 47 853 q -1 892 20 878 q -56 926 -23 907 m 235 1172 l 331 1225 l 427 1039 l 363 1001 l 235 1172 z "},"":{"ha":830,"x_min":-56,"x_max":788,"o":"m -56 926 q 102 923 39 924 q 205 922 165 922 l 277 922 l 681 922 q 686 870 684 895 q 688 826 688 845 q 686 784 688 803 q 682 743 685 765 q 677 703 680 724 q 667 658 674 681 q 616 769 648 731 q 552 825 585 807 q 472 846 514 845 q 385 837 416 844 q 336 818 354 830 q 310 790 319 806 q 292 755 301 774 q 277 705 283 739 q 264 628 270 677 q 251 502 258 579 q 310 522 288 513 q 346 538 332 532 q 368 553 361 547 q 384 583 373 562 q 406 635 392 602 q 441 724 420 667 q 444 621 444 662 q 445 553 444 579 q 446 506 445 524 l 446 454 q 447 378 446 426 q 450 256 448 330 q 421 336 434 307 q 399 380 408 365 q 380 404 388 397 q 354 410 370 407 q 317 411 339 411 q 260 404 294 411 q 260 284 256 330 q 270 214 263 239 q 286 174 277 186 q 335 154 298 161 q 418 149 372 146 q 514 164 465 151 q 601 209 563 178 q 662 274 629 235 q 722 359 689 308 q 788 484 755 411 q 781 383 783 423 q 776 319 779 343 q 772 275 773 290 q 768 229 772 259 q 759 159 765 203 q 743 47 753 115 q 623 45 680 46 q 522 43 566 45 q 427 41 471 42 q 328 37 382 41 q 216 28 281 34 q 75 14 152 23 q 85 188 81 106 q 90 332 88 270 q 90 468 91 406 q 84 720 96 624 q 56 844 72 817 q 33 867 47 853 q -1 892 20 878 q -56 926 -23 907 m 267 1058 l 411 1198 l 479 1126 l 302 1006 l 267 1058 z "},"":{"ha":830,"x_min":-56,"x_max":788,"o":"m -56 926 q 102 923 39 924 q 205 922 165 922 l 277 922 l 681 922 q 686 870 684 895 q 688 826 688 845 q 686 784 688 803 q 682 743 685 765 q 677 703 680 724 q 667 658 674 681 q 616 769 648 731 q 552 825 585 807 q 472 846 514 845 q 385 837 416 844 q 336 818 354 830 q 310 790 319 806 q 292 755 301 774 q 277 705 283 739 q 264 628 270 677 q 251 502 258 579 q 310 522 288 513 q 346 538 332 532 q 368 553 361 547 q 384 583 373 562 q 406 635 392 602 q 441 724 420 667 q 444 621 444 662 q 445 553 444 579 q 446 506 445 524 l 446 454 q 447 378 446 426 q 450 256 448 330 q 421 336 434 307 q 399 380 408 365 q 380 404 388 397 q 354 410 370 407 q 317 411 339 411 q 260 404 294 411 q 260 284 256 330 q 270 214 263 239 q 286 174 277 186 q 335 154 298 161 q 418 149 372 146 q 514 164 465 151 q 601 209 563 178 q 662 274 629 235 q 722 359 689 308 q 788 484 755 411 q 781 383 783 423 q 776 319 779 343 q 772 275 773 290 q 768 229 772 259 q 759 159 765 203 q 743 47 753 115 q 623 45 680 46 q 522 43 566 45 q 427 41 471 42 q 328 37 382 41 q 216 28 281 34 q 75 14 152 23 q 85 188 81 106 q 90 332 88 270 q 90 468 91 406 q 84 720 96 624 q 56 844 72 817 q 33 867 47 853 q -1 892 20 878 q -56 926 -23 907 m 123 1048 q 184 1087 160 1072 q 222 1114 208 1103 q 248 1133 239 1126 q 271 1153 256 1139 q 304 1183 283 1164 q 354 1232 324 1202 q 429 1165 401 1185 q 456 1145 444 1153 q 487 1122 468 1137 q 530 1090 503 1109 q 595 1043 556 1070 l 431 1036 l 354 1147 l 275 1046 l 123 1048 z "},"":{"ha":830,"x_min":-56,"x_max":788,"o":"m -56 926 q 102 923 39 924 q 205 922 165 922 l 277 922 l 681 922 q 686 870 684 895 q 688 826 688 845 q 686 784 688 803 q 682 743 685 765 q 677 703 680 724 q 667 658 674 681 q 616 769 648 731 q 552 825 585 807 q 472 846 514 845 q 385 837 416 844 q 336 818 354 830 q 310 790 319 806 q 292 755 301 774 q 277 705 283 739 q 264 628 270 677 q 251 502 258 579 q 310 522 288 513 q 346 538 332 532 q 368 553 361 547 q 384 583 373 562 q 406 635 392 602 q 441 724 420 667 q 444 621 444 662 q 445 553 444 579 q 446 506 445 524 l 446 454 q 447 378 446 426 q 450 256 448 330 q 421 336 434 307 q 399 380 408 365 q 380 404 388 397 q 354 410 370 407 q 317 411 339 411 q 260 404 294 411 q 260 284 256 330 q 270 214 263 239 q 286 174 277 186 q 335 154 298 161 q 418 149 372 146 q 514 164 465 151 q 601 209 563 178 q 662 274 629 235 q 722 359 689 308 q 788 484 755 411 q 781 383 783 423 q 776 319 779 343 q 772 275 773 290 q 768 229 772 259 q 759 159 765 203 q 743 47 753 115 q 623 45 680 46 q 522 43 566 45 q 427 41 471 42 q 328 37 382 41 q 216 28 281 34 q 75 14 152 23 q 85 188 81 106 q 90 332 88 270 q 90 468 91 406 q 84 720 96 624 q 56 844 72 817 q 33 867 47 853 q -1 892 20 878 q -56 926 -23 907 m 233 1191 q 277 1179 258 1192 q 307 1145 297 1165 q 315 1102 317 1124 q 296 1063 313 1080 q 227 1037 266 1036 q 167 1069 187 1038 q 155 1105 156 1085 q 163 1145 155 1126 q 189 1177 171 1164 q 233 1191 206 1190 m 481 1191 q 526 1178 506 1192 q 555 1143 545 1164 q 564 1101 566 1123 q 544 1062 562 1078 q 511 1042 529 1048 q 475 1036 492 1036 q 441 1044 457 1036 q 415 1067 425 1053 q 404 1104 404 1084 q 411 1143 403 1124 q 437 1176 419 1162 q 481 1191 454 1190 z "},"":{"ha":437,"x_min":14,"x_max":430,"o":"m 14 935 q 92 927 60 929 q 144 922 123 925 q 182 920 168 920 q 227 921 197 918 q 296 928 252 924 q 410 940 340 932 q 360 888 378 913 q 332 844 342 863 q 317 800 320 821 q 309 711 312 768 q 302 589 305 655 q 300 452 300 522 q 302 318 300 381 q 310 206 304 255 q 326 136 316 157 q 354 87 339 111 q 387 45 368 66 q 430 9 406 23 q 302 14 350 14 l 254 14 q 198 11 232 14 q 126 5 170 8 q 22 -3 83 3 q 71 62 53 31 q 99 117 88 94 q 115 168 111 144 q 124 256 121 203 q 129 368 127 308 q 130 492 130 429 q 126 613 129 555 q 119 719 123 671 q 107 795 114 766 q 91 834 103 812 q 62 878 80 853 q 14 935 43 903 m 81 1200 l 178 1253 l 274 1067 l 210 1029 l 81 1200 z "},"":{"ha":437,"x_min":14,"x_max":430,"o":"m 14 935 q 92 927 60 929 q 144 922 123 925 q 182 920 168 920 q 227 921 197 918 q 296 928 252 924 q 410 940 340 932 q 360 888 378 913 q 332 844 342 863 q 317 800 320 821 q 309 711 312 768 q 302 589 305 655 q 300 452 300 522 q 302 318 300 381 q 310 206 304 255 q 326 136 316 157 q 354 87 339 111 q 387 45 368 66 q 430 9 406 23 q 302 14 350 14 l 254 14 q 198 11 232 14 q 126 5 170 8 q 22 -3 83 3 q 71 62 53 31 q 99 117 88 94 q 115 168 111 144 q 124 256 121 203 q 129 368 127 308 q 130 492 130 429 q 126 613 129 555 q 119 719 123 671 q 107 795 114 766 q 91 834 103 812 q 62 878 80 853 q 14 935 43 903 m 170 1086 l 313 1226 l 381 1154 l 205 1035 l 170 1086 z "},"":{"ha":437,"x_min":-16,"x_max":456,"o":"m 14 935 q 92 927 60 929 q 144 922 123 925 q 182 920 168 920 q 227 921 197 918 q 296 928 252 924 q 410 940 340 932 q 360 888 378 913 q 332 844 342 863 q 317 800 320 821 q 309 711 312 768 q 302 589 305 655 q 300 452 300 522 q 302 318 300 381 q 310 206 304 255 q 326 136 316 157 q 354 87 339 111 q 387 45 368 66 q 430 9 406 23 q 302 14 350 14 l 254 14 q 198 11 232 14 q 126 5 170 8 q 22 -3 83 3 q 71 62 53 31 q 99 117 88 94 q 115 168 111 144 q 124 256 121 203 q 129 368 127 308 q 130 492 130 429 q 126 613 129 555 q 119 719 123 671 q 107 795 114 766 q 91 834 103 812 q 62 878 80 853 q 14 935 43 903 m -16 1062 q 44 1101 20 1085 q 83 1127 68 1116 q 109 1146 99 1139 q 132 1166 117 1153 q 164 1196 144 1177 q 214 1245 184 1215 q 289 1179 262 1199 q 316 1158 304 1166 q 347 1135 328 1150 q 390 1103 363 1123 q 456 1057 416 1084 l 292 1050 l 214 1161 l 136 1059 l -16 1062 z "},"":{"ha":437,"x_min":14,"x_max":430,"o":"m 14 935 q 92 927 60 929 q 144 922 123 925 q 182 920 168 920 q 227 921 197 918 q 296 928 252 924 q 410 940 340 932 q 360 888 378 913 q 332 844 342 863 q 317 800 320 821 q 309 711 312 768 q 302 589 305 655 q 300 452 300 522 q 302 318 300 381 q 310 206 304 255 q 326 136 316 157 q 354 87 339 111 q 387 45 368 66 q 430 9 406 23 q 302 14 350 14 l 254 14 q 198 11 232 14 q 126 5 170 8 q 22 -3 83 3 q 71 62 53 31 q 99 117 88 94 q 115 168 111 144 q 124 256 121 203 q 129 368 127 308 q 130 492 130 429 q 126 613 129 555 q 119 719 123 671 q 107 795 114 766 q 91 834 103 812 q 62 878 80 853 q 14 935 43 903 m 94 1206 q 138 1194 118 1207 q 168 1160 157 1180 q 176 1117 178 1139 q 156 1078 174 1095 q 87 1052 126 1051 q 27 1084 47 1053 q 16 1120 16 1100 q 23 1160 15 1141 q 49 1192 31 1179 q 94 1206 66 1204 m 342 1206 q 386 1193 366 1207 q 416 1158 406 1179 q 424 1116 426 1138 q 404 1077 422 1093 q 371 1057 389 1063 q 335 1051 353 1051 q 301 1059 317 1051 q 275 1082 285 1067 q 264 1119 264 1099 q 271 1158 263 1139 q 297 1191 279 1177 q 342 1206 315 1204 z "},"":{"ha":922,"x_min":14,"x_max":884,"o":"m 27 940 q 110 929 75 933 q 168 922 145 925 q 214 918 195 920 q 268 921 236 916 q 336 932 300 926 q 411 943 372 939 q 487 944 450 948 q 549 933 511 941 q 630 907 587 925 q 716 861 673 890 q 795 788 760 831 q 854 685 831 745 q 880 545 878 625 q 858 329 884 426 q 778 162 831 232 q 643 53 724 92 q 454 9 562 14 q 292 -3 372 3 q 220 -7 258 -5 q 146 -9 183 -8 q 76 -8 110 -9 q 14 -4 42 -7 q 64 26 45 11 q 95 52 84 41 q 113 76 107 65 q 123 134 118 91 q 135 239 129 171 q 148 423 141 307 l 43 430 l 39 518 l 153 532 q 157 672 156 617 q 155 758 157 727 q 148 812 152 795 q 127 848 142 829 q 90 887 114 864 q 27 940 66 910 m 439 545 l 439 450 l 313 441 q 322 256 312 320 q 346 160 332 191 q 381 119 361 125 q 439 140 407 118 q 504 209 472 163 q 562 324 536 255 q 600 486 587 393 q 593 649 612 578 q 544 768 575 720 q 480 842 513 817 q 431 867 448 867 q 397 857 412 867 q 355 810 382 846 q 335 755 345 791 q 320 673 327 724 q 311 540 313 621 l 439 545 z "},"":{"ha":894,"x_min":-7,"x_max":914,"o":"m -7 962 q 94 947 54 951 q 157 940 133 943 q 202 939 186 937 l 243 939 q 298 939 264 939 q 381 940 331 940 q 433 818 410 873 q 473 723 457 762 q 509 637 492 675 q 549 533 528 590 q 589 426 571 476 q 620 343 608 376 q 632 313 632 311 q 633 341 632 315 q 636 408 635 368 q 640 496 637 448 q 642 589 642 544 q 643 673 643 635 q 640 730 643 711 q 624 783 636 753 q 594 844 613 808 q 541 926 575 880 q 632 925 597 925 q 689 925 667 925 q 727 926 713 925 q 770 929 745 926 q 828 934 793 932 q 914 940 863 936 q 867 888 884 913 q 838 845 849 864 q 822 804 826 823 q 813 725 817 780 q 806 602 810 670 q 800 461 803 534 q 795 327 798 388 q 792 228 795 281 q 787 127 789 183 q 780 14 784 71 l 659 11 q 570 172 606 104 q 511 282 534 239 q 468 366 486 332 q 429 441 453 399 q 378 528 408 476 q 305 646 347 579 q 302 486 301 552 q 305 377 302 420 q 315 293 309 327 q 334 220 321 260 q 360 137 345 184 q 399 30 376 90 q 279 34 319 34 l 239 34 q 187 30 220 34 q 113 22 160 27 q -3 7 66 16 q 50 79 30 46 q 80 136 69 113 q 99 183 94 163 q 104 258 103 205 q 105 380 106 312 q 102 525 104 449 q 98 666 100 601 q 92 777 95 731 q 87 834 88 823 q 71 872 83 852 q 42 912 60 890 q -7 962 24 935 m 176 1141 q 226 1196 201 1176 q 273 1223 251 1215 q 320 1234 297 1233 q 370 1219 349 1233 q 410 1190 391 1206 q 450 1162 430 1175 q 499 1150 471 1149 q 543 1160 519 1152 q 585 1181 562 1166 q 628 1222 608 1195 l 682 1111 q 642 1070 666 1084 q 595 1050 618 1057 q 541 1043 570 1043 q 481 1059 505 1044 q 439 1089 457 1073 q 403 1118 420 1105 q 361 1130 385 1131 q 323 1116 342 1126 q 288 1091 307 1108 q 254 1046 269 1074 l 176 1141 z "},"":{"ha":990,"x_min":24,"x_max":970,"o":"m 509 1023 q 657 996 582 1020 q 796 920 732 972 q 905 786 860 868 q 960 586 949 704 q 937 395 970 490 q 845 222 903 301 q 711 89 787 144 q 559 16 635 34 q 458 14 513 5 q 347 48 403 23 q 237 113 290 73 q 140 203 183 152 q 67 313 96 254 q 31 438 38 373 q 31 558 24 492 q 56 690 37 624 q 112 817 76 755 q 203 926 148 879 q 334 999 259 972 q 509 1023 410 1025 m 266 473 q 294 240 247 328 q 435 133 340 152 q 524 153 481 123 q 602 237 567 182 q 663 368 637 293 q 701 524 689 442 q 703 671 713 605 q 669 783 693 736 q 610 856 644 830 q 538 884 575 882 q 427 851 475 888 q 347 754 380 814 q 295 620 315 694 q 266 473 275 545 m 456 1256 l 552 1309 l 648 1123 l 585 1085 l 456 1256 z "},"":{"ha":990,"x_min":24,"x_max":970,"o":"m 509 1023 q 657 996 582 1020 q 796 920 732 972 q 905 786 860 868 q 960 586 949 704 q 937 395 970 490 q 845 222 903 301 q 711 89 787 144 q 559 16 635 34 q 458 14 513 5 q 347 48 403 23 q 237 113 290 73 q 140 203 183 152 q 67 313 96 254 q 31 438 38 373 q 31 558 24 492 q 56 690 37 624 q 112 817 76 755 q 203 926 148 879 q 334 999 259 972 q 509 1023 410 1025 m 266 473 q 294 240 247 328 q 435 133 340 152 q 524 153 481 123 q 602 237 567 182 q 663 368 637 293 q 701 524 689 442 q 703 671 713 605 q 669 783 693 736 q 610 856 644 830 q 538 884 575 882 q 427 851 475 888 q 347 754 380 814 q 295 620 315 694 q 266 473 275 545 m 460 1156 l 604 1295 l 671 1223 l 495 1104 l 460 1156 z "},"":{"ha":990,"x_min":24,"x_max":970,"o":"m 509 1023 q 657 996 582 1020 q 796 920 732 972 q 905 786 860 868 q 960 586 949 704 q 937 395 970 490 q 845 222 903 301 q 711 89 787 144 q 559 16 635 34 q 458 14 513 5 q 347 48 403 23 q 237 113 290 73 q 140 203 183 152 q 67 313 96 254 q 31 438 38 373 q 31 558 24 492 q 56 690 37 624 q 112 817 76 755 q 203 926 148 879 q 334 999 259 972 q 509 1023 410 1025 m 266 473 q 294 240 247 328 q 435 133 340 152 q 524 153 481 123 q 602 237 567 182 q 663 368 637 293 q 701 524 689 442 q 703 671 713 605 q 669 783 693 736 q 610 856 644 830 q 538 884 575 882 q 427 851 475 888 q 347 754 380 814 q 295 620 315 694 q 266 473 275 545 m 274 1118 q 334 1156 311 1141 q 373 1183 358 1172 q 399 1202 389 1195 q 422 1222 407 1208 q 454 1252 434 1233 q 505 1301 475 1271 q 579 1234 552 1255 q 606 1214 594 1222 q 637 1191 618 1206 q 680 1159 654 1179 q 746 1112 707 1139 l 582 1105 l 505 1217 l 426 1115 l 274 1118 z "},"":{"ha":990,"x_min":24,"x_max":970,"o":"m 509 1023 q 657 996 582 1020 q 796 920 732 972 q 905 786 860 868 q 960 586 949 704 q 937 395 970 490 q 845 222 903 301 q 711 89 787 144 q 559 16 635 34 q 458 14 513 5 q 347 48 403 23 q 237 113 290 73 q 140 203 183 152 q 67 313 96 254 q 31 438 38 373 q 31 558 24 492 q 56 690 37 624 q 112 817 76 755 q 203 926 148 879 q 334 999 259 972 q 509 1023 410 1025 m 266 473 q 294 240 247 328 q 435 133 340 152 q 524 153 481 123 q 602 237 567 182 q 663 368 637 293 q 701 524 689 442 q 703 671 713 605 q 669 783 693 736 q 610 856 644 830 q 538 884 575 882 q 427 851 475 888 q 347 754 380 814 q 295 620 315 694 q 266 473 275 545 m 271 1210 q 321 1265 296 1245 q 368 1293 346 1284 q 415 1303 392 1302 q 465 1289 444 1302 q 505 1259 486 1275 q 545 1231 525 1244 q 594 1219 566 1218 q 637 1229 614 1221 q 680 1250 656 1236 q 723 1291 703 1264 l 777 1180 q 737 1139 761 1153 q 690 1119 713 1126 q 636 1112 665 1112 q 576 1128 600 1114 q 534 1158 552 1142 q 498 1187 515 1175 q 456 1199 480 1200 q 418 1185 437 1195 q 382 1160 401 1177 q 349 1115 363 1143 l 271 1210 z "},"":{"ha":990,"x_min":24,"x_max":970,"o":"m 509 1023 q 657 996 582 1020 q 796 920 732 972 q 905 786 860 868 q 960 586 949 704 q 937 395 970 490 q 845 222 903 301 q 711 89 787 144 q 559 16 635 34 q 458 14 513 5 q 347 48 403 23 q 237 113 290 73 q 140 203 183 152 q 67 313 96 254 q 31 438 38 373 q 31 558 24 492 q 56 690 37 624 q 112 817 76 755 q 203 926 148 879 q 334 999 259 972 q 509 1023 410 1025 m 266 473 q 294 240 247 328 q 435 133 340 152 q 524 153 481 123 q 602 237 567 182 q 663 368 637 293 q 701 524 689 442 q 703 671 713 605 q 669 783 693 736 q 610 856 644 830 q 538 884 575 882 q 427 851 475 888 q 347 754 380 814 q 295 620 315 694 q 266 473 275 545 m 384 1275 q 428 1263 408 1276 q 458 1229 448 1249 q 466 1186 468 1208 q 446 1147 464 1164 q 377 1121 416 1120 q 317 1153 338 1122 q 306 1190 307 1169 q 313 1229 305 1210 q 339 1261 321 1248 q 384 1275 357 1274 m 632 1275 q 676 1262 656 1276 q 706 1227 696 1248 q 714 1185 716 1207 q 694 1146 712 1162 q 661 1126 680 1133 q 625 1120 643 1120 q 591 1128 608 1120 q 566 1152 575 1137 q 554 1188 555 1168 q 562 1227 553 1208 q 587 1260 570 1246 q 632 1275 605 1274 z "},"":{"ha":684,"x_min":20,"x_max":662,"o":"m 555 140 q 537 156 548 142 q 514 183 530 165 q 484 217 499 199 q 458 245 469 235 q 434 271 449 255 q 399 307 420 285 q 345 361 377 330 q 327 348 336 354 q 311 335 317 342 q 293 321 301 328 q 260 289 281 311 q 213 237 243 270 q 140 152 183 203 l 20 248 q 98 302 68 281 q 144 335 127 323 q 172 357 163 350 q 193 374 179 362 q 220 401 203 385 q 264 442 237 416 q 224 477 241 463 q 197 500 208 491 q 175 519 183 511 q 145 543 164 528 q 101 577 129 556 q 30 631 73 598 l 126 724 q 180 669 159 690 q 214 636 202 648 q 237 616 229 621 q 264 591 250 606 q 298 562 278 579 q 342 522 317 545 l 463 631 q 488 655 473 640 q 523 688 502 669 q 575 739 544 708 l 659 636 q 587 587 608 604 q 564 568 572 576 q 536 541 555 557 q 492 502 519 526 q 423 439 465 477 q 485 384 460 406 q 525 349 510 362 q 555 324 543 334 q 582 301 567 316 q 615 271 595 289 q 662 227 635 252 q 608 180 628 197 q 576 154 587 163 q 561 142 566 145 q 555 140 556 140 z "},"":{"ha":1027,"x_min":38,"x_max":989,"o":"m 844 840 q 869 815 845 840 q 921 743 894 791 q 968 622 948 694 q 985 453 989 549 q 965 330 982 392 q 912 209 948 267 q 821 100 876 151 q 686 12 765 49 q 537 -26 609 -23 q 409 -20 465 -30 q 318 4 353 -9 q 282 16 283 18 q 273 3 279 12 q 245 -35 266 -7 q 231 -60 237 -46 q 217 -85 224 -71 q 205 -114 210 -99 l 96 -22 l 180 71 q 121 130 145 96 q 82 201 98 163 q 58 278 66 239 q 46 354 50 317 q 49 536 38 441 q 112 736 68 659 q 210 859 156 814 q 321 925 263 905 q 427 956 380 945 q 511 962 465 963 q 604 950 551 960 q 719 913 658 940 q 741 950 731 932 q 758 982 751 968 q 774 1012 766 997 q 783 1029 777 1020 q 790 1048 785 1038 q 799 1072 795 1059 l 939 963 q 922 950 929 958 q 907 936 914 943 q 892 918 901 928 q 875 892 883 906 q 859 868 868 882 q 844 840 850 854 m 533 429 q 498 376 518 407 q 454 309 480 349 q 397 217 429 270 q 427 158 410 182 q 463 121 444 134 q 503 101 483 107 q 544 94 524 95 q 642 113 590 91 q 716 210 690 142 q 735 279 727 239 q 743 372 743 319 q 734 492 743 425 q 704 643 726 559 q 626 547 658 587 q 574 480 594 507 q 533 429 549 449 m 342 317 q 399 399 376 365 q 437 457 422 434 q 465 500 453 483 q 499 555 477 519 q 549 637 518 586 q 627 770 579 689 q 559 844 594 826 q 496 865 525 863 q 433 852 463 867 q 334 731 369 806 q 308 658 319 699 q 296 566 297 617 q 304 452 294 514 q 342 317 315 391 z "},"":{"ha":861,"x_min":0,"x_max":883,"o":"m 0 954 q 69 941 41 945 q 117 935 98 937 q 153 932 138 932 q 194 933 168 932 q 252 935 217 935 q 342 939 288 936 q 292 902 311 917 q 263 876 273 887 q 248 856 251 864 q 243 816 245 850 q 238 729 240 781 q 237 612 236 677 q 245 481 239 548 q 263 353 251 415 q 296 245 275 292 q 348 174 317 199 q 422 155 378 148 q 514 210 479 163 q 568 326 549 258 q 591 471 586 393 q 592 618 595 549 q 581 736 589 686 q 566 799 572 787 q 544 830 557 812 q 515 865 533 845 q 475 907 498 884 q 551 905 517 906 q 608 903 585 905 q 656 901 635 902 q 711 897 678 899 q 781 891 738 894 q 883 883 823 888 q 846 868 860 878 q 823 848 831 859 q 810 823 814 836 q 804 759 806 812 q 798 630 802 705 q 788 467 795 555 q 767 301 781 380 q 730 161 753 222 q 673 77 708 100 q 564 29 621 43 q 449 14 507 15 q 334 24 391 14 q 227 49 278 34 q 139 122 174 65 q 85 257 104 179 q 56 425 65 335 q 45 600 47 515 q 45 752 43 684 q 49 856 47 821 q 43 890 49 873 q 29 922 39 905 q 0 954 19 939 m 332 1158 l 429 1211 l 525 1025 l 461 987 l 332 1158 z "},"":{"ha":861,"x_min":0,"x_max":883,"o":"m 0 954 q 69 941 41 945 q 117 935 98 937 q 153 932 138 932 q 194 933 168 932 q 252 935 217 935 q 342 939 288 936 q 292 902 311 917 q 263 876 273 887 q 248 856 251 864 q 243 816 245 850 q 238 729 240 781 q 237 612 236 677 q 245 481 239 548 q 263 353 251 415 q 296 245 275 292 q 348 174 317 199 q 422 155 378 148 q 514 210 479 163 q 568 326 549 258 q 591 471 586 393 q 592 618 595 549 q 581 736 589 686 q 566 799 572 787 q 544 830 557 812 q 515 865 533 845 q 475 907 498 884 q 551 905 517 906 q 608 903 585 905 q 656 901 635 902 q 711 897 678 899 q 781 891 738 894 q 883 883 823 888 q 846 868 860 878 q 823 848 831 859 q 810 823 814 836 q 804 759 806 812 q 798 630 802 705 q 788 467 795 555 q 767 301 781 380 q 730 161 753 222 q 673 77 708 100 q 564 29 621 43 q 449 14 507 15 q 334 24 391 14 q 227 49 278 34 q 139 122 174 65 q 85 257 104 179 q 56 425 65 335 q 45 600 47 515 q 45 752 43 684 q 49 856 47 821 q 43 890 49 873 q 29 922 39 905 q 0 954 19 939 m 404 1044 l 548 1184 l 616 1112 l 439 993 l 404 1044 z "},"":{"ha":861,"x_min":0,"x_max":883,"o":"m 0 954 q 69 941 41 945 q 117 935 98 937 q 153 932 138 932 q 194 933 168 932 q 252 935 217 935 q 342 939 288 936 q 292 902 311 917 q 263 876 273 887 q 248 856 251 864 q 243 816 245 850 q 238 729 240 781 q 237 612 236 677 q 245 481 239 548 q 263 353 251 415 q 296 245 275 292 q 348 174 317 199 q 422 155 378 148 q 514 210 479 163 q 568 326 549 258 q 591 471 586 393 q 592 618 595 549 q 581 736 589 686 q 566 799 572 787 q 544 830 557 812 q 515 865 533 845 q 475 907 498 884 q 551 905 517 906 q 608 903 585 905 q 656 901 635 902 q 711 897 678 899 q 781 891 738 894 q 883 883 823 888 q 846 868 860 878 q 823 848 831 859 q 810 823 814 836 q 804 759 806 812 q 798 630 802 705 q 788 467 795 555 q 767 301 781 380 q 730 161 753 222 q 673 77 708 100 q 564 29 621 43 q 449 14 507 15 q 334 24 391 14 q 227 49 278 34 q 139 122 174 65 q 85 257 104 179 q 56 425 65 335 q 45 600 47 515 q 45 752 43 684 q 49 856 47 821 q 43 890 49 873 q 29 922 39 905 q 0 954 19 939 m 193 1048 q 253 1087 229 1072 q 292 1114 277 1103 q 317 1133 308 1126 q 340 1153 326 1139 q 373 1183 353 1164 q 423 1232 393 1202 q 498 1165 471 1185 q 525 1145 513 1153 q 556 1122 537 1137 q 599 1090 572 1109 q 665 1043 625 1070 l 500 1036 l 423 1147 l 345 1046 l 193 1048 z "},"":{"ha":861,"x_min":0,"x_max":883,"o":"m 0 954 q 69 941 41 945 q 117 935 98 937 q 153 932 138 932 q 194 933 168 932 q 252 935 217 935 q 342 939 288 936 q 292 902 311 917 q 263 876 273 887 q 248 856 251 864 q 243 816 245 850 q 238 729 240 781 q 237 612 236 677 q 245 481 239 548 q 263 353 251 415 q 296 245 275 292 q 348 174 317 199 q 422 155 378 148 q 514 210 479 163 q 568 326 549 258 q 591 471 586 393 q 592 618 595 549 q 581 736 589 686 q 566 799 572 787 q 544 830 557 812 q 515 865 533 845 q 475 907 498 884 q 551 905 517 906 q 608 903 585 905 q 656 901 635 902 q 711 897 678 899 q 781 891 738 894 q 883 883 823 888 q 846 868 860 878 q 823 848 831 859 q 810 823 814 836 q 804 759 806 812 q 798 630 802 705 q 788 467 795 555 q 767 301 781 380 q 730 161 753 222 q 673 77 708 100 q 564 29 621 43 q 449 14 507 15 q 334 24 391 14 q 227 49 278 34 q 139 122 174 65 q 85 257 104 179 q 56 425 65 335 q 45 600 47 515 q 45 752 43 684 q 49 856 47 821 q 43 890 49 873 q 29 922 39 905 q 0 954 19 939 m 302 1191 q 347 1179 327 1192 q 376 1145 366 1165 q 385 1102 387 1124 q 365 1063 382 1080 q 296 1037 335 1036 q 236 1069 256 1038 q 224 1105 225 1085 q 232 1145 224 1126 q 258 1177 240 1164 q 302 1191 275 1190 m 551 1191 q 595 1178 575 1192 q 625 1143 614 1164 q 633 1101 635 1123 q 613 1062 631 1078 q 580 1042 598 1048 q 544 1036 562 1036 q 510 1044 526 1036 q 484 1067 494 1053 q 473 1104 473 1084 q 480 1143 472 1124 q 506 1176 488 1162 q 551 1191 524 1190 z "},"":{"ha":742,"x_min":-194,"x_max":998,"o":"m -194 963 q -91 955 -136 958 q -16 949 -46 952 q 43 945 19 947 q 103 944 68 944 q 178 943 133 943 q 283 943 222 943 q 223 907 244 924 q 191 879 202 891 q 175 852 178 864 q 180 815 174 841 q 199 758 187 789 q 229 690 212 726 q 267 627 247 655 q 307 582 286 600 q 346 566 327 564 q 392 584 365 567 q 448 627 419 601 q 506 682 477 652 q 557 741 534 712 q 593 793 579 769 q 608 827 608 817 q 597 859 606 841 q 570 895 589 873 q 517 943 551 916 q 680 939 628 939 l 730 939 l 787 939 q 869 939 818 939 q 998 943 921 940 q 907 880 945 907 q 841 833 868 852 q 789 792 810 810 q 726 732 766 773 q 632 638 690 697 q 486 486 574 579 q 470 326 473 387 q 467 229 467 264 q 472 168 467 189 q 495 130 479 152 q 534 85 509 111 q 601 28 559 60 q 517 45 556 39 q 449 53 479 50 q 385 57 414 57 q 315 54 355 57 q 231 47 279 52 q 117 35 182 43 q 172 81 151 58 q 206 123 194 104 q 228 164 221 145 q 236 227 233 186 q 237 320 239 262 q 228 468 235 378 q 95 673 146 598 q 15 788 43 749 q -34 848 -19 833 q -71 875 -47 859 q -120 911 -90 890 q -194 963 -151 932 m 378 1058 l 522 1198 l 590 1126 l 414 1006 l 378 1058 z "},"":{"ha":808,"x_min":-49,"x_max":827,"o":"m 821 590 q 812 497 827 547 q 765 401 798 448 q 684 315 732 354 q 575 251 635 275 q 475 224 526 232 q 378 215 423 216 q 295 218 332 214 q 237 224 258 221 q 256 170 245 199 q 279 109 266 144 q 312 31 293 73 q 264 31 288 31 q 222 28 241 30 q 182 26 201 27 q 133 20 160 24 q 75 12 110 18 q -3 -1 41 7 q 43 74 26 39 q 68 134 60 109 q 80 189 77 164 q 81 260 81 209 q 79 380 80 312 q 75 522 77 448 q 68 663 72 597 q 59 776 64 728 q 50 838 54 823 q 31 876 45 856 q 1 918 20 894 q -49 971 -19 941 q 44 953 3 959 q 114 944 85 947 q 174 941 148 940 q 203 943 186 941 q 241 947 221 945 q 283 952 262 949 q 324 958 305 955 l 254 811 q 248 789 250 800 q 243 769 245 777 q 239 750 240 758 q 317 762 275 755 q 402 774 359 769 q 485 783 445 780 q 556 783 525 785 q 639 764 595 779 q 720 726 682 750 q 786 669 758 703 q 821 590 814 635 m 444 347 q 507 393 483 365 q 542 452 530 420 q 553 518 553 484 q 546 583 553 552 q 524 635 538 613 q 492 669 510 658 q 431 677 469 682 q 354 661 393 673 q 281 635 315 650 q 233 616 247 621 l 233 610 q 234 606 233 608 q 235 602 235 605 l 229 426 q 226 412 227 419 q 224 399 225 406 q 222 385 222 392 q 253 358 233 373 q 300 334 273 343 q 364 327 328 326 q 444 347 400 328 z "},"":{"ha":1002,"x_min":7,"x_max":977,"o":"m 562 544 q 550 524 556 537 q 541 494 544 510 q 538 463 537 479 q 551 437 540 448 q 586 418 557 430 q 654 393 614 407 q 740 362 694 378 q 826 330 785 346 q 897 297 867 313 q 936 267 926 281 q 963 209 949 247 q 973 130 977 171 q 940 49 970 88 q 837 -14 910 9 q 726 -24 780 -33 q 629 0 673 -16 q 552 32 585 16 q 506 45 519 47 q 473 31 491 42 q 437 5 454 19 q 408 -18 419 -8 q 396 -24 396 -27 q 401 -8 396 -22 q 412 25 406 5 q 424 68 418 45 q 433 113 430 91 q 439 157 435 132 q 446 214 442 180 q 457 293 450 247 q 477 231 465 258 q 502 187 490 205 q 532 152 517 167 q 579 116 552 133 q 635 88 606 99 q 690 74 663 77 q 734 80 716 71 q 764 110 751 88 q 782 157 776 132 q 786 205 788 182 q 773 244 784 229 q 736 269 765 254 q 667 301 707 283 q 583 338 628 319 q 500 378 538 358 q 437 415 463 397 q 408 448 411 433 q 406 494 406 469 q 412 545 406 519 q 432 595 418 571 q 471 640 446 620 q 517 675 495 662 q 554 706 538 689 q 579 747 570 723 q 589 815 589 772 q 559 869 589 840 q 489 922 529 898 q 410 962 449 947 q 351 972 370 977 q 298 920 323 962 q 259 813 278 884 q 235 616 240 742 q 275 315 258 429 q 304 142 293 202 q 324 43 317 71 q 343 5 332 22 q 366 -23 353 -9 q 397 -41 380 -37 q 323 -31 354 -34 q 270 -26 292 -27 q 228 -24 245 -24 q 189 -28 212 -26 q 80 -49 149 -33 q 123 1 107 -30 q 148 62 140 33 q 160 136 157 98 q 157 209 160 159 q 149 325 155 251 q 133 517 144 399 q 107 515 118 515 q 90 514 96 514 l 75 514 q 58 513 68 514 q 37 509 50 511 q 7 502 24 506 q 10 524 9 513 q 12 545 11 536 q 14 566 14 556 l 14 586 q 14 606 14 595 q 16 628 15 617 l 123 625 q 118 730 117 684 q 122 811 119 777 q 133 880 126 850 q 159 948 142 917 q 203 1001 175 979 q 274 1034 232 1023 q 376 1046 316 1046 q 545 1018 479 1044 q 648 953 610 991 q 701 871 686 914 q 715 793 715 827 q 692 718 715 758 q 643 642 670 678 q 591 578 616 605 q 562 544 567 552 z "},"":{"ha":746,"x_min":37,"x_max":780,"o":"m 122 549 q 131 580 129 557 q 142 631 133 602 q 172 690 151 659 q 243 749 194 722 q 335 781 290 776 q 420 777 380 787 q 497 747 461 768 q 563 703 533 727 q 595 656 583 686 q 614 587 608 625 q 625 508 621 549 q 629 428 628 467 q 631 357 631 389 q 636 305 632 326 q 655 254 642 275 q 685 219 669 233 q 718 197 701 205 q 746 184 734 189 q 761 179 754 180 q 780 179 774 174 q 765 146 772 160 q 754 123 758 133 q 745 106 749 113 q 735 91 741 98 q 724 76 731 84 q 711 58 718 68 q 677 75 693 65 q 650 92 662 84 q 623 111 635 102 q 600 133 610 121 q 580 156 590 144 q 563 183 570 168 q 524 133 555 165 q 445 74 494 100 q 332 37 396 47 q 190 52 267 26 q 126 83 156 62 q 75 134 96 104 q 45 203 54 164 q 46 289 37 241 q 80 369 56 336 q 138 422 104 401 q 214 453 172 442 q 301 468 256 464 q 372 464 336 469 q 434 444 401 458 q 490 401 467 430 q 485 516 488 473 q 479 582 481 559 q 469 620 473 609 q 455 642 463 629 q 437 664 448 654 q 410 681 426 674 q 372 686 393 688 q 335 674 349 685 q 314 649 321 663 q 305 618 307 635 q 307 590 304 602 q 315 572 309 582 q 330 555 320 564 q 355 538 339 545 q 300 532 324 534 q 258 528 275 530 q 222 524 237 525 q 187 518 208 522 q 144 511 170 515 q 84 500 118 507 q 99 519 92 510 q 111 534 106 528 q 122 549 117 543 m 326 388 q 277 376 301 387 q 233 348 252 366 q 201 306 214 330 q 189 254 189 282 q 203 204 189 225 q 241 170 217 183 q 292 153 264 156 q 347 159 320 151 q 396 189 373 168 q 435 235 419 210 q 458 286 452 260 q 460 327 465 311 q 411 376 449 362 q 326 388 373 391 m 235 1034 l 331 1086 l 427 901 l 363 863 l 235 1034 z "},"":{"ha":746,"x_min":37,"x_max":780,"o":"m 122 549 q 131 580 129 557 q 142 631 133 602 q 172 690 151 659 q 243 749 194 722 q 335 781 290 776 q 420 777 380 787 q 497 747 461 768 q 563 703 533 727 q 595 656 583 686 q 614 587 608 625 q 625 508 621 549 q 629 428 628 467 q 631 357 631 389 q 636 305 632 326 q 655 254 642 275 q 685 219 669 233 q 718 197 701 205 q 746 184 734 189 q 761 179 754 180 q 780 179 774 174 q 765 146 772 160 q 754 123 758 133 q 745 106 749 113 q 735 91 741 98 q 724 76 731 84 q 711 58 718 68 q 677 75 693 65 q 650 92 662 84 q 623 111 635 102 q 600 133 610 121 q 580 156 590 144 q 563 183 570 168 q 524 133 555 165 q 445 74 494 100 q 332 37 396 47 q 190 52 267 26 q 126 83 156 62 q 75 134 96 104 q 45 203 54 164 q 46 289 37 241 q 80 369 56 336 q 138 422 104 401 q 214 453 172 442 q 301 468 256 464 q 372 464 336 469 q 434 444 401 458 q 490 401 467 430 q 485 516 488 473 q 479 582 481 559 q 469 620 473 609 q 455 642 463 629 q 437 664 448 654 q 410 681 426 674 q 372 686 393 688 q 335 674 349 685 q 314 649 321 663 q 305 618 307 635 q 307 590 304 602 q 315 572 309 582 q 330 555 320 564 q 355 538 339 545 q 300 532 324 534 q 258 528 275 530 q 222 524 237 525 q 187 518 208 522 q 144 511 170 515 q 84 500 118 507 q 99 519 92 510 q 111 534 106 528 q 122 549 117 543 m 326 388 q 277 376 301 387 q 233 348 252 366 q 201 306 214 330 q 189 254 189 282 q 203 204 189 225 q 241 170 217 183 q 292 153 264 156 q 347 159 320 151 q 396 189 373 168 q 435 235 419 210 q 458 286 452 260 q 460 327 465 311 q 411 376 449 362 q 326 388 373 391 m 267 921 l 411 1061 l 479 989 l 302 869 l 267 921 z "},"":{"ha":746,"x_min":37,"x_max":780,"o":"m 122 549 q 131 580 129 557 q 142 631 133 602 q 172 690 151 659 q 243 749 194 722 q 335 781 290 776 q 420 777 380 787 q 497 747 461 768 q 563 703 533 727 q 595 656 583 686 q 614 587 608 625 q 625 508 621 549 q 629 428 628 467 q 631 357 631 389 q 636 305 632 326 q 655 254 642 275 q 685 219 669 233 q 718 197 701 205 q 746 184 734 189 q 761 179 754 180 q 780 179 774 174 q 765 146 772 160 q 754 123 758 133 q 745 106 749 113 q 735 91 741 98 q 724 76 731 84 q 711 58 718 68 q 677 75 693 65 q 650 92 662 84 q 623 111 635 102 q 600 133 610 121 q 580 156 590 144 q 563 183 570 168 q 524 133 555 165 q 445 74 494 100 q 332 37 396 47 q 190 52 267 26 q 126 83 156 62 q 75 134 96 104 q 45 203 54 164 q 46 289 37 241 q 80 369 56 336 q 138 422 104 401 q 214 453 172 442 q 301 468 256 464 q 372 464 336 469 q 434 444 401 458 q 490 401 467 430 q 485 516 488 473 q 479 582 481 559 q 469 620 473 609 q 455 642 463 629 q 437 664 448 654 q 410 681 426 674 q 372 686 393 688 q 335 674 349 685 q 314 649 321 663 q 305 618 307 635 q 307 590 304 602 q 315 572 309 582 q 330 555 320 564 q 355 538 339 545 q 300 532 324 534 q 258 528 275 530 q 222 524 237 525 q 187 518 208 522 q 144 511 170 515 q 84 500 118 507 q 99 519 92 510 q 111 534 106 528 q 122 549 117 543 m 326 388 q 277 376 301 387 q 233 348 252 366 q 201 306 214 330 q 189 254 189 282 q 203 204 189 225 q 241 170 217 183 q 292 153 264 156 q 347 159 320 151 q 396 189 373 168 q 435 235 419 210 q 458 286 452 260 q 460 327 465 311 q 411 376 449 362 q 326 388 373 391 m 137 895 q 197 934 174 918 q 236 960 221 949 q 262 979 252 972 q 285 1000 270 986 q 317 1029 297 1010 q 368 1078 338 1048 q 442 1012 415 1032 q 469 991 457 1000 q 500 968 481 983 q 543 937 517 956 q 609 890 570 917 l 445 883 l 368 994 l 289 892 l 137 895 z "},"":{"ha":746,"x_min":37,"x_max":780,"o":"m 122 549 q 131 580 129 557 q 142 631 133 602 q 172 690 151 659 q 243 749 194 722 q 335 781 290 776 q 420 777 380 787 q 497 747 461 768 q 563 703 533 727 q 595 656 583 686 q 614 587 608 625 q 625 508 621 549 q 629 428 628 467 q 631 357 631 389 q 636 305 632 326 q 655 254 642 275 q 685 219 669 233 q 718 197 701 205 q 746 184 734 189 q 761 179 754 180 q 780 179 774 174 q 765 146 772 160 q 754 123 758 133 q 745 106 749 113 q 735 91 741 98 q 724 76 731 84 q 711 58 718 68 q 677 75 693 65 q 650 92 662 84 q 623 111 635 102 q 600 133 610 121 q 580 156 590 144 q 563 183 570 168 q 524 133 555 165 q 445 74 494 100 q 332 37 396 47 q 190 52 267 26 q 126 83 156 62 q 75 134 96 104 q 45 203 54 164 q 46 289 37 241 q 80 369 56 336 q 138 422 104 401 q 214 453 172 442 q 301 468 256 464 q 372 464 336 469 q 434 444 401 458 q 490 401 467 430 q 485 516 488 473 q 479 582 481 559 q 469 620 473 609 q 455 642 463 629 q 437 664 448 654 q 410 681 426 674 q 372 686 393 688 q 335 674 349 685 q 314 649 321 663 q 305 618 307 635 q 307 590 304 602 q 315 572 309 582 q 330 555 320 564 q 355 538 339 545 q 300 532 324 534 q 258 528 275 530 q 222 524 237 525 q 187 518 208 522 q 144 511 170 515 q 84 500 118 507 q 99 519 92 510 q 111 534 106 528 q 122 549 117 543 m 326 388 q 277 376 301 387 q 233 348 252 366 q 201 306 214 330 q 189 254 189 282 q 203 204 189 225 q 241 170 217 183 q 292 153 264 156 q 347 159 320 151 q 396 189 373 168 q 435 235 419 210 q 458 286 452 260 q 460 327 465 311 q 411 376 449 362 q 326 388 373 391 m 121 962 q 170 1017 145 997 q 217 1044 195 1036 q 264 1055 241 1054 q 314 1040 293 1054 q 355 1011 335 1027 q 395 983 374 996 q 444 971 415 970 q 487 981 464 972 q 529 1002 506 987 q 572 1043 552 1016 l 627 932 q 587 891 610 905 q 540 871 563 878 q 486 864 514 864 q 425 880 449 865 q 383 910 401 894 q 347 939 365 926 q 305 951 330 952 q 267 937 286 947 q 232 912 251 929 q 198 867 213 895 l 121 962 z "},"":{"ha":746,"x_min":37,"x_max":780,"o":"m 122 549 q 131 580 129 557 q 142 631 133 602 q 172 690 151 659 q 243 749 194 722 q 335 781 290 776 q 420 777 380 787 q 497 747 461 768 q 563 703 533 727 q 595 656 583 686 q 614 587 608 625 q 625 508 621 549 q 629 428 628 467 q 631 357 631 389 q 636 305 632 326 q 655 254 642 275 q 685 219 669 233 q 718 197 701 205 q 746 184 734 189 q 761 179 754 180 q 780 179 774 174 q 765 146 772 160 q 754 123 758 133 q 745 106 749 113 q 735 91 741 98 q 724 76 731 84 q 711 58 718 68 q 677 75 693 65 q 650 92 662 84 q 623 111 635 102 q 600 133 610 121 q 580 156 590 144 q 563 183 570 168 q 524 133 555 165 q 445 74 494 100 q 332 37 396 47 q 190 52 267 26 q 126 83 156 62 q 75 134 96 104 q 45 203 54 164 q 46 289 37 241 q 80 369 56 336 q 138 422 104 401 q 214 453 172 442 q 301 468 256 464 q 372 464 336 469 q 434 444 401 458 q 490 401 467 430 q 485 516 488 473 q 479 582 481 559 q 469 620 473 609 q 455 642 463 629 q 437 664 448 654 q 410 681 426 674 q 372 686 393 688 q 335 674 349 685 q 314 649 321 663 q 305 618 307 635 q 307 590 304 602 q 315 572 309 582 q 330 555 320 564 q 355 538 339 545 q 300 532 324 534 q 258 528 275 530 q 222 524 237 525 q 187 518 208 522 q 144 511 170 515 q 84 500 118 507 q 99 519 92 510 q 111 534 106 528 q 122 549 117 543 m 326 388 q 277 376 301 387 q 233 348 252 366 q 201 306 214 330 q 189 254 189 282 q 203 204 189 225 q 241 170 217 183 q 292 153 264 156 q 347 159 320 151 q 396 189 373 168 q 435 235 419 210 q 458 286 452 260 q 460 327 465 311 q 411 376 449 362 q 326 388 373 391 m 247 1012 q 291 1000 271 1013 q 321 966 311 986 q 329 923 331 945 q 309 884 327 901 q 240 858 279 857 q 180 890 201 859 q 169 926 170 906 q 176 966 168 947 q 202 998 184 985 q 247 1012 220 1010 m 495 1012 q 539 999 519 1013 q 569 964 559 985 q 577 922 579 944 q 557 883 575 899 q 524 863 543 869 q 488 857 506 857 q 454 865 471 857 q 429 888 438 873 q 417 925 418 905 q 425 964 416 945 q 450 997 433 983 q 495 1012 468 1010 z "},"":{"ha":746,"x_min":37,"x_max":780,"o":"m 326 388 q 277 376 301 387 q 233 348 252 366 q 201 306 214 330 q 189 254 189 282 q 203 204 189 225 q 241 170 217 183 q 292 153 264 156 q 347 159 320 151 q 396 189 373 168 q 435 235 419 210 q 458 286 452 260 q 460 327 465 311 q 411 376 449 362 q 326 388 373 391 m 214 894 q 233 937 217 916 q 273 976 250 959 q 321 1002 296 993 q 370 1008 347 1012 q 415 995 392 1004 q 456 970 438 986 q 485 933 473 955 q 496 882 496 911 q 474 815 496 841 q 419 777 452 789 q 496 748 460 769 q 563 703 533 727 q 595 656 583 686 q 614 587 608 625 q 625 508 621 549 q 629 428 628 467 q 631 357 631 389 q 636 305 632 326 q 655 254 642 275 q 685 219 669 233 q 718 197 701 205 q 746 184 734 189 q 761 179 754 180 q 780 179 774 174 q 765 146 772 160 q 754 123 758 133 q 745 106 749 113 q 735 91 741 98 q 724 76 731 84 q 711 58 718 68 q 677 75 693 65 q 650 92 662 84 q 623 111 635 102 q 600 133 610 121 q 580 156 590 144 q 563 183 570 168 q 524 133 555 165 q 445 74 494 100 q 332 37 396 47 q 190 52 267 26 q 126 83 156 62 q 75 134 96 104 q 45 203 54 164 q 46 289 37 241 q 80 369 56 336 q 138 422 104 401 q 214 453 172 442 q 301 468 256 464 q 372 464 336 469 q 434 444 401 458 q 490 401 467 430 q 485 516 488 473 q 479 582 481 559 q 469 620 473 609 q 455 642 463 629 q 437 664 448 654 q 410 681 426 674 q 372 686 393 688 q 335 674 349 685 q 314 649 321 663 q 305 618 307 635 q 307 590 304 602 q 315 572 309 582 q 330 555 320 564 q 355 538 339 545 l 222 524 q 187 518 208 522 q 144 511 170 515 q 84 500 118 507 q 99 519 92 510 q 111 534 106 528 q 122 549 117 543 q 131 580 129 557 q 142 631 133 602 q 172 690 151 659 q 243 749 194 722 q 276 766 259 760 q 309 776 293 772 q 239 817 270 788 q 214 894 209 846 m 363 817 q 414 840 397 817 q 429 889 430 863 q 412 937 429 916 q 363 954 395 958 q 323 929 339 951 q 306 882 308 907 q 317 837 304 857 q 363 817 330 817 z "},"":{"ha":1127,"x_min":30,"x_max":1085,"o":"m 115 548 q 124 580 122 557 q 135 631 126 602 q 165 690 144 659 q 236 749 187 722 q 313 769 269 764 q 404 765 351 773 q 525 726 457 757 q 590 762 552 749 q 663 783 628 776 q 746 795 704 791 q 913 755 838 793 q 975 712 944 739 q 1029 646 1005 685 q 1068 552 1053 606 q 1085 425 1084 498 q 937 410 1001 416 q 824 397 872 403 q 743 389 776 392 q 690 382 711 385 q 635 373 640 377 q 650 304 635 338 q 683 243 665 270 q 718 201 701 217 q 739 183 735 184 q 788 187 753 182 q 877 204 819 193 q 1036 243 935 216 q 1036 191 1034 210 q 1039 174 1038 180 q 1043 153 1040 164 q 1048 131 1046 144 q 1054 103 1050 118 q 850 74 933 76 q 715 80 766 72 q 616 110 654 90 q 591 130 604 119 q 571 153 581 140 q 556 182 562 165 q 517 132 548 164 q 438 73 487 99 q 325 35 389 46 q 183 50 260 24 q 119 83 149 62 q 68 134 90 104 q 39 202 47 164 q 39 288 30 240 q 73 369 49 336 q 132 422 98 401 q 208 452 165 442 q 294 467 250 463 q 365 463 330 468 q 427 444 395 457 q 481 401 458 430 q 477 515 480 473 q 471 581 473 557 q 463 618 467 606 q 448 642 456 629 q 430 664 441 654 q 403 680 419 674 q 365 685 387 686 q 328 673 342 684 q 307 648 315 663 q 298 618 300 633 q 300 590 297 602 q 308 571 302 581 q 323 554 313 563 q 349 537 332 545 q 293 531 317 533 q 251 526 269 529 q 216 522 231 524 q 180 517 201 519 q 137 511 163 514 q 77 500 111 507 q 92 517 85 509 q 104 533 99 526 q 115 548 110 541 m 317 387 q 269 375 293 385 q 226 347 245 365 q 194 306 206 330 q 182 254 182 282 q 196 203 182 225 q 234 169 210 182 q 286 153 258 156 q 340 159 313 149 q 389 188 366 167 q 429 234 412 209 q 452 284 445 259 q 453 327 458 309 q 404 375 442 361 q 317 387 366 389 m 932 498 q 909 629 933 583 q 859 697 886 675 q 784 726 825 722 q 709 696 742 722 q 683 667 696 685 q 660 625 670 650 q 644 566 650 600 q 639 488 637 533 l 932 498 z "},"":{"ha":738,"x_min":26,"x_max":779,"o":"m 419 76 l 400 -18 q 463 -41 444 -24 q 490 -76 483 -57 q 495 -123 498 -98 q 461 -172 486 -149 q 397 -210 439 -191 q 283 -240 355 -229 l 286 -178 q 348 -159 326 -170 q 381 -138 370 -148 q 396 -115 393 -127 q 382 -94 396 -103 q 347 -77 372 -85 q 275 -64 323 -69 l 298 79 q 218 106 254 88 q 149 148 182 125 q 110 189 132 160 q 69 257 88 217 q 38 346 50 297 q 28 447 26 395 q 53 552 31 499 q 122 654 75 605 q 276 749 194 727 q 431 762 358 772 q 562 719 505 751 q 642 648 618 686 q 676 591 665 610 q 694 561 688 571 q 705 546 700 551 q 719 533 709 541 q 735 518 726 526 q 754 502 743 511 q 779 481 765 492 q 739 486 762 484 q 693 487 715 487 q 642 486 669 487 q 585 483 613 484 q 530 479 560 481 q 471 475 499 477 q 490 490 481 480 q 506 509 499 499 q 518 532 513 519 q 517 581 525 552 q 488 635 509 610 q 435 673 467 659 q 365 680 403 688 q 292 651 324 670 q 239 599 260 632 q 210 517 218 566 q 205 403 201 469 q 232 271 210 320 q 285 198 254 222 q 353 169 316 174 q 427 168 391 164 q 475 191 453 174 q 507 235 492 206 q 521 313 522 263 l 686 320 q 617 193 658 240 q 538 121 576 146 q 449 80 494 91 q 434 78 442 79 q 419 76 426 77 z "},"":{"ha":768,"x_min":34,"x_max":739,"o":"m 373 218 q 444 227 411 218 q 496 249 471 233 q 529 296 521 264 q 575 287 556 290 q 608 281 594 283 q 633 275 623 277 q 659 270 644 273 q 692 264 673 267 q 739 255 712 260 q 698 251 719 258 q 658 236 677 244 q 617 213 636 227 q 589 189 605 205 q 545 157 574 172 q 470 132 517 142 q 350 125 423 122 q 202 157 262 127 q 106 229 142 186 q 53 321 69 271 q 35 415 37 372 q 61 506 34 458 q 138 593 88 553 q 258 657 187 632 q 412 682 328 682 q 503 671 461 682 q 578 640 544 659 q 639 597 613 621 q 682 549 665 574 q 712 495 700 524 q 730 439 723 471 q 734 376 736 408 q 568 372 631 373 q 469 370 505 370 l 408 370 l 362 370 q 298 369 338 370 q 202 365 259 368 q 237 281 209 311 q 296 237 264 252 q 373 218 331 221 m 251 463 q 323 458 294 460 q 372 456 353 457 q 404 454 392 454 l 438 454 q 564 458 472 454 q 539 549 560 518 q 495 595 518 581 q 435 614 468 612 q 304 578 347 613 q 251 463 262 543 m 290 937 l 387 990 l 483 804 l 419 766 l 290 937 z "},"":{"ha":768,"x_min":34,"x_max":739,"o":"m 373 218 q 444 227 411 218 q 496 249 471 233 q 529 296 521 264 q 575 287 556 290 q 608 281 594 283 q 633 275 623 277 q 659 270 644 273 q 692 264 673 267 q 739 255 712 260 q 698 251 719 258 q 658 236 677 244 q 617 213 636 227 q 589 189 605 205 q 545 157 574 172 q 470 132 517 142 q 350 125 423 122 q 202 157 262 127 q 106 229 142 186 q 53 321 69 271 q 35 415 37 372 q 61 506 34 458 q 138 593 88 553 q 258 657 187 632 q 412 682 328 682 q 503 671 461 682 q 578 640 544 659 q 639 597 613 621 q 682 549 665 574 q 712 495 700 524 q 730 439 723 471 q 734 376 736 408 q 568 372 631 373 q 469 370 505 370 l 408 370 l 362 370 q 298 369 338 370 q 202 365 259 368 q 237 281 209 311 q 296 237 264 252 q 373 218 331 221 m 251 463 q 323 458 294 460 q 372 456 353 457 q 404 454 392 454 l 438 454 q 564 458 472 454 q 539 549 560 518 q 495 595 518 581 q 435 614 468 612 q 304 578 347 613 q 251 463 262 543 m 309 796 l 453 936 l 521 864 l 345 745 l 309 796 z "},"":{"ha":768,"x_min":34,"x_max":739,"o":"m 373 218 q 444 227 411 218 q 496 249 471 233 q 529 296 521 264 q 575 287 556 290 q 608 281 594 283 q 633 275 623 277 q 659 270 644 273 q 692 264 673 267 q 739 255 712 260 q 698 251 719 258 q 658 236 677 244 q 617 213 636 227 q 589 189 605 205 q 545 157 574 172 q 470 132 517 142 q 350 125 423 122 q 202 157 262 127 q 106 229 142 186 q 53 321 69 271 q 35 415 37 372 q 61 506 34 458 q 138 593 88 553 q 258 657 187 632 q 412 682 328 682 q 503 671 461 682 q 578 640 544 659 q 639 597 613 621 q 682 549 665 574 q 712 495 700 524 q 730 439 723 471 q 734 376 736 408 q 568 372 631 373 q 469 370 505 370 l 408 370 l 362 370 q 298 369 338 370 q 202 365 259 368 q 237 281 209 311 q 296 237 264 252 q 373 218 331 221 m 251 463 q 323 458 294 460 q 372 456 353 457 q 404 454 392 454 l 438 454 q 564 458 472 454 q 539 549 560 518 q 495 595 518 581 q 435 614 468 612 q 304 578 347 613 q 251 463 262 543 m 179 785 q 239 824 216 808 q 278 850 263 840 q 304 869 294 863 q 327 890 312 876 q 359 920 339 901 q 410 968 380 939 q 484 902 457 922 q 511 882 499 890 q 543 859 524 873 q 585 827 559 846 q 651 780 612 807 l 487 773 l 410 884 l 331 783 l 179 785 z "},"":{"ha":768,"x_min":34,"x_max":739,"o":"m 373 218 q 444 227 411 218 q 496 249 471 233 q 529 296 521 264 q 575 287 556 290 q 608 281 594 283 q 633 275 623 277 q 659 270 644 273 q 692 264 673 267 q 739 255 712 260 q 698 251 719 258 q 658 236 677 244 q 617 213 636 227 q 589 189 605 205 q 545 157 574 172 q 470 132 517 142 q 350 125 423 122 q 202 157 262 127 q 106 229 142 186 q 53 321 69 271 q 35 415 37 372 q 61 506 34 458 q 138 593 88 553 q 258 657 187 632 q 412 682 328 682 q 503 671 461 682 q 578 640 544 659 q 639 597 613 621 q 682 549 665 574 q 712 495 700 524 q 730 439 723 471 q 734 376 736 408 q 568 372 631 373 q 469 370 505 370 l 408 370 l 362 370 q 298 369 338 370 q 202 365 259 368 q 237 281 209 311 q 296 237 264 252 q 373 218 331 221 m 251 463 q 323 458 294 460 q 372 456 353 457 q 404 454 392 454 l 438 454 q 564 458 472 454 q 539 549 560 518 q 495 595 518 581 q 435 614 468 612 q 304 578 347 613 q 251 463 262 543 m 289 929 q 333 917 313 930 q 363 883 353 903 q 371 840 373 863 q 351 802 369 818 q 282 775 321 774 q 222 807 243 776 q 211 844 212 823 q 218 883 210 864 q 244 915 227 902 q 289 929 262 928 m 537 929 q 581 916 562 930 q 611 882 601 902 q 619 839 621 861 q 600 800 617 817 q 566 781 585 787 q 530 774 548 774 q 496 783 513 774 q 471 806 480 791 q 459 842 460 822 q 467 882 458 863 q 492 914 475 901 q 537 929 510 928 z "},"":{"ha":332,"x_min":20,"x_max":304,"o":"m 20 606 l 270 604 q 238 463 248 521 q 225 365 228 404 q 222 289 220 320 q 236 228 227 260 q 260 165 244 201 q 304 95 277 130 q 269 103 288 100 q 233 107 250 106 q 195 107 214 109 q 153 103 176 106 q 107 96 134 100 q 50 85 80 92 q 82 191 71 146 q 99 266 94 236 q 106 323 104 301 q 106 385 106 350 q 106 452 106 419 q 104 509 106 484 q 99 541 103 534 l 85 555 q 62 574 77 562 q 20 606 46 587 m 27 897 l 123 949 l 220 764 l 156 726 l 27 897 z "},"":{"ha":332,"x_min":20,"x_max":326,"o":"m 20 606 l 270 604 q 238 463 248 521 q 225 365 228 404 q 222 289 220 320 q 236 228 227 260 q 260 165 244 201 q 304 95 277 130 q 269 103 288 100 q 233 107 250 106 q 195 107 214 109 q 153 103 176 106 q 107 96 134 100 q 50 85 80 92 q 82 191 71 146 q 99 266 94 236 q 106 323 104 301 q 106 385 106 350 q 106 452 106 419 q 104 509 106 484 q 99 541 103 534 l 85 555 q 62 574 77 562 q 20 606 46 587 m 114 768 l 258 907 l 326 836 l 149 716 l 114 768 z "},"":{"ha":332,"x_min":-72,"x_max":400,"o":"m 20 606 l 270 604 q 238 463 248 521 q 225 365 228 404 q 222 289 220 320 q 236 228 227 260 q 260 165 244 201 q 304 95 277 130 q 269 103 288 100 q 233 107 250 106 q 195 107 214 109 q 153 103 176 106 q 107 96 134 100 q 50 85 80 92 q 82 191 71 146 q 99 266 94 236 q 106 323 104 301 q 106 385 106 350 q 106 452 106 419 q 104 509 106 484 q 99 541 103 534 l 85 555 q 62 574 77 562 q 20 606 46 587 m -72 745 q -12 783 -35 768 q 27 810 12 799 q 53 829 43 822 q 76 849 61 836 q 109 879 88 860 q 159 928 129 898 q 233 861 206 882 q 260 841 248 849 q 292 818 273 833 q 334 786 308 806 q 400 739 361 766 l 236 732 l 159 844 l 80 742 l -72 745 z "},"":{"ha":332,"x_min":-41,"x_max":370,"o":"m 20 606 l 270 604 q 238 463 248 521 q 225 365 228 404 q 222 289 220 320 q 236 228 227 260 q 260 165 244 201 q 304 95 277 130 q 269 103 288 100 q 233 107 250 106 q 195 107 214 109 q 153 103 176 106 q 107 96 134 100 q 50 85 80 92 q 82 191 71 146 q 99 266 94 236 q 106 323 104 301 q 106 385 106 350 q 106 452 106 419 q 104 509 106 484 q 99 541 103 534 l 85 555 q 62 574 77 562 q 20 606 46 587 m 38 887 q 82 875 62 888 q 112 841 102 861 q 120 798 122 821 q 100 760 118 776 q 31 733 71 732 q -28 765 -8 734 q -40 802 -39 781 q -33 841 -41 822 q -7 873 -24 860 q 38 887 11 886 m 286 887 q 330 874 311 888 q 360 840 350 860 q 368 797 370 819 q 349 758 366 774 q 315 739 334 745 q 279 732 297 732 q 245 741 262 732 q 220 764 229 749 q 208 800 209 780 q 216 840 208 821 q 241 872 224 859 q 286 887 259 886 z "},"":{"ha":754,"x_min":39,"x_max":701,"o":"m 491 269 q 492 361 495 319 q 479 434 488 403 q 457 486 469 465 q 431 515 445 507 q 376 535 408 528 q 320 532 343 543 q 293 509 309 526 q 260 465 277 491 q 231 404 244 438 q 213 334 218 370 q 211 255 208 297 q 228 176 214 213 q 267 112 241 138 q 331 81 292 85 q 372 89 347 79 q 422 122 397 99 q 467 181 448 145 q 491 269 487 217 m 610 966 l 640 854 q 591 836 613 844 q 549 822 568 829 q 660 562 618 696 q 699 298 701 429 q 690 222 699 260 q 667 151 682 184 q 627 90 651 117 q 574 47 604 64 q 499 18 536 28 q 429 1 463 7 q 365 -4 395 -4 q 313 -3 335 -4 q 229 26 273 0 q 146 90 184 52 q 80 173 107 127 q 47 259 53 218 q 45 376 39 315 q 85 488 50 437 q 191 574 119 540 q 384 608 262 608 q 434 602 408 608 q 486 585 460 595 q 455 673 473 624 q 411 779 437 723 q 355 758 388 770 q 281 730 321 746 l 244 859 q 310 875 282 868 q 359 887 338 882 q 326 946 343 917 q 289 1004 308 975 l 300 1166 q 397 1054 349 1115 q 488 924 445 993 q 610 966 532 937 z "},"":{"ha":814,"x_min":0,"x_max":753,"o":"m 62 149 q 77 229 72 194 q 84 286 81 263 q 87 332 87 313 q 85 387 85 355 q 82 451 84 419 q 77 508 80 483 q 71 544 75 533 q 56 567 65 555 q 0 612 37 590 q 54 623 31 618 q 91 632 76 628 q 119 642 107 637 q 145 650 130 646 q 175 656 157 652 q 216 666 193 661 l 212 543 q 300 620 255 594 q 384 656 345 646 q 472 670 429 670 q 573 652 526 667 q 654 618 620 637 q 711 576 689 598 q 736 538 732 555 q 745 441 753 486 q 724 356 736 397 q 702 274 711 315 q 708 186 693 233 q 719 161 713 174 q 732 140 724 151 q 751 122 741 129 q 722 124 736 123 q 694 126 707 125 q 667 129 680 127 q 631 130 654 130 q 509 126 591 130 q 528 174 521 155 q 541 206 536 194 q 549 229 547 221 q 569 319 566 269 q 562 420 572 369 q 548 463 557 438 q 523 510 538 487 q 486 549 507 533 q 438 568 465 566 q 378 555 411 571 q 307 495 345 538 q 262 406 278 458 q 241 294 247 361 q 258 137 236 227 q 222 140 239 140 q 195 142 206 141 q 171 145 182 144 q 144 146 159 145 q 110 147 130 146 q 62 149 90 148 m 148 850 q 197 905 172 886 q 244 933 222 925 q 292 944 269 943 q 341 929 320 943 q 382 900 362 916 q 422 871 401 884 q 471 860 442 859 q 514 869 491 861 q 556 890 533 876 q 600 932 579 905 l 654 821 q 614 780 637 793 q 567 760 590 766 q 513 753 541 753 q 452 768 476 754 q 410 799 429 783 q 374 828 392 815 q 332 840 357 841 q 294 826 313 836 q 259 801 278 818 q 225 755 240 784 l 148 850 z "},"":{"ha":739,"x_min":39,"x_max":703,"o":"m 384 608 q 457 595 419 608 q 530 562 495 582 q 595 520 566 543 q 643 477 624 498 q 690 379 677 441 q 694 253 703 317 q 656 132 686 189 q 574 47 627 75 q 499 18 536 28 q 429 1 463 7 q 365 -4 395 -4 q 313 -3 335 -4 q 229 26 273 0 q 146 90 184 52 q 80 173 107 127 q 47 259 53 218 q 45 376 39 315 q 85 488 50 437 q 191 574 119 540 q 384 608 262 608 m 339 81 q 380 89 354 79 q 431 122 406 99 q 475 181 456 145 q 499 269 495 217 q 500 361 503 319 q 487 435 496 403 q 465 487 477 467 q 439 515 453 507 q 384 535 416 528 q 328 532 351 543 q 301 509 317 526 q 269 465 285 491 q 239 404 252 438 q 221 334 227 370 q 219 255 216 297 q 236 176 222 213 q 275 112 250 138 q 339 81 300 85 m 304 854 l 400 907 l 496 722 l 433 684 l 304 854 z "},"":{"ha":739,"x_min":39,"x_max":703,"o":"m 384 608 q 457 595 419 608 q 530 562 495 582 q 595 520 566 543 q 643 477 624 498 q 690 379 677 441 q 694 253 703 317 q 656 132 686 189 q 574 47 627 75 q 499 18 536 28 q 429 1 463 7 q 365 -4 395 -4 q 313 -3 335 -4 q 229 26 273 0 q 146 90 184 52 q 80 173 107 127 q 47 259 53 218 q 45 376 39 315 q 85 488 50 437 q 191 574 119 540 q 384 608 262 608 m 339 81 q 380 89 354 79 q 431 122 406 99 q 475 181 456 145 q 499 269 495 217 q 500 361 503 319 q 487 435 496 403 q 465 487 477 467 q 439 515 453 507 q 384 535 416 528 q 328 532 351 543 q 301 509 317 526 q 269 465 285 491 q 239 404 252 438 q 221 334 227 370 q 219 255 216 297 q 236 176 222 213 q 275 112 250 138 q 339 81 300 85 m 309 754 l 453 894 l 521 822 l 345 703 l 309 754 z "},"":{"ha":739,"x_min":39,"x_max":703,"o":"m 384 608 q 457 595 419 608 q 530 562 495 582 q 595 520 566 543 q 643 477 624 498 q 690 379 677 441 q 694 253 703 317 q 656 132 686 189 q 574 47 627 75 q 499 18 536 28 q 429 1 463 7 q 365 -4 395 -4 q 313 -3 335 -4 q 229 26 273 0 q 146 90 184 52 q 80 173 107 127 q 47 259 53 218 q 45 376 39 315 q 85 488 50 437 q 191 574 119 540 q 384 608 262 608 m 339 81 q 380 89 354 79 q 431 122 406 99 q 475 181 456 145 q 499 269 495 217 q 500 361 503 319 q 487 435 496 403 q 465 487 477 467 q 439 515 453 507 q 384 535 416 528 q 328 532 351 543 q 301 509 317 526 q 269 465 285 491 q 239 404 252 438 q 221 334 227 370 q 219 255 216 297 q 236 176 222 213 q 275 112 250 138 q 339 81 300 85 m 137 716 q 197 755 174 739 q 236 781 221 770 q 262 800 252 793 q 285 821 270 807 q 317 850 297 831 q 368 899 338 869 q 442 833 415 853 q 469 812 457 821 q 500 789 481 804 q 543 758 517 777 q 609 711 570 738 l 445 704 l 368 815 l 289 713 l 137 716 z "},"":{"ha":739,"x_min":39,"x_max":703,"o":"m 384 608 q 457 595 419 608 q 530 562 495 582 q 595 520 566 543 q 643 477 624 498 q 690 379 677 441 q 694 253 703 317 q 656 132 686 189 q 574 47 627 75 q 499 18 536 28 q 429 1 463 7 q 365 -4 395 -4 q 313 -3 335 -4 q 229 26 273 0 q 146 90 184 52 q 80 173 107 127 q 47 259 53 218 q 45 376 39 315 q 85 488 50 437 q 191 574 119 540 q 384 608 262 608 m 339 81 q 380 89 354 79 q 431 122 406 99 q 475 181 456 145 q 499 269 495 217 q 500 361 503 319 q 487 435 496 403 q 465 487 477 467 q 439 515 453 507 q 384 535 416 528 q 328 532 351 543 q 301 509 317 526 q 269 465 285 491 q 239 404 252 438 q 221 334 227 370 q 219 255 216 297 q 236 176 222 213 q 275 112 250 138 q 339 81 300 85 m 148 795 q 197 850 172 830 q 244 878 222 869 q 292 888 269 887 q 341 873 320 887 q 382 844 362 860 q 422 816 401 829 q 471 804 442 803 q 514 814 491 806 q 556 835 533 821 q 600 876 579 849 l 654 765 q 614 724 637 738 q 567 704 590 711 q 513 697 541 697 q 452 713 476 699 q 410 743 429 727 q 374 772 392 760 q 332 784 357 785 q 294 770 313 780 q 259 745 278 762 q 225 700 240 728 l 148 795 z "},"":{"ha":739,"x_min":39,"x_max":703,"o":"m 384 608 q 457 595 419 608 q 530 562 495 582 q 595 520 566 543 q 643 477 624 498 q 690 379 677 441 q 694 253 703 317 q 656 132 686 189 q 574 47 627 75 q 499 18 536 28 q 429 1 463 7 q 365 -4 395 -4 q 313 -3 335 -4 q 229 26 273 0 q 146 90 184 52 q 80 173 107 127 q 47 259 53 218 q 45 376 39 315 q 85 488 50 437 q 191 574 119 540 q 384 608 262 608 m 339 81 q 380 89 354 79 q 431 122 406 99 q 475 181 456 145 q 499 269 495 217 q 500 361 503 319 q 487 435 496 403 q 465 487 477 467 q 439 515 453 507 q 384 535 416 528 q 328 532 351 543 q 301 509 317 526 q 269 465 285 491 q 239 404 252 438 q 221 334 227 370 q 219 255 216 297 q 236 176 222 213 q 275 112 250 138 q 339 81 300 85 m 260 845 q 304 833 285 846 q 334 799 324 819 q 342 756 345 779 q 323 718 340 734 q 254 691 293 690 q 194 723 214 692 q 182 760 183 739 q 190 799 182 780 q 216 831 198 818 q 260 845 233 844 m 509 845 q 553 832 533 846 q 583 798 572 818 q 591 755 593 777 q 571 716 589 732 q 538 696 556 703 q 502 690 519 690 q 468 699 484 690 q 442 722 452 707 q 431 758 431 738 q 438 798 430 779 q 464 830 446 817 q 509 845 481 844 z "},"":{"ha":753,"x_min":20,"x_max":731,"o":"m 349 743 q 397 737 373 745 q 438 716 420 730 q 465 685 456 703 q 468 648 473 667 q 446 613 463 628 q 408 589 429 598 q 364 578 387 581 q 324 578 342 575 q 290 589 307 581 q 262 611 274 598 q 244 640 250 624 q 244 671 239 655 q 282 722 255 704 q 349 743 309 741 m 354 332 q 403 326 378 334 q 446 306 427 319 q 473 276 464 293 q 476 240 481 259 q 454 205 471 220 q 415 182 437 191 q 370 170 393 172 q 328 170 346 167 q 293 181 311 172 q 263 203 275 190 q 245 231 251 216 q 245 262 240 245 q 286 312 256 293 q 354 332 315 331 m 20 502 q 186 498 115 499 q 304 499 256 498 q 397 502 358 499 q 483 507 434 503 q 583 515 525 510 q 715 529 642 521 l 731 395 q 574 406 646 403 q 450 411 502 410 q 339 411 388 412 q 237 406 290 408 q 138 399 193 403 q 31 389 83 396 l 20 502 z "},"":{"ha":735,"x_min":27,"x_max":750,"o":"m 389 647 q 460 640 431 647 q 507 625 488 633 q 536 607 525 616 q 556 594 548 598 q 597 635 582 618 q 623 662 613 651 q 639 681 633 674 q 647 693 643 686 q 661 720 654 704 l 686 667 q 699 654 690 662 q 718 635 705 647 q 750 608 730 624 q 730 600 738 604 q 720 595 724 597 q 704 586 715 593 q 676 566 693 579 q 632 532 659 553 q 663 444 655 484 q 674 372 671 403 q 671 305 677 336 q 646 217 663 267 q 590 119 628 167 q 491 32 552 71 q 336 -22 430 -7 q 274 -19 305 -26 q 216 3 247 -14 q 161 56 186 20 q 151 43 156 49 q 142 31 146 37 q 132 19 137 26 q 122 8 127 14 q 113 -3 118 3 q 104 -15 109 -8 l 27 75 q 58 94 43 84 l 71 102 q 83 110 77 104 q 94 117 88 113 q 104 125 99 122 q 60 216 71 168 q 52 304 50 263 q 66 397 53 351 q 119 504 85 457 q 195 583 152 551 q 287 631 237 614 q 389 647 336 647 m 214 243 q 266 292 243 270 q 304 330 289 315 q 335 362 321 347 q 368 397 347 374 q 412 447 385 416 q 481 524 439 477 q 472 564 481 551 q 452 585 463 578 q 422 591 438 591 q 334 554 376 586 q 262 448 292 522 q 241 385 251 419 q 225 319 233 357 q 214 243 217 282 m 330 52 q 379 75 357 54 q 420 123 401 95 q 452 182 438 151 q 475 239 467 213 q 487 286 481 260 q 496 341 492 309 q 500 414 499 373 q 437 355 464 381 q 391 312 410 330 q 353 275 369 290 q 319 240 338 260 q 281 197 302 222 q 233 141 259 172 q 260 85 243 103 q 292 60 277 66 q 330 52 309 52 z "},"":{"ha":738,"x_min":27,"x_max":738,"o":"m 27 624 q 89 614 62 617 q 134 608 115 610 q 172 604 156 605 q 210 601 189 602 q 313 601 247 600 q 252 581 274 604 q 218 530 229 559 q 203 452 205 496 q 207 344 201 392 q 230 262 213 296 q 275 214 247 229 q 349 205 304 198 q 417 237 393 212 q 452 299 441 262 q 465 384 463 336 q 468 483 467 431 q 467 557 468 534 q 465 586 467 579 q 461 592 464 593 q 454 598 458 591 q 446 609 452 604 q 435 622 442 614 q 420 637 429 629 q 484 635 456 636 q 530 633 511 635 q 568 631 552 632 q 608 627 583 629 q 661 621 628 624 q 738 613 693 618 q 688 593 707 606 q 658 566 669 579 q 640 533 646 551 q 640 463 636 510 q 654 347 643 420 q 688 155 665 274 l 581 91 l 559 271 q 475 169 519 205 q 393 117 431 133 q 307 95 349 98 q 211 102 251 95 q 142 122 171 110 q 97 150 114 134 q 72 182 80 165 q 52 269 53 216 q 56 376 50 323 q 68 475 61 430 q 72 536 75 519 q 64 563 69 548 q 50 591 58 575 q 27 624 42 606 m 221 882 l 317 935 l 414 749 l 350 711 l 221 882 z "},"":{"ha":738,"x_min":27,"x_max":738,"o":"m 27 624 q 89 614 62 617 q 134 608 115 610 q 172 604 156 605 q 210 601 189 602 q 313 601 247 600 q 252 581 274 604 q 218 530 229 559 q 203 452 205 496 q 207 344 201 392 q 230 262 213 296 q 275 214 247 229 q 349 205 304 198 q 417 237 393 212 q 452 299 441 262 q 465 384 463 336 q 468 483 467 431 q 467 557 468 534 q 465 586 467 579 q 461 592 464 593 q 454 598 458 591 q 446 609 452 604 q 435 622 442 614 q 420 637 429 629 q 484 635 456 636 q 530 633 511 635 q 568 631 552 632 q 608 627 583 629 q 661 621 628 624 q 738 613 693 618 q 688 593 707 606 q 658 566 669 579 q 640 533 646 551 q 640 463 636 510 q 654 347 643 420 q 688 155 665 274 l 581 91 l 559 271 q 475 169 519 205 q 393 117 431 133 q 307 95 349 98 q 211 102 251 95 q 142 122 171 110 q 97 150 114 134 q 72 182 80 165 q 52 269 53 216 q 56 376 50 323 q 68 475 61 430 q 72 536 75 519 q 64 563 69 548 q 50 591 58 575 q 27 624 42 606 m 267 754 l 411 894 l 479 822 l 302 703 l 267 754 z "},"":{"ha":738,"x_min":27,"x_max":738,"o":"m 27 624 q 89 614 62 617 q 134 608 115 610 q 172 604 156 605 q 210 601 189 602 q 313 601 247 600 q 252 581 274 604 q 218 530 229 559 q 203 452 205 496 q 207 344 201 392 q 230 262 213 296 q 275 214 247 229 q 349 205 304 198 q 417 237 393 212 q 452 299 441 262 q 465 384 463 336 q 468 483 467 431 q 467 557 468 534 q 465 586 467 579 q 461 592 464 593 q 454 598 458 591 q 446 609 452 604 q 435 622 442 614 q 420 637 429 629 q 484 635 456 636 q 530 633 511 635 q 568 631 552 632 q 608 627 583 629 q 661 621 628 624 q 738 613 693 618 q 688 593 707 606 q 658 566 669 579 q 640 533 646 551 q 640 463 636 510 q 654 347 643 420 q 688 155 665 274 l 581 91 l 559 271 q 475 169 519 205 q 393 117 431 133 q 307 95 349 98 q 211 102 251 95 q 142 122 171 110 q 97 150 114 134 q 72 182 80 165 q 52 269 53 216 q 56 376 50 323 q 68 475 61 430 q 72 536 75 519 q 64 563 69 548 q 50 591 58 575 q 27 624 42 606 m 123 758 q 184 797 160 781 q 222 823 208 812 q 248 842 239 836 q 271 863 256 849 q 304 892 283 873 q 354 941 324 911 q 429 875 401 895 q 456 854 444 863 q 487 831 468 846 q 530 800 503 819 q 595 753 556 780 l 431 746 l 354 857 l 275 755 l 123 758 z "},"":{"ha":738,"x_min":27,"x_max":738,"o":"m 27 624 q 89 614 62 617 q 134 608 115 610 q 172 604 156 605 q 210 601 189 602 q 313 601 247 600 q 252 581 274 604 q 218 530 229 559 q 203 452 205 496 q 207 344 201 392 q 230 262 213 296 q 275 214 247 229 q 349 205 304 198 q 417 237 393 212 q 452 299 441 262 q 465 384 463 336 q 468 483 467 431 q 467 557 468 534 q 465 586 467 579 q 461 592 464 593 q 454 598 458 591 q 446 609 452 604 q 435 622 442 614 q 420 637 429 629 q 484 635 456 636 q 530 633 511 635 q 568 631 552 632 q 608 627 583 629 q 661 621 628 624 q 738 613 693 618 q 688 593 707 606 q 658 566 669 579 q 640 533 646 551 q 640 463 636 510 q 654 347 643 420 q 688 155 665 274 l 581 91 l 559 271 q 475 169 519 205 q 393 117 431 133 q 307 95 349 98 q 211 102 251 95 q 142 122 171 110 q 97 150 114 134 q 72 182 80 165 q 52 269 53 216 q 56 376 50 323 q 68 475 61 430 q 72 536 75 519 q 64 563 69 548 q 50 591 58 575 q 27 624 42 606 m 233 873 q 277 861 258 875 q 307 827 297 848 q 315 785 317 807 q 296 746 313 762 q 227 720 266 719 q 167 751 187 720 q 155 788 156 768 q 163 827 155 808 q 189 859 171 846 q 233 873 206 872 m 481 873 q 526 861 506 875 q 555 826 545 846 q 564 783 566 806 q 544 745 562 761 q 511 725 529 731 q 475 719 492 719 q 441 727 457 719 q 415 750 425 735 q 404 787 404 766 q 411 826 403 807 q 437 859 419 845 q 481 873 454 872 z "},"":{"ha":791,"x_min":-49,"x_max":720,"o":"m -49 693 q -1 687 -22 689 q 37 684 20 685 q 71 682 54 682 q 109 684 85 682 q 158 687 127 685 q 231 693 189 689 q 220 660 228 688 q 203 592 212 632 q 189 504 195 552 q 184 409 183 456 q 195 321 184 362 q 231 254 206 279 q 322 190 282 201 q 392 193 362 179 q 441 233 422 206 q 468 283 460 260 q 492 415 488 346 q 483 548 495 475 q 425 697 471 621 q 486 693 460 694 q 530 690 511 692 q 568 688 552 689 q 604 688 583 686 q 646 690 621 688 q 703 694 671 692 q 712 458 708 562 q 718 275 716 354 q 720 138 720 195 q 720 41 720 80 q 712 -83 719 -53 q 673 -167 701 -125 q 604 -242 646 -209 q 507 -294 562 -275 q 387 -307 452 -312 q 286 -290 323 -301 q 227 -263 248 -278 q 197 -232 206 -248 q 184 -199 189 -216 q 176 -167 180 -182 q 160 -141 172 -152 q 129 -117 145 -129 q 97 -95 114 -106 q 64 -77 80 -84 l 353 -61 q 335 -91 340 -77 q 328 -114 330 -104 q 330 -134 327 -126 q 349 -170 335 -151 q 387 -201 363 -190 q 441 -209 410 -213 q 514 -175 473 -205 q 571 -92 548 -149 q 601 45 590 -43 q 597 277 612 133 q 530 148 572 193 q 446 83 488 103 q 345 57 397 58 q 224 75 274 60 q 141 118 174 91 q 90 182 109 145 q 64 266 72 220 q 56 359 56 312 q 56 446 56 406 q 57 520 57 487 q 50 574 57 553 q 28 614 42 594 q -2 653 18 632 q -49 693 -22 674 m 294 852 l 438 991 l 506 920 l 330 800 l 294 852 z "},"":{"ha":924,"x_min":35,"x_max":892,"o":"m 71 1004 q 175 1000 144 1000 l 205 1000 q 235 1001 217 1000 q 271 1002 250 1002 q 321 1004 293 1002 q 302 978 311 989 q 289 960 294 967 q 279 945 283 952 q 269 886 274 933 q 255 762 263 845 q 237 533 247 680 q 373 602 311 579 q 481 635 435 625 q 578 644 536 646 q 680 620 632 639 q 765 573 727 601 q 831 513 803 545 q 875 448 859 480 q 889 385 886 426 q 880 298 892 345 q 838 208 868 252 q 753 138 807 164 q 560 90 655 95 q 477 92 519 87 q 391 115 434 98 q 309 166 349 133 q 237 252 270 199 q 222 132 227 183 q 216 47 217 81 q 217 -19 214 8 q 228 -77 220 -46 q 247 -140 235 -104 q 281 -216 259 -176 q 249 -205 267 -209 q 213 -201 231 -202 q 172 -201 193 -199 q 130 -205 153 -202 q 86 -211 111 -208 q 35 -221 61 -214 q 58 -181 50 -203 q 72 -140 66 -159 q 81 -94 77 -117 q 86 -20 83 -73 q 94 104 90 34 q 101 250 98 174 q 108 393 104 327 q 113 507 111 460 q 114 563 114 553 q 109 677 114 612 q 96 815 104 734 q 71 1004 87 897 m 323 376 q 319 316 313 346 q 347 260 324 286 q 410 214 369 233 q 514 184 452 194 q 609 187 576 175 q 658 226 642 199 q 680 288 674 252 q 693 363 685 324 q 690 441 701 401 q 659 514 678 481 q 615 568 639 547 q 574 589 591 589 q 491 567 532 589 q 416 513 450 545 q 357 443 382 480 q 323 376 332 406 z "},"":{"ha":791,"x_min":-49,"x_max":720,"o":"m -49 693 q -1 687 -22 689 q 37 684 20 685 q 71 682 54 682 q 109 684 85 682 q 158 687 127 685 q 231 693 189 689 q 220 660 228 688 q 203 592 212 632 q 189 504 195 552 q 184 409 183 456 q 195 321 184 362 q 231 254 206 279 q 322 190 282 201 q 392 193 362 179 q 441 233 422 206 q 468 283 460 260 q 492 415 488 346 q 483 548 495 475 q 425 697 471 621 q 486 693 460 694 q 530 690 511 692 q 568 688 552 689 q 604 688 583 686 q 646 690 621 688 q 703 694 671 692 q 712 458 708 562 q 718 275 716 354 q 720 138 720 195 q 720 41 720 80 q 712 -83 719 -53 q 673 -167 701 -125 q 604 -242 646 -209 q 507 -294 562 -275 q 387 -307 452 -312 q 286 -290 323 -301 q 227 -263 248 -278 q 197 -232 206 -248 q 184 -199 189 -216 q 176 -167 180 -182 q 160 -141 172 -152 q 129 -117 145 -129 q 97 -95 114 -106 q 64 -77 80 -84 l 353 -61 q 335 -91 340 -77 q 328 -114 330 -104 q 330 -134 327 -126 q 349 -170 335 -151 q 387 -201 363 -190 q 441 -209 410 -213 q 514 -175 473 -205 q 571 -92 548 -149 q 601 45 590 -43 q 597 277 612 133 q 530 148 572 193 q 446 83 488 103 q 345 57 397 58 q 224 75 274 60 q 141 118 174 91 q 90 182 109 145 q 64 266 72 220 q 56 359 56 312 q 56 446 56 406 q 57 520 57 487 q 50 574 57 553 q 28 614 42 594 q -2 653 18 632 q -49 693 -22 674 m 218 971 q 262 959 243 972 q 292 925 282 945 q 300 882 302 905 q 281 844 298 860 q 212 817 251 817 q 152 849 172 818 q 140 886 141 865 q 148 925 140 906 q 174 957 156 944 q 218 971 191 970 m 467 971 q 511 958 491 972 q 541 924 530 944 q 549 881 551 903 q 529 842 547 859 q 496 823 514 829 q 460 817 477 817 q 426 825 442 817 q 400 848 410 833 q 389 884 389 864 q 396 924 388 905 q 422 956 404 943 q 467 971 439 970 z "},"":{"ha":993,"x_min":260,"x_max":732,"o":"m 260 882 q 321 920 297 905 q 359 947 345 936 q 385 966 376 959 q 408 986 393 972 q 441 1016 420 997 q 491 1065 461 1035 q 566 998 538 1019 q 593 978 581 986 q 624 955 605 970 q 667 923 640 943 q 732 876 693 903 l 568 869 l 491 981 l 412 879 l 260 882 z "},"":{"ha":993,"x_min":260,"x_max":732,"o":"m 732 1053 q 672 1013 696 1028 q 633 986 648 997 q 608 968 617 974 q 585 948 600 962 q 552 918 572 937 q 502 869 532 899 q 458 908 477 892 q 426 935 439 924 q 400 956 411 947 q 369 979 388 964 q 326 1010 353 991 q 260 1058 300 1029 l 425 1065 l 502 954 l 581 1055 l 732 1053 z "}}}
